Galada.ufo
<glyph name="quotedbl" format="1">
  <advance width="420"/>
  <unicode hex="0022"/>
  <outline>
    <contour>
      <point x="62" y="561" type="line" name="hr00"/>
      <point x="137" y="561" type="line"/>
      <point x="228" y="750" type="line"/>
      <point x="123" y="750" type="line"/>
    </contour>
    <contour>
      <point x="219" y="561" type="line"/>
      <point x="294" y="561" type="line"/>
      <point x="385" y="750" type="line"/>
      <point x="280" y="750" type="line"/>
    </contour>
  </outline>
</glyph>
<glyph name="dollar" format="1">
  <advance width="403"/>
  <unicode hex="0024"/>
  <outline>
    <contour>
      <point x="110" y="-27" type="line"/>
      <point x="137" y="-27" type="line"/>
      <point x="166" y="107" type="line"/>
      <point x="270" y="109"/>
      <point x="346" y="160"/>
      <point x="346" y="255" type="curve" smooth="yes"/>
      <point x="346" y="337"/>
      <point x="284" y="375"/>
      <point x="233" y="408" type="curve"/>
      <point x="269" y="569" type="line"/>
      <point x="291" y="560"/>
      <point x="301" y="540"/>
      <point x="301" y="525" type="curve" smooth="yes" name="hr01"/>
      <point x="301" y="504"/>
      <point x="294" y="483"/>
      <point x="277" y="473" type="curve"/>
      <point x="290" y="457"/>
      <point x="300" y="450"/>
      <point x="316" y="450" type="curve" smooth="yes"/>
      <point x="346" y="450"/>
      <point x="364" y="480"/>
      <point x="364" y="526" type="curve" smooth="yes"/>
      <point x="364" y="582"/>
      <point x="320" y="602"/>
      <point x="277" y="609" type="curve"/>
      <point x="302" y="718" type="line"/>
      <point x="244" y="718" type="line"/>
      <point x="225" y="612" type="line"/>
      <point x="151" y="609"/>
      <point x="71" y="555"/>
      <point x="71" y="481" type="curve" smooth="yes"/>
      <point x="71" y="417"/>
      <point x="129" y="384"/>
      <point x="177" y="344" type="curve"/>
      <point x="141" y="148" type="line"/>
      <point x="119" y="158"/>
      <point x="99" y="180"/>
      <point x="99" y="209" type="curve" smooth="yes" name="hr02"/>
      <point x="99" y="249"/>
      <point x="111" y="278"/>
      <point x="139" y="283" type="curve"/>
      <point x="139" y="296"/>
      <point x="124" y="308"/>
      <point x="96" y="308" type="curve" smooth="yes"/>
      <point x="57" y="308"/>
      <point x="24" y="274"/>
      <point x="24" y="222" type="curve" smooth="yes"/>
      <point x="24" y="143"/>
      <point x="73" y="113"/>
      <point x="134" y="108" type="curve"/>
    </contour>
    <contour>
      <point x="241" y="234" type="curve" smooth="yes"/>
      <point x="241" y="190"/>
      <point x="223" y="150"/>
      <point x="175" y="144" type="curve"/>
      <point x="212" y="310" type="line"/>
      <point x="229" y="289"/>
      <point x="241" y="265"/>
    </contour>
    <contour>
      <point x="166" y="500" type="curve" smooth="yes" name="hr03"/>
      <point x="166" y="530"/>
      <point x="179" y="566"/>
      <point x="218" y="574" type="curve"/>
      <point x="194" y="439" type="line"/>
      <point x="177" y="456"/>
      <point x="166" y="475"/>
    </contour>
  </outline>
</glyph>
<glyph name="percent" format="1">
  <advance width="644"/>
  <unicode hex="0025"/>
  <outline>
    <contour>
      <point x="579" y="750" type="line" name="hr00"/>
      <point x="507" y="750" type="line"/>
      <point x="121" y="0" type="line"/>
      <point x="193" y="0" type="line"/>
    </contour>
    <contour>
      <point x="269" y="702" type="curve" smooth="yes"/>
      <point x="169" y="702"/>
      <point x="107" y="606"/>
      <point x="107" y="488" type="curve" smooth="yes"/>
      <point x="107" y="416"/>
      <point x="125" y="374"/>
      <point x="203" y="374" type="curve" smooth="yes"/>
      <point x="299" y="374"/>
      <point x="351" y="504"/>
      <point x="351" y="589" type="curve" smooth="yes"/>
      <point x="351" y="662"/>
      <point x="327" y="702"/>
    </contour>
    <contour>
      <point x="181" y="519" type="curve" smooth="yes"/>
      <point x="189" y="616"/>
      <point x="238" y="667"/>
      <point x="266" y="667" type="curve" smooth="yes"/>
      <point x="287" y="667"/>
      <point x="291" y="639"/>
      <point x="291" y="604" type="curve" smooth="yes"/>
      <point x="291" y="503"/>
      <point x="259" y="411"/>
      <point x="206" y="411" type="curve" smooth="yes"/>
      <point x="184" y="411"/>
      <point x="179" y="444"/>
      <point x="179" y="476" type="curve" smooth="yes"/>
      <point x="179" y="492"/>
      <point x="180" y="507"/>
    </contour>
    <contour>
      <point x="517" y="328" type="curve" smooth="yes"/>
      <point x="417" y="328"/>
      <point x="355" y="232"/>
      <point x="355" y="114" type="curve" smooth="yes"/>
      <point x="355" y="42"/>
      <point x="373" y="0"/>
      <point x="451" y="0" type="curve" smooth="yes"/>
      <point x="567" y="0"/>
      <point x="609" y="130"/>
      <point x="609" y="215" type="curve" smooth="yes"/>
      <point x="609" y="288"/>
      <point x="575" y="328"/>
    </contour>
    <contour>
      <point x="424" y="145" type="curve" smooth="yes"/>
      <point x="432" y="242"/>
      <point x="475" y="291"/>
      <point x="503" y="291" type="curve" smooth="yes"/>
      <point x="524" y="291"/>
      <point x="531" y="258"/>
      <point x="531" y="223" type="curve" smooth="yes"/>
      <point x="531" y="122"/>
      <point x="502" y="37"/>
      <point x="449" y="37" type="curve" smooth="yes"/>
      <point x="427" y="37"/>
      <point x="422" y="70"/>
      <point x="422" y="102" type="curve" smooth="yes"/>
      <point x="422" y="118"/>
      <point x="423" y="133"/>
    </contour>
  </outline>
</glyph>
<glyph name="ampersand" format="1">
  <advance width="682"/>
  <unicode hex="0026"/>
  <outline>
    <contour>
      <point x="676" y="413" type="line"/>
      <point x="659" y="383"/>
      <point x="618" y="370"/>
      <point x="581" y="370" type="curve" smooth="yes"/>
      <point x="556" y="370"/>
      <point x="533" y="375"/>
      <point x="505" y="375" type="curve" smooth="yes"/>
      <point x="402" y="375"/>
      <point x="332" y="316"/>
      <point x="312" y="234" type="curve"/>
      <point x="319" y="233" type="line"/>
      <point x="338" y="263"/>
      <point x="370" y="278"/>
      <point x="413" y="278" type="curve" smooth="yes"/>
      <point x="436" y="278"/>
      <point x="459" y="274"/>
      <point x="484" y="272" type="curve"/>
      <point x="453" y="126"/>
      <point x="372" y="84"/>
      <point x="303" y="84" type="curve" smooth="yes"/>
      <point x="239" y="84"/>
      <point x="186" y="144"/>
      <point x="186" y="217" type="curve" smooth="yes"/>
      <point x="186" y="286"/>
      <point x="233" y="366"/>
      <point x="360" y="418" type="curve"/>
      <point x="266" y="460"/>
      <point x="228" y="525"/>
      <point x="228" y="583" type="curve" smooth="yes" name="hr01"/>
      <point x="228" y="650"/>
      <point x="277" y="706"/>
      <point x="350" y="706" type="curve" smooth="yes"/>
      <point x="414" y="706"/>
      <point x="416" y="648"/>
      <point x="416" y="632" type="curve" smooth="yes"/>
      <point x="416" y="607"/>
      <point x="397" y="557"/>
      <point x="372" y="550" type="curve"/>
      <point x="391" y="528"/>
      <point x="413" y="524"/>
      <point x="429" y="524" type="curve" smooth="yes" name="hr02"/>
      <point x="480" y="524"/>
      <point x="499" y="563"/>
      <point x="499" y="616" type="curve" smooth="yes"/>
      <point x="499" y="713"/>
      <point x="408" y="750"/>
      <point x="315" y="750" type="curve" smooth="yes"/>
      <point x="173" y="750"/>
      <point x="93" y="660"/>
      <point x="93" y="569" type="curve" smooth="yes"/>
      <point x="93" y="512"/>
      <point x="124" y="454"/>
      <point x="192" y="417" type="curve"/>
      <point x="71" y="392"/>
      <point x="11" y="292"/>
      <point x="11" y="196" type="curve" smooth="yes" name="hr03"/>
      <point x="11" y="93"/>
      <point x="80" y="-6"/>
      <point x="218" y="-6" type="curve" smooth="yes"/>
      <point x="316" y="-6"/>
      <point x="454" y="0"/>
      <point x="530" y="274" type="curve"/>
      <point x="613" y="288"/>
      <point x="682" y="357"/>
      <point x="682" y="413" type="curve"/>
    </contour>
  </outline>
</glyph>
<glyph name="hyphen" format="1">
  <advance width="290"/>
  <unicode hex="002D"/>
  <outline>
    <contour>
      <point x="237" y="301" type="line" name="hr00"/>
      <point x="37" y="301" type="line"/>
      <point x="19" y="222" type="line"/>
      <point x="220" y="222" type="line"/>
    </contour>
  </outline>
</glyph>
<glyph name="period" format="1">
  <advance width="263"/>
  <unicode hex="002E"/>
  <outline>
    <contour>
      <point x="31" y="75" type="curve" smooth="yes" name="hr00"/>
      <point x="31" y="31"/>
      <point x="66" y="-4"/>
      <point x="110" y="-4" type="curve" smooth="yes"/>
      <point x="154" y="-4"/>
      <point x="190" y="31"/>
      <point x="190" y="75" type="curve" smooth="yes"/>
      <point x="190" y="119"/>
      <point x="154" y="155"/>
      <point x="110" y="155" type="curve" smooth="yes"/>
      <point x="66" y="155"/>
      <point x="31" y="119"/>
    </contour>
  </outline>
</glyph>
<glyph name="one" format="1">
  <advance width="317"/>
  <unicode hex="0031"/>
  <outline>
    <contour>
      <point x="324" y="748" type="line" name="hr00"/>
      <point x="203" y="676"/>
      <point x="125" y="670"/>
      <point x="70" y="670" type="curve"/>
      <point x="58" y="624" type="line"/>
      <point x="153" y="624" type="line"/>
      <point x="21" y="0" type="line"/>
      <point x="165" y="0" type="line"/>
    </contour>
  </outline>
</glyph>
<glyph name="seven" format="1">
  <advance width="464"/>
  <unicode hex="0037"/>
  <outline>
    <contour>
      <point x="512" y="750" type="curve" name="hr00"/>
      <point x="184" y="750" type="line" smooth="yes"/>
      <point x="86" y="750"/>
      <point x="48" y="715"/>
      <point x="48" y="650" type="curve" smooth="yes"/>
      <point x="48" y="633"/>
      <point x="51" y="613"/>
      <point x="56" y="592" type="curve"/>
      <point x="101" y="642"/>
      <point x="176" y="663"/>
      <point x="263" y="663" type="curve" smooth="yes"/>
      <point x="290" y="663"/>
      <point x="319" y="661"/>
      <point x="348" y="657" type="curve"/>
      <point x="180" y="463"/>
      <point x="33" y="288"/>
      <point x="33" y="125" type="curve" smooth="yes"/>
      <point x="33" y="23"/>
      <point x="76" y="0"/>
      <point x="136" y="0" type="curve" smooth="yes"/>
      <point x="178" y="0"/>
      <point x="216" y="7"/>
      <point x="228" y="39" type="curve"/>
      <point x="192" y="69"/>
      <point x="179" y="96"/>
      <point x="179" y="136" type="curve" smooth="yes"/>
      <point x="179" y="172"/>
      <point x="189" y="215"/>
      <point x="211" y="265" type="curve" smooth="yes"/>
      <point x="239" y="330"/>
      <point x="460" y="673"/>
    </contour>
  </outline>
</glyph>
<glyph name="eight" format="1">
  <advance width="499"/>
  <unicode hex="0038"/>
  <outline>
    <contour>
      <point x="208" y="67" type="curve" smooth="yes"/>
      <point x="161" y="67"/>
      <point x="137" y="108"/>
      <point x="137" y="163" type="curve" smooth="yes"/>
      <point x="137" y="234"/>
      <point x="177" y="328"/>
      <point x="260" y="383" type="curve"/>
      <point x="304" y="345"/>
      <point x="323" y="289"/>
      <point x="323" y="235" type="curve" smooth="yes"/>
      <point x="323" y="149"/>
      <point x="276" y="67"/>
    </contour>
    <contour>
      <point x="203" y="-5" type="curve" smooth="yes"/>
      <point x="364" y="-5"/>
      <point x="480" y="139"/>
      <point x="480" y="261" type="curve" smooth="yes"/>
      <point x="480" y="329"/>
      <point x="444" y="391"/>
      <point x="359" y="417" type="curve"/>
      <point x="452" y="462"/>
      <point x="499" y="537"/>
      <point x="499" y="604" type="curve" smooth="yes" name="hr01"/>
      <point x="499" y="682"/>
      <point x="436" y="749"/>
      <point x="310" y="749" type="curve" smooth="yes"/>
      <point x="178" y="749"/>
      <point x="87" y="649"/>
      <point x="87" y="553" type="curve" smooth="yes"/>
      <point x="87" y="501"/>
      <point x="113" y="451"/>
      <point x="172" y="417" type="curve"/>
      <point x="50" y="383"/>
      <point x="-8" y="287"/>
      <point x="-8" y="196" type="curve" smooth="yes" name="hr02"/>
      <point x="-8" y="93"/>
      <point x="66" y="-5"/>
    </contour>
    <contour>
      <point x="271" y="451" type="curve"/>
      <point x="235" y="481"/>
      <point x="218" y="526"/>
      <point x="218" y="570" type="curve" smooth="yes" name="hr03"/>
      <point x="218" y="637"/>
      <point x="257" y="701"/>
      <point x="323" y="701" type="curve" smooth="yes"/>
      <point x="355" y="701"/>
      <point x="372" y="671"/>
      <point x="372" y="631" type="curve" smooth="yes" name="hr04"/>
      <point x="372" y="574"/>
      <point x="338" y="495"/>
    </contour>
  </outline>
</glyph>
<glyph name="less" format="1">
  <advance width="359"/>
  <unicode hex="003C"/>
  <outline>
    <contour>
      <point x="336" y="429" type="line" name="hr00"/>
      <point x="29" y="279" type="line"/>
      <point x="20" y="238" type="line"/>
      <point x="267" y="101" type="line"/>
      <point x="279" y="158" type="line"/>
      <point x="85" y="254" type="line"/>
      <point x="326" y="374" type="line"/>
    </contour>
  </outline>
</glyph>
<glyph name="question" format="1">
  <advance width="441"/>
  <unicode hex="003F"/>
  <outline>
    <contour>
      <point x="425" y="579" type="curve" smooth="yes"/>
      <point x="425" y="646"/>
      <point x="402" y="700"/>
      <point x="265" y="700" type="curve" smooth="yes"/>
      <point x="114" y="700"/>
      <point x="55" y="607"/>
      <point x="55" y="539" type="curve" smooth="yes"/>
      <point x="55" y="483"/>
      <point x="92" y="455"/>
      <point x="131" y="455" type="curve" smooth="yes"/>
      <point x="159" y="455"/>
      <point x="187" y="469"/>
      <point x="204" y="497" type="curve"/>
      <point x="176" y="505"/>
      <point x="166" y="540"/>
      <point x="166" y="563" type="curve" smooth="yes"/>
      <point x="166" y="613"/>
      <point x="208" y="646"/>
      <point x="246" y="646" type="curve" smooth="yes" name="hr01"/>
      <point x="275" y="646"/>
      <point x="301" y="626"/>
      <point x="301" y="577" type="curve" smooth="yes"/>
      <point x="301" y="425"/>
      <point x="119" y="373"/>
      <point x="119" y="232" type="curve"/>
      <point x="185" y="232" type="line"/>
      <point x="234" y="381"/>
      <point x="425" y="386"/>
    </contour>
    <contour>
      <point x="207" y="80" type="curve" smooth="yes" name="hr02"/>
      <point x="207" y="124"/>
      <point x="172" y="159"/>
      <point x="128" y="159" type="curve" smooth="yes"/>
      <point x="84" y="159"/>
      <point x="48" y="124"/>
      <point x="48" y="80" type="curve" smooth="yes"/>
      <point x="48" y="36"/>
      <point x="84" y="0"/>
      <point x="128" y="0" type="curve" smooth="yes"/>
      <point x="172" y="0"/>
      <point x="207" y="36"/>
    </contour>
  </outline>
</glyph>
<glyph name="I" format="1">
  <advance width="375"/>
  <unicode hex="0049"/>
  <outline>
    <contour>
      <point x="397" y="748" type="line" name="hr00"/>
      <point x="384" y="749"/>
      <point x="371" y="750"/>
      <point x="357" y="750" type="curve" smooth="yes"/>
      <point x="190" y="750"/>
      <point x="6" y="623"/>
      <point x="6" y="490" type="curve" smooth="yes"/>
      <point x="6" y="418"/>
      <point x="44" y="393"/>
      <point x="113" y="393" type="curve"/>
      <point x="112" y="402"/>
      <point x="99" y="410"/>
      <point x="99" y="461" type="curve" smooth="yes"/>
      <point x="99" y="568"/>
      <point x="152" y="643"/>
      <point x="239" y="679" type="curve"/>
      <point x="94" y="0" type="line"/>
      <point x="238" y="0" type="line"/>
    </contour>
  </outline>
</glyph>
<glyph name="J" format="1">
  <advance width="536"/>
  <unicode hex="004A"/>
  <outline>
    <contour>
      <point x="538" y="750" type="line"/>
      <point x="371" y="750"/>
      <point x="187" y="623"/>
      <point x="187" y="490" type="curve" smooth="yes"/>
      <point x="187" y="418"/>
      <point x="225" y="393"/>
      <point x="294" y="393" type="curve"/>
      <point x="293" y="402"/>
      <point x="280" y="410"/>
      <point x="280" y="461" type="curve" smooth="yes"/>
      <point x="280" y="568"/>
      <point x="334" y="644"/>
      <point x="421" y="680" type="curve"/>
      <point x="264" y="-34" type="line" smooth="yes"/>
      <point x="241" y="-137"/>
      <point x="214" y="-157"/>
      <point x="169" y="-157" type="curve" smooth="yes"/>
      <point x="140" y="-157"/>
      <point x="101" y="-139"/>
      <point x="101" y="-87" type="curve" smooth="yes"/>
      <point x="101" y="-50"/>
      <point x="125" y="-13"/>
      <point x="171" y="-13" type="curve" smooth="yes"/>
      <point x="191" y="-13"/>
      <point x="206" y="-18"/>
      <point x="231" y="-39" type="curve"/>
      <point x="235" y="-24"/>
      <point x="237" y="-10"/>
      <point x="237" y="1" type="curve" smooth="yes" name="hr01"/>
      <point x="237" y="65"/>
      <point x="179" y="68"/>
      <point x="139" y="68" type="curve" smooth="yes"/>
      <point x="60" y="68"/>
      <point x="17" y="2"/>
      <point x="17" y="-66" type="curve" smooth="yes"/>
      <point x="17" y="-149"/>
      <point x="70" y="-207"/>
      <point x="165" y="-207" type="curve" smooth="yes"/>
      <point x="329" y="-207"/>
      <point x="396" y="-113"/>
      <point x="428" y="40" type="curve" smooth="yes"/>
      <point x="578" y="750" type="line"/>
    </contour>
  </outline>
</glyph>
<glyph name="M" format="1">
  <advance width="787"/>
  <unicode hex="004D"/>
  <outline>
    <contour>
      <point x="699" y="0" type="line" name="hr00"/>
      <point x="804" y="736" type="line"/>
      <point x="660" y="736" type="line"/>
      <point x="440" y="209" type="line"/>
      <point x="463" y="736" type="line"/>
      <point x="439" y="745"/>
      <point x="413" y="750"/>
      <point x="387" y="750" type="curve" smooth="yes"/>
      <point x="235" y="750"/>
      <point x="69" y="612"/>
      <point x="69" y="484" type="curve" smooth="yes"/>
      <point x="69" y="418"/>
      <point x="111" y="393"/>
      <point x="176" y="393" type="curve"/>
      <point x="175" y="402"/>
      <point x="162" y="409"/>
      <point x="162" y="462" type="curve" smooth="yes"/>
      <point x="162" y="576"/>
      <point x="222" y="654"/>
      <point x="321" y="687" type="curve"/>
      <point x="67" y="0" type="line"/>
      <point x="147" y="0" type="line"/>
      <point x="314" y="451" type="line"/>
      <point x="294" y="0" type="line"/>
      <point x="431" y="0" type="line"/>
      <point x="619" y="449" type="line"/>
      <point x="555" y="0" type="line"/>
    </contour>
  </outline>
</glyph>
<glyph name="bracketleft" format="1">
  <advance width="400"/>
  <unicode hex="005B"/>
  <outline>
    <contour>
      <point x="182" y="-188" type="line" name="hr00"/>
      <point x="61" y="-188" type="line"/>
      <point x="247" y="688" type="line"/>
      <point x="368" y="688" type="line"/>
      <point x="381" y="750" type="line"/>
      <point x="188" y="750" type="line"/>
      <point x="-24" y="-250" type="line"/>
      <point x="169" y="-250" type="line"/>
    </contour>
  </outline>
</glyph>
<glyph name="asciicircum" format="1">
  <advance width="421"/>
  <unicode hex="005E"/>
  <outline>
    <contour>
      <point x="343" y="561" type="line" name="hr00"/>
      <point x="283" y="750" type="line"/>
      <point x="262" y="750" type="line"/>
      <point x="50" y="561" type="line"/>
      <point x="94" y="561" type="line"/>
      <point x="251" y="641" type="line"/>
      <point x="311" y="561" type="line"/>
    </contour>
  </outline>
</glyph>
<glyph name="g" format="1">
  <advance width="507"/>
  <unicode hex="0067"/>
  <outline>
    <contour>
      <point x="336" y="500" type="line"/>
      <point x="325" y="448" type="line"/>
      <point x="325" y="454" type="line" smooth="yes"/>
      <point x="325" y="483"/>
      <point x="301" y="505"/>
      <point x="244" y="505" type="curve" smooth="yes"/>
      <point x="70" y="505"/>
      <point x="-13" y="290"/>
      <point x="-13" y="155" type="curve" smooth="yes"/>
      <point x="-13" y="36"/>
      <point x="52" y="-6"/>
      <point x="120" y="-6" type="curve" smooth="yes"/>
      <point x="172" y="-6"/>
      <point x="211" y="18"/>
      <point x="240" y="49" type="curve"/>
      <point x="228" y="-4" type="line"/>
      <point x="153" y="-27"/>
      <point x="65" y="-69"/>
      <point x="65" y="-153" type="curve" smooth="yes" name="hr01"/>
      <point x="65" y="-218"/>
      <point x="116" y="-250"/>
      <point x="177" y="-250" type="curve" smooth="yes"/>
      <point x="243" y="-250"/>
      <point x="327" y="-223"/>
      <point x="357" y="-80" type="curve" smooth="yes"/>
      <point x="372" y="-8" type="line"/>
      <point x="434" y="9"/>
      <point x="510" y="47"/>
      <point x="549" y="179" type="curve"/>
      <point x="507" y="179" type="line"/>
      <point x="479" y="92"/>
      <point x="442" y="58"/>
      <point x="381" y="36" type="curve"/>
      <point x="480" y="500" type="line"/>
    </contour>
    <contour>
      <point x="275" y="443" type="curve" smooth="yes"/>
      <point x="307" y="443"/>
      <point x="315" y="417"/>
      <point x="316" y="406" type="curve"/>
      <point x="265" y="169" type="line"/>
      <point x="251" y="118"/>
      <point x="212" y="91"/>
      <point x="185" y="91" type="curve" smooth="yes"/>
      <point x="167" y="91"/>
      <point x="135" y="92"/>
      <point x="135" y="169" type="curve" smooth="yes"/>
      <point x="135" y="263"/>
      <point x="190" y="443"/>
    </contour>
    <contour>
      <point x="120" y="-139" type="curve" smooth="yes" name="hr02"/>
      <point x="120" y="-99"/>
      <point x="167" y="-73"/>
      <point x="218" y="-54" type="curve"/>
      <point x="212" y="-83" type="line" smooth="yes"/>
      <point x="199" y="-142"/>
      <point x="175" y="-172"/>
      <point x="154" y="-172" type="curve" smooth="yes"/>
      <point x="132" y="-172"/>
      <point x="120" y="-153"/>
    </contour>
  </outline>
</glyph>
<glyph name="n" format="1">
  <advance width="505"/>
  <unicode hex="006E"/>
  <outline>
    <contour>
      <point x="288" y="362" type="curve" smooth="yes"/>
      <point x="288" y="298"/>
      <point x="243" y="175"/>
      <point x="243" y="107" type="curve" smooth="yes" name="hr01"/>
      <point x="243" y="50"/>
      <point x="274" y="-6"/>
      <point x="361" y="-6" type="curve" smooth="yes"/>
      <point x="414" y="-6"/>
      <point x="491" y="15"/>
      <point x="547" y="179" type="curve"/>
      <point x="505" y="179" type="line"/>
      <point x="483" y="127"/>
      <point x="465" y="91"/>
      <point x="421" y="91" type="curve" smooth="yes"/>
      <point x="391" y="91"/>
      <point x="381" y="108"/>
      <point x="381" y="133" type="curve" smooth="yes"/>
      <point x="381" y="189"/>
      <point x="429" y="310"/>
      <point x="429" y="391" type="curve" smooth="yes" name="hr02"/>
      <point x="429" y="471"/>
      <point x="382" y="504"/>
      <point x="318" y="504" type="curve" smooth="yes"/>
      <point x="287" y="504"/>
      <point x="243" y="496"/>
      <point x="201" y="448" type="curve"/>
      <point x="212" y="500" type="line"/>
      <point x="68" y="500" type="line"/>
      <point x="-38" y="0" type="line"/>
      <point x="106" y="0" type="line"/>
      <point x="174" y="321" type="line"/>
      <point x="189" y="371"/>
      <point x="216" y="413"/>
      <point x="252" y="413" type="curve" smooth="yes"/>
      <point x="276" y="413"/>
      <point x="288" y="395"/>
    </contour>
  </outline>
</glyph>
<glyph name="o" format="1">
  <advance width="439"/>
  <unicode hex="006F"/>
  <outline>
    <contour>
      <point x="260" y="509" type="curve" smooth="yes"/>
      <point x="54" y="509"/>
      <point x="-14" y="269"/>
      <point x="-14" y="154" type="curve" smooth="yes"/>
      <point x="-14" y="40"/>
      <point x="53" y="-4"/>
      <point x="146" y="-4" type="curve" smooth="yes"/>
      <point x="269" y="-4"/>
      <point x="369" y="112"/>
      <point x="385" y="297" type="curve"/>
      <point x="458" y="309"/>
      <point x="524" y="339"/>
      <point x="562" y="380" type="curve"/>
      <point x="553" y="407" type="line"/>
      <point x="510" y="377"/>
      <point x="445" y="347"/>
      <point x="399" y="347" type="curve" smooth="yes"/>
      <point x="396" y="347"/>
      <point x="392" y="347"/>
      <point x="388" y="349" type="curve"/>
      <point x="388" y="454"/>
      <point x="346" y="509"/>
    </contour>
    <contour>
      <point x="186" y="86" type="curve" smooth="yes"/>
      <point x="148" y="86"/>
      <point x="135" y="101"/>
      <point x="135" y="167" type="curve" smooth="yes"/>
      <point x="135" y="265"/>
      <point x="197" y="448"/>
      <point x="268" y="448" type="curve" smooth="yes"/>
      <point x="294" y="448"/>
      <point x="304" y="432"/>
      <point x="306" y="390" type="curve"/>
      <point x="288" y="382"/>
      <point x="275" y="364"/>
      <point x="275" y="336" type="curve" smooth="yes" name="hr01"/>
      <point x="275" y="316"/>
      <point x="281" y="299"/>
      <point x="302" y="294" type="curve"/>
      <point x="286" y="176"/>
      <point x="235" y="86"/>
    </contour>
  </outline>
</glyph>
<glyph name="q" format="1">
  <advance width="486"/>
  <unicode hex="0071"/>
  <outline>
    <contour>
      <point x="335" y="500" type="line" name="hr00"/>
      <point x="325" y="452" type="line"/>
      <point x="325" y="483"/>
      <point x="301" y="505"/>
      <point x="244" y="505" type="curve" smooth="yes"/>
      <point x="70" y="505"/>
      <point x="-13" y="290"/>
      <point x="-13" y="155" type="curve" smooth="yes"/>
      <point x="-13" y="36"/>
      <point x="52" y="-6"/>
      <point x="120" y="-6" type="curve" smooth="yes"/>
      <point x="171" y="-6"/>
      <point x="210" y="18"/>
      <point x="239" y="49" type="curve"/>
      <point x="176" y="-250" type="line"/>
      <point x="327" y="-214" type="line"/>
      <point x="479" y="500" type="line"/>
    </contour>
    <contour>
      <point x="275" y="443" type="curve" smooth="yes"/>
      <point x="304" y="443"/>
      <point x="314" y="421"/>
      <point x="316" y="409" type="curve"/>
      <point x="263" y="162" type="line"/>
      <point x="247" y="115"/>
      <point x="211" y="91"/>
      <point x="185" y="91" type="curve" smooth="yes"/>
      <point x="167" y="91"/>
      <point x="135" y="92"/>
      <point x="135" y="169" type="curve" smooth="yes"/>
      <point x="135" y="263"/>
      <point x="190" y="443"/>
    </contour>
  </outline>
</glyph>
<glyph name="braceleft" format="1">
  <advance width="352"/>
  <unicode hex="007B"/>
  <outline>
    <contour>
      <point x="383" y="750" type="line"/>
      <point x="340" y="750" type="line" smooth="yes"/>
      <point x="221" y="750"/>
      <point x="180" y="625"/>
      <point x="180" y="549" type="curve" smooth="yes"/>
      <point x="180" y="498"/>
      <point x="187" y="445"/>
      <point x="187" y="390" type="curve" smooth="yes"/>
      <point x="187" y="343"/>
      <point x="184" y="279"/>
      <point x="120" y="279" type="curve" smooth="yes"/>
      <point x="111" y="279"/>
      <point x="101" y="280"/>
      <point x="89" y="282" type="curve"/>
      <point x="77" y="225" type="line"/>
      <point x="90" y="227"/>
      <point x="100" y="228"/>
      <point x="109" y="228" type="curve" smooth="yes"/>
      <point x="141" y="228"/>
      <point x="150" y="215"/>
      <point x="150" y="197" type="curve" smooth="yes"/>
      <point x="150" y="191"/>
      <point x="149" y="183"/>
      <point x="147" y="175" type="curve" smooth="yes"/>
      <point x="121" y="61"/>
      <point x="30" y="-46"/>
      <point x="30" y="-140" type="curve" smooth="yes"/>
      <point x="30" y="-163"/>
      <point x="35" y="-186"/>
      <point x="49" y="-207" type="curve" smooth="yes"/>
      <point x="75" y="-248"/>
      <point x="103" y="-249"/>
      <point x="163" y="-249" type="curve" smooth="yes"/>
      <point x="172" y="-249" type="line"/>
      <point x="181" y="-204" type="line"/>
      <point x="119" y="-204"/>
      <point x="96" y="-172"/>
      <point x="96" y="-124" type="curve" smooth="yes"/>
      <point x="96" y="-24"/>
      <point x="215" y="129"/>
      <point x="215" y="218" type="curve" smooth="yes" name="hr01"/>
      <point x="215" y="234"/>
      <point x="210" y="246"/>
      <point x="203" y="254" type="curve"/>
      <point x="227" y="274"/>
      <point x="241" y="307"/>
      <point x="243" y="365" type="curve"/>
      <point x="237" y="536" type="line"/>
      <point x="238" y="590"/>
      <point x="247" y="634"/>
      <point x="283" y="674" type="curve" smooth="yes"/>
      <point x="305" y="698"/>
      <point x="333" y="700"/>
      <point x="374" y="700" type="curve"/>
    </contour>
  </outline>
</glyph>
<glyph name="braceright" format="1">
  <advance width="352"/>
  <unicode hex="007D"/>
  <outline>
    <contour>
      <point x="30" y="-249" type="line"/>
      <point x="73" y="-249" type="line" smooth="yes"/>
      <point x="192" y="-249"/>
      <point x="233" y="-124"/>
      <point x="233" y="-48" type="curve" smooth="yes"/>
      <point x="233" y="3"/>
      <point x="226" y="56"/>
      <point x="226" y="111" type="curve" smooth="yes"/>
      <point x="226" y="158"/>
      <point x="229" y="222"/>
      <point x="293" y="222" type="curve" smooth="yes"/>
      <point x="302" y="222"/>
      <point x="312" y="221"/>
      <point x="324" y="219" type="curve"/>
      <point x="336" y="276" type="line"/>
      <point x="323" y="274"/>
      <point x="313" y="273"/>
      <point x="304" y="273" type="curve" smooth="yes"/>
      <point x="272" y="273"/>
      <point x="263" y="286"/>
      <point x="263" y="304" type="curve" smooth="yes"/>
      <point x="263" y="310"/>
      <point x="264" y="318"/>
      <point x="266" y="326" type="curve" smooth="yes"/>
      <point x="292" y="440"/>
      <point x="383" y="547"/>
      <point x="383" y="641" type="curve" smooth="yes" name="hr01"/>
      <point x="383" y="664"/>
      <point x="378" y="687"/>
      <point x="364" y="708" type="curve" smooth="yes"/>
      <point x="338" y="749"/>
      <point x="310" y="750"/>
      <point x="250" y="750" type="curve" smooth="yes"/>
      <point x="241" y="750" type="line"/>
      <point x="232" y="705" type="line"/>
      <point x="294" y="705"/>
      <point x="317" y="673"/>
      <point x="317" y="625" type="curve" smooth="yes"/>
      <point x="317" y="525"/>
      <point x="198" y="372"/>
      <point x="198" y="283" type="curve" smooth="yes" name="hr02"/>
      <point x="198" y="267"/>
      <point x="203" y="255"/>
      <point x="210" y="247" type="curve"/>
      <point x="186" y="227"/>
      <point x="172" y="194"/>
      <point x="170" y="136" type="curve"/>
      <point x="176" y="-35" type="line"/>
      <point x="175" y="-89"/>
      <point x="166" y="-133"/>
      <point x="130" y="-173" type="curve" smooth="yes"/>
      <point x="108" y="-197"/>
      <point x="80" y="-199"/>
      <point x="39" y="-199" type="curve"/>
    </contour>
  </outline>
</glyph>
<glyph name="section" format="1">
  <advance width="542"/>
  <unicode hex="00A7"/>
  <outline>
    <contour>
      <point x="525" y="655" type="curve" smooth="yes"/>
      <point x="525" y="743"/>
      <point x="432" y="750"/>
      <point x="395" y="750" type="curve" smooth="yes"/>
      <point x="294" y="750"/>
      <point x="183" y="696"/>
      <point x="183" y="577" type="curve" smooth="yes"/>
      <point x="183" y="562"/>
      <point x="185" y="548"/>
      <point x="188" y="535" type="curve"/>
      <point x="128" y="512"/>
      <point x="84" y="462"/>
      <point x="84" y="398" type="curve" smooth="yes" name="hr01"/>
      <point x="84" y="269"/>
      <point x="264" y="256"/>
      <point x="264" y="93" type="curve" smooth="yes"/>
      <point x="264" y="25"/>
      <point x="233" y="-4"/>
      <point x="184" y="-4" type="curve" smooth="yes"/>
      <point x="125" y="-4"/>
      <point x="102" y="22"/>
      <point x="102" y="74" type="curve" smooth="yes" name="hr02"/>
      <point x="102" y="124"/>
      <point x="124" y="145"/>
      <point x="183" y="150" type="curve"/>
      <point x="166" y="172"/>
      <point x="144" y="200"/>
      <point x="104" y="200" type="curve" smooth="yes"/>
      <point x="50" y="200"/>
      <point x="8" y="150"/>
      <point x="8" y="77" type="curve" smooth="yes"/>
      <point x="8" y="-40"/>
      <point x="114" y="-54"/>
      <point x="173" y="-54" type="curve" smooth="yes"/>
      <point x="309" y="-54"/>
      <point x="390" y="18"/>
      <point x="390" y="136" type="curve" name="hr03"/>
      <point x="464" y="151"/>
      <point x="506" y="227"/>
      <point x="506" y="303" type="curve" smooth="yes"/>
      <point x="506" y="468"/>
      <point x="308" y="482"/>
      <point x="308" y="606" type="curve" smooth="yes" name="hr04"/>
      <point x="308" y="662"/>
      <point x="348" y="713"/>
      <point x="402" y="713" type="curve" smooth="yes"/>
      <point x="441" y="713"/>
      <point x="458" y="687"/>
      <point x="458" y="659" type="curve" smooth="yes"/>
      <point x="458" y="633"/>
      <point x="444" y="603"/>
      <point x="422" y="590" type="curve"/>
      <point x="434" y="577"/>
      <point x="447" y="574"/>
      <point x="459" y="574" type="curve" smooth="yes" name="hr05"/>
      <point x="500" y="574"/>
      <point x="525" y="609"/>
    </contour>
    <contour>
      <point x="403" y="246" type="curve" smooth="yes" name="hr06"/>
      <point x="403" y="221"/>
      <point x="396" y="198"/>
      <point x="384" y="183" type="curve"/>
      <point x="352" y="322"/>
      <point x="190" y="368"/>
      <point x="190" y="451" type="curve" smooth="yes"/>
      <point x="190" y="470"/>
      <point x="198" y="480"/>
      <point x="209" y="486" type="curve"/>
      <point x="268" y="396"/>
      <point x="403" y="362"/>
    </contour>
  </outline>
</glyph>
<glyph name="copyright" format="1">
  <advance width="587"/>
  <unicode hex="00A9"/>
  <outline>
    <contour>
      <point x="300" y="484" type="curve" name="hr00"/>
      <point x="219" y="484"/>
      <point x="152" y="421"/>
      <point x="152" y="336" type="curve" smooth="yes"/>
      <point x="152" y="253"/>
      <point x="217" y="182"/>
      <point x="298" y="182" type="curve" smooth="yes"/>
      <point x="347" y="182"/>
      <point x="393" y="208"/>
      <point x="421" y="250" type="curve"/>
      <point x="377" y="279" type="line"/>
      <point x="362" y="251"/>
      <point x="333" y="234"/>
      <point x="302" y="234" type="curve" smooth="yes"/>
      <point x="249" y="234"/>
      <point x="207" y="281"/>
      <point x="207" y="341" type="curve" smooth="yes"/>
      <point x="207" y="403"/>
      <point x="252" y="432"/>
      <point x="302" y="432" type="curve" smooth="yes"/>
      <point x="359" y="432"/>
      <point x="370" y="395"/>
      <point x="377" y="371" type="curve"/>
      <point x="424" y="389" type="line"/>
      <point x="411" y="442"/>
      <point x="362" y="481"/>
    </contour>
    <contour>
      <point x="293" y="76" type="curve" smooth="yes"/>
      <point x="425" y="76"/>
      <point x="535" y="189"/>
      <point x="535" y="332" type="curve" smooth="yes"/>
      <point x="535" y="475"/>
      <point x="425" y="587"/>
      <point x="293" y="587" type="curve" smooth="yes"/>
      <point x="161" y="587"/>
      <point x="51" y="474"/>
      <point x="51" y="331" type="curve" smooth="yes"/>
      <point x="51" y="189"/>
      <point x="161" y="76"/>
    </contour>
    <contour>
      <point x="97" y="331" type="curve" smooth="yes"/>
      <point x="97" y="451"/>
      <point x="187" y="544"/>
      <point x="295" y="544" type="curve" smooth="yes"/>
      <point x="402" y="544"/>
      <point x="492" y="451"/>
      <point x="492" y="331" type="curve" smooth="yes"/>
      <point x="492" y="211"/>
      <point x="402" y="118"/>
      <point x="295" y="118" type="curve" smooth="yes"/>
      <point x="187" y="118"/>
      <point x="97" y="211"/>
    </contour>
  </outline>
</glyph>
<glyph name="ordfeminine" format="1">
  <advance width="345"/>
  <unicode hex="00AA"/>
  <outline>
    <contour>
      <point x="320" y="740" type="line"/>
      <point x="237" y="740" type="line"/>
      <point x="234" y="725" type="line"/>
      <point x="223" y="733"/>
      <point x="208" y="739"/>
      <point x="195" y="739" type="curve" smooth="yes" name="hr01"/>
      <point x="79" y="739"/>
      <point x="43" y="628"/>
      <point x="43" y="535" type="curve" smooth="yes"/>
      <point x="43" y="503"/>
      <point x="59" y="467"/>
      <point x="114" y="467" type="curve" smooth="yes"/>
      <point x="149" y="467"/>
      <point x="175" y="488"/>
      <point x="193" y="510" type="curve"/>
      <point x="199" y="486"/>
      <point x="217" y="470"/>
      <point x="251" y="470" type="curve" smooth="yes"/>
      <point x="271" y="470"/>
      <point x="295" y="473"/>
      <point x="311" y="520" type="curve"/>
      <point x="306" y="518"/>
      <point x="300" y="518"/>
      <point x="296" y="518" type="curve" smooth="yes"/>
      <point x="280" y="518"/>
      <point x="275" y="527"/>
      <point x="275" y="538" type="curve" smooth="yes" name="hr02"/>
      <point x="275" y="544"/>
      <point x="277" y="550"/>
      <point x="278" y="556" type="curve" smooth="yes"/>
    </contour>
    <contour>
      <point x="191" y="538" type="line"/>
      <point x="180" y="523"/>
      <point x="168" y="512"/>
      <point x="155" y="512" type="curve" smooth="yes"/>
      <point x="140" y="512"/>
      <point x="121" y="518"/>
      <point x="121" y="550" type="curve" smooth="yes"/>
      <point x="121" y="623"/>
      <point x="156" y="709"/>
      <point x="199" y="709" type="curve" smooth="yes" name="hr03"/>
      <point x="208" y="709"/>
      <point x="219" y="707"/>
      <point x="228" y="699" type="curve"/>
    </contour>
  </outline>
</glyph>
<glyph name="registered" format="1">
  <advance width="553"/>
  <unicode hex="00AE"/>
  <outline>
    <contour>
      <point x="276" y="79" type="curve" smooth="yes" name="hr00"/>
      <point x="408" y="79"/>
      <point x="518" y="192"/>
      <point x="518" y="335" type="curve" smooth="yes"/>
      <point x="518" y="478"/>
      <point x="408" y="590"/>
      <point x="276" y="590" type="curve" smooth="yes"/>
      <point x="144" y="590"/>
      <point x="34" y="477"/>
      <point x="34" y="334" type="curve" smooth="yes"/>
      <point x="34" y="192"/>
      <point x="144" y="79"/>
    </contour>
    <contour>
      <point x="80" y="334" type="curve" smooth="yes"/>
      <point x="80" y="454"/>
      <point x="170" y="547"/>
      <point x="278" y="547" type="curve" smooth="yes"/>
      <point x="385" y="547"/>
      <point x="475" y="454"/>
      <point x="475" y="334" type="curve" smooth="yes"/>
      <point x="475" y="214"/>
      <point x="385" y="121"/>
      <point x="278" y="121" type="curve" smooth="yes"/>
      <point x="170" y="121"/>
      <point x="80" y="214"/>
    </contour>
    <contour>
      <point x="176" y="192" type="line"/>
      <point x="222" y="192" type="line"/>
      <point x="222" y="315" type="line"/>
      <point x="288" y="315" type="line"/>
      <point x="350" y="190" type="line"/>
      <point x="397" y="197" type="line"/>
      <point x="332" y="322" type="line"/>
      <point x="367" y="332"/>
      <point x="391" y="362"/>
      <point x="391" y="399" type="curve" smooth="yes"/>
      <point x="391" y="453"/>
      <point x="341" y="483"/>
      <point x="271" y="483" type="curve" smooth="yes"/>
      <point x="177" y="483" type="line"/>
    </contour>
    <contour>
      <point x="222" y="442" type="line"/>
      <point x="272" y="442" type="line" smooth="yes"/>
      <point x="305" y="442"/>
      <point x="345" y="432"/>
      <point x="345" y="397" type="curve" smooth="yes"/>
      <point x="345" y="360"/>
      <point x="303" y="353"/>
      <point x="274" y="353" type="curve" smooth="yes"/>
      <point x="222" y="353" type="line"/>
    </contour>
  </outline>
</glyph>
<glyph name="degree" format="1">
  <advance width="314"/>
  <unicode hex="00B0"/>
  <outline>
    <contour>
      <point x="199" y="702" type="curve" smooth="yes" name="hr00"/>
      <point x="99" y="702"/>
      <point x="37" y="606"/>
      <point x="37" y="488" type="curve" smooth="yes"/>
      <point x="37" y="416"/>
      <point x="55" y="374"/>
      <point x="133" y="374" type="curve" smooth="yes"/>
      <point x="229" y="374"/>
      <point x="281" y="504"/>
      <point x="281" y="589" type="curve" smooth="yes"/>
      <point x="281" y="662"/>
      <point x="257" y="702"/>
    </contour>
    <contour>
      <point x="111" y="519" type="curve" smooth="yes"/>
      <point x="119" y="616"/>
      <point x="168" y="667"/>
      <point x="196" y="667" type="curve" smooth="yes"/>
      <point x="217" y="667"/>
      <point x="221" y="639"/>
      <point x="221" y="604" type="curve" smooth="yes"/>
      <point x="221" y="503"/>
      <point x="189" y="411"/>
      <point x="136" y="411" type="curve" smooth="yes"/>
      <point x="114" y="411"/>
      <point x="109" y="444"/>
      <point x="109" y="476" type="curve" smooth="yes"/>
      <point x="109" y="492"/>
      <point x="110" y="507"/>
    </contour>
  </outline>
</glyph>
<glyph name="threesuperior" format="1">
  <advance width="316"/>
  <unicode hex="00B3"/>
  <outline>
    <contour>
      <point x="129" y="484" type="curve"/>
      <point x="124" y="503"/>
      <point x="108" y="511"/>
      <point x="82" y="511" type="curve" smooth="yes"/>
      <point x="37" y="511"/>
      <point x="13" y="480"/>
      <point x="13" y="429" type="curve" smooth="yes"/>
      <point x="13" y="351"/>
      <point x="95" y="342"/>
      <point x="142" y="342" type="curve" smooth="yes"/>
      <point x="228" y="342"/>
      <point x="291" y="417"/>
      <point x="291" y="482" type="curve" smooth="yes"/>
      <point x="291" y="521"/>
      <point x="270" y="555"/>
      <point x="219" y="570" type="curve"/>
      <point x="273" y="595"/>
      <point x="298" y="634"/>
      <point x="298" y="670" type="curve" smooth="yes"/>
      <point x="298" y="712"/>
      <point x="263" y="749"/>
      <point x="196" y="749" type="curve" smooth="yes"/>
      <point x="109" y="749"/>
      <point x="71" y="707"/>
      <point x="71" y="670" type="curve" smooth="yes" name="hr01"/>
      <point x="71" y="638"/>
      <point x="89" y="621"/>
      <point x="112" y="621" type="curve" smooth="yes"/>
      <point x="126" y="621"/>
      <point x="142" y="627"/>
      <point x="157" y="640" type="curve"/>
      <point x="141" y="644"/>
      <point x="135" y="664"/>
      <point x="135" y="677" type="curve" smooth="yes"/>
      <point x="135" y="704"/>
      <point x="149" y="720"/>
      <point x="187" y="720" type="curve" smooth="yes" name="hr02"/>
      <point x="211" y="720"/>
      <point x="224" y="702"/>
      <point x="224" y="678" type="curve" smooth="yes"/>
      <point x="224" y="640"/>
      <point x="192" y="587"/>
      <point x="125" y="571" type="curve"/>
      <point x="178" y="554"/>
      <point x="200" y="511"/>
      <point x="200" y="470" type="curve" smooth="yes" name="hr03"/>
      <point x="200" y="422"/>
      <point x="171" y="376"/>
      <point x="129" y="376" type="curve" smooth="yes"/>
      <point x="99" y="376"/>
      <point x="78" y="384"/>
      <point x="78" y="420" type="curve" smooth="yes"/>
      <point x="78" y="447"/>
      <point x="82" y="480"/>
    </contour>
  </outline>
</glyph>
<glyph name="ordmasculine" format="1">
  <advance width="329"/>
  <unicode hex="00BA"/>
  <outline>
    <contour>
      <point x="262" y="671" type="curve"/>
      <point x="262" y="686"/>
      <point x="257" y="690"/>
      <point x="243" y="690" type="curve" smooth="yes"/>
      <point x="224" y="690"/>
      <point x="204" y="668"/>
      <point x="204" y="649" type="curve" smooth="yes"/>
      <point x="204" y="638"/>
      <point x="208" y="630"/>
      <point x="219" y="627" type="curve"/>
      <point x="213" y="578"/>
      <point x="196" y="519"/>
      <point x="160" y="519" type="curve" smooth="yes" name="hr01"/>
      <point x="136" y="519"/>
      <point x="119" y="528"/>
      <point x="119" y="560" type="curve" smooth="yes"/>
      <point x="119" y="603"/>
      <point x="140" y="714"/>
      <point x="197" y="714" type="curve" smooth="yes"/>
      <point x="210" y="714"/>
      <point x="218" y="707"/>
      <point x="223" y="695" type="curve"/>
      <point x="235" y="699"/>
      <point x="249" y="705"/>
      <point x="249" y="721" type="curve" smooth="yes"/>
      <point x="249" y="735"/>
      <point x="222" y="745"/>
      <point x="194" y="745" type="curve" smooth="yes"/>
      <point x="115" y="745"/>
      <point x="42" y="687"/>
      <point x="42" y="555" type="curve" smooth="yes"/>
      <point x="42" y="491"/>
      <point x="71" y="466"/>
      <point x="133" y="466" type="curve" smooth="yes"/>
      <point x="187" y="466"/>
      <point x="256" y="523"/>
      <point x="262" y="635" type="curve" name="hr02"/>
      <point x="285" y="648"/>
      <point x="295" y="673"/>
      <point x="301" y="692" type="curve"/>
      <point x="295" y="703" type="line"/>
      <point x="282" y="689"/>
      <point x="277" y="680"/>
    </contour>
  </outline>
</glyph>
<glyph name="onehalf" format="1">
  <advance width="675"/>
  <unicode hex="00BD"/>
  <outline>
    <contour>
      <point x="470" y="750" type="line"/>
      <point x="398" y="750" type="line"/>
      <point x="134" y="-165" type="line"/>
      <point x="206" y="-165" type="line"/>
    </contour>
    <contour>
      <point x="246" y="629" type="line"/>
      <point x="176" y="590"/>
      <point x="131" y="587"/>
      <point x="99" y="587" type="curve"/>
      <point x="92" y="562" type="line"/>
      <point x="147" y="562" type="line"/>
      <point x="70" y="225" type="line"/>
      <point x="154" y="225" type="line"/>
    </contour>
    <contour>
      <point x="438" y="76" type="curve"/>
      <point x="434" y="76" type="line"/>
      <point x="482" y="149"/>
      <point x="641" y="202"/>
      <point x="641" y="323" type="curve" smooth="yes"/>
      <point x="641" y="375"/>
      <point x="610" y="409"/>
      <point x="531" y="409" type="curve" smooth="yes"/>
      <point x="443" y="409"/>
      <point x="411" y="367"/>
      <point x="411" y="330" type="curve" smooth="yes"/>
      <point x="411" y="298"/>
      <point x="429" y="281"/>
      <point x="452" y="281" type="curve" smooth="yes"/>
      <point x="466" y="281"/>
      <point x="482" y="287"/>
      <point x="497" y="300" type="curve"/>
      <point x="481" y="304"/>
      <point x="475" y="324"/>
      <point x="475" y="337" type="curve" smooth="yes"/>
      <point x="475" y="364"/>
      <point x="483" y="380"/>
      <point x="522" y="380" type="curve" smooth="yes"/>
      <point x="539" y="380"/>
      <point x="557" y="362"/>
      <point x="557" y="336" type="curve" smooth="yes"/>
      <point x="557" y="192"/>
      <point x="366" y="139"/>
      <point x="366" y="21" type="curve" smooth="yes"/>
      <point x="366" y="15"/>
      <point x="367" y="9"/>
      <point x="368" y="3" type="curve"/>
      <point x="379" y="7"/>
      <point x="400" y="19"/>
      <point x="414" y="19" type="curve" smooth="yes"/>
      <point x="473" y="19"/>
      <point x="494" y="-1"/>
      <point x="557" y="-1" type="curve" smooth="yes"/>
      <point x="625" y="-1"/>
      <point x="626" y="35"/>
      <point x="626" y="104" type="curve" name="hr01"/>
      <point x="599" y="80"/>
      <point x="589" y="66"/>
      <point x="551" y="66" type="curve" smooth="yes"/>
      <point x="512" y="66"/>
      <point x="475" y="76"/>
    </contour>
  </outline>
</glyph>
<glyph name="Idieresis" format="1">
  <advance width="375"/>
  <unicode hex="00CF"/>
  <outline>
    <contour>
      <point x="397" y="748" type="line" name="hr00"/>
      <point x="384" y="749"/>
      <point x="371" y="750"/>
      <point x="357" y="750" type="curve" smooth="yes"/>
      <point x="190" y="750"/>
      <point x="6" y="623"/>
      <point x="6" y="490" type="curve" smooth="yes"/>
      <point x="6" y="418"/>
      <point x="44" y="393"/>
      <point x="113" y="393" type="curve"/>
      <point x="112" y="402"/>
      <point x="99" y="410"/>
      <point x="99" y="461" type="curve" smooth="yes"/>
      <point x="99" y="568"/>
      <point x="152" y="643"/>
      <point x="239" y="679" type="curve"/>
      <point x="94" y="0" type="line"/>
      <point x="238" y="0" type="line"/>
    </contour>
    <contour>
      <point x="167" y="884" type="curve" smooth="yes"/>
      <point x="167" y="850"/>
      <point x="194" y="823"/>
      <point x="228" y="823" type="curve" smooth="yes"/>
      <point x="261" y="823"/>
      <point x="289" y="850"/>
      <point x="289" y="884" type="curve" smooth="yes"/>
      <point x="289" y="917"/>
      <point x="261" y="945"/>
      <point x="228" y="945" type="curve" smooth="yes"/>
      <point x="194" y="945"/>
      <point x="167" y="917"/>
    </contour>
    <contour>
      <point x="347" y="884" type="curve" smooth="yes"/>
      <point x="347" y="850"/>
      <point x="374" y="823"/>
      <point x="408" y="823" type="curve" smooth="yes"/>
      <point x="441" y="823"/>
      <point x="469" y="850"/>
      <point x="469" y="884" type="curve" smooth="yes"/>
      <point x="469" y="917"/>
      <point x="441" y="945"/>
      <point x="408" y="945" type="curve" smooth="yes"/>
      <point x="374" y="945"/>
      <point x="347" y="917"/>
    </contour>
  </outline>
</glyph>
<glyph name="Ucircumflex" format="1">
  <advance width="719"/>
  <unicode hex="00DB"/>
  <outline>
    <contour>
      <point x="620" y="748" type="line" name="hr00"/>
      <point x="553" y="439" type="line" smooth="yes"/>
      <point x="482" y="112"/>
      <point x="445" y="91"/>
      <point x="360" y="91" type="curve" smooth="yes"/>
      <point x="310" y="91"/>
      <point x="291" y="124"/>
      <point x="291" y="181" type="curve" smooth="yes"/>
      <point x="291" y="265"/>
      <point x="333" y="400"/>
      <point x="426" y="745" type="curve"/>
      <point x="405" y="749"/>
      <point x="395" y="750"/>
      <point x="378" y="750" type="curve" smooth="yes"/>
      <point x="184" y="750"/>
      <point x="0" y="626"/>
      <point x="0" y="485" type="curve" smooth="yes"/>
      <point x="0" y="418"/>
      <point x="41" y="393"/>
      <point x="107" y="393" type="curve"/>
      <point x="106" y="402"/>
      <point x="93" y="409"/>
      <point x="93" y="462" type="curve" smooth="yes"/>
      <point x="93" y="582"/>
      <point x="161" y="663"/>
      <point x="270" y="692" type="curve"/>
      <point x="237" y="560" type="line" smooth="yes"/>
      <point x="195" y="391"/>
      <point x="155" y="251"/>
      <point x="155" y="152" type="curve" smooth="yes"/>
      <point x="155" y="51"/>
      <point x="204" y="-7"/>
      <point x="348" y="-7" type="curve" smooth="yes"/>
      <point x="573" y="-7"/>
      <point x="631" y="132"/>
      <point x="695" y="436" type="curve" smooth="yes"/>
      <point x="761" y="748" type="line"/>
    </contour>
    <contour>
      <point x="656" y="811" type="line"/>
      <point x="596" y="1000" type="line"/>
      <point x="575" y="1000" type="line"/>
      <point x="363" y="811" type="line"/>
      <point x="407" y="811" type="line"/>
      <point x="564" y="891" type="line"/>
      <point x="624" y="811" type="line"/>
    </contour>
  </outline>
</glyph>
<glyph name="atilde" format="1">
  <advance width="526"/>
  <unicode hex="00E3"/>
  <outline>
    <contour>
      <point x="336" y="500" type="line"/>
      <point x="325" y="447" type="line"/>
      <point x="325" y="454" type="line" smooth="yes"/>
      <point x="325" y="483"/>
      <point x="301" y="505"/>
      <point x="244" y="505" type="curve" smooth="yes"/>
      <point x="70" y="505"/>
      <point x="-13" y="290"/>
      <point x="-13" y="155" type="curve" smooth="yes"/>
      <point x="-13" y="36"/>
      <point x="52" y="-6"/>
      <point x="120" y="-6" type="curve" smooth="yes"/>
      <point x="191" y="-6"/>
      <point x="238" y="40"/>
      <point x="269" y="86" type="curve"/>
      <point x="275" y="26"/>
      <point x="311" y="-6"/>
      <point x="367" y="-6" type="curve" smooth="yes"/>
      <point x="421" y="-6"/>
      <point x="511" y="16"/>
      <point x="568" y="179" type="curve"/>
      <point x="526" y="179" type="line"/>
      <point x="511" y="129"/>
      <point x="484" y="85"/>
      <point x="445" y="85" type="curve" smooth="yes"/>
      <point x="417" y="85"/>
      <point x="404" y="100"/>
      <point x="404" y="128" type="curve" smooth="yes"/>
      <point x="404" y="137"/>
      <point x="405" y="147"/>
      <point x="408" y="160" type="curve" smooth="yes"/>
      <point x="480" y="500" type="line"/>
    </contour>
    <contour>
      <point x="275" y="443" type="curve" smooth="yes"/>
      <point x="307" y="443"/>
      <point x="316" y="417"/>
      <point x="316" y="405" type="curve"/>
      <point x="268" y="179" type="line" smooth="yes"/>
      <point x="256" y="121"/>
      <point x="214" y="91"/>
      <point x="185" y="91" type="curve" smooth="yes"/>
      <point x="167" y="91"/>
      <point x="135" y="92"/>
      <point x="135" y="169" type="curve" smooth="yes"/>
      <point x="135" y="263"/>
      <point x="190" y="443"/>
    </contour>
    <contour>
      <point x="497" y="670" type="line"/>
      <point x="483" y="655"/>
      <point x="459" y="647"/>
      <point x="434" y="647" type="curve" smooth="yes"/>
      <point x="376" y="647"/>
      <point x="342" y="680"/>
      <point x="269" y="680" type="curve" smooth="yes" name="hr01"/>
      <point x="193" y="680"/>
      <point x="134" y="646"/>
      <point x="102" y="582" type="curve"/>
      <point x="108" y="580" type="line"/>
      <point x="126" y="597"/>
      <point x="148" y="606"/>
      <point x="174" y="606" type="curve" smooth="yes"/>
      <point x="229" y="606"/>
      <point x="276" y="569"/>
      <point x="342" y="569" type="curve" smooth="yes" name="hr02"/>
      <point x="418" y="569"/>
      <point x="492" y="622"/>
      <point x="503" y="669" type="curve"/>
    </contour>
  </outline>
</glyph>
<glyph name="otilde" format="1">
  <advance width="433"/>
  <unicode hex="00F5"/>
  <outline>
    <contour>
      <point x="254" y="509" type="curve" smooth="yes"/>
      <point x="48" y="509"/>
      <point x="-20" y="269"/>
      <point x="-20" y="154" type="curve" smooth="yes"/>
      <point x="-20" y="40"/>
      <point x="47" y="-4"/>
      <point x="140" y="-4" type="curve" smooth="yes"/>
      <point x="263" y="-4"/>
      <point x="363" y="112"/>
      <point x="379" y="297" type="curve"/>
      <point x="452" y="309"/>
      <point x="518" y="339"/>
      <point x="556" y="380" type="curve"/>
      <point x="547" y="407" type="line"/>
      <point x="504" y="377"/>
      <point x="439" y="347"/>
      <point x="393" y="347" type="curve" smooth="yes"/>
      <point x="390" y="347"/>
      <point x="386" y="347"/>
      <point x="382" y="349" type="curve"/>
      <point x="382" y="454"/>
      <point x="340" y="509"/>
    </contour>
    <contour>
      <point x="180" y="86" type="curve" smooth="yes"/>
      <point x="142" y="86"/>
      <point x="129" y="101"/>
      <point x="129" y="167" type="curve" smooth="yes"/>
      <point x="129" y="265"/>
      <point x="191" y="448"/>
      <point x="262" y="448" type="curve" smooth="yes"/>
      <point x="288" y="448"/>
      <point x="298" y="432"/>
      <point x="300" y="390" type="curve"/>
      <point x="282" y="382"/>
      <point x="269" y="364"/>
      <point x="269" y="336" type="curve" smooth="yes" name="hr01"/>
      <point x="269" y="316"/>
      <point x="275" y="299"/>
      <point x="296" y="294" type="curve"/>
      <point x="280" y="176"/>
      <point x="229" y="86"/>
    </contour>
    <contour>
      <point x="435" y="670" type="line"/>
      <point x="421" y="655"/>
      <point x="397" y="647"/>
      <point x="372" y="647" type="curve" smooth="yes"/>
      <point x="314" y="647"/>
      <point x="280" y="680"/>
      <point x="207" y="680" type="curve" smooth="yes" name="hr02"/>
      <point x="131" y="680"/>
      <point x="72" y="646"/>
      <point x="40" y="582" type="curve"/>
      <point x="46" y="580" type="line"/>
      <point x="64" y="597"/>
      <point x="86" y="606"/>
      <point x="112" y="606" type="curve" smooth="yes"/>
      <point x="167" y="606"/>
      <point x="214" y="569"/>
      <point x="280" y="569" type="curve" smooth="yes" name="hr03"/>
      <point x="356" y="569"/>
      <point x="430" y="622"/>
      <point x="441" y="669" type="curve"/>
    </contour>
  </outline>
</glyph>
<glyph name="ccaron" format="1">
  <advance width="384"/>
  <unicode hex="010D"/>
  <outline>
    <contour>
      <point x="279" y="356" type="curve"/>
      <point x="291" y="348"/>
      <point x="303" y="344"/>
      <point x="314" y="344" type="curve" smooth="yes"/>
      <point x="343" y="344"/>
      <point x="367" y="368"/>
      <point x="367" y="417" type="curve" smooth="yes"/>
      <point x="367" y="463"/>
      <point x="345" y="509"/>
      <point x="256" y="509" type="curve" smooth="yes"/>
      <point x="53" y="509"/>
      <point x="-13" y="269"/>
      <point x="-13" y="153" type="curve" smooth="yes"/>
      <point x="-13" y="40"/>
      <point x="49" y="-6"/>
      <point x="143" y="-6" type="curve" smooth="yes"/>
      <point x="276" y="-6"/>
      <point x="361" y="87"/>
      <point x="418" y="179" type="curve"/>
      <point x="384" y="179" type="line"/>
      <point x="334" y="122"/>
      <point x="286" y="78"/>
      <point x="207" y="78" type="curve" smooth="yes"/>
      <point x="159" y="78"/>
      <point x="135" y="94"/>
      <point x="135" y="162" type="curve" smooth="yes"/>
      <point x="135" y="273"/>
      <point x="200" y="456"/>
      <point x="263" y="456" type="curve" smooth="yes" name="hr01"/>
      <point x="282" y="456"/>
      <point x="291" y="440"/>
      <point x="291" y="415" type="curve" smooth="yes"/>
      <point x="291" y="398"/>
      <point x="287" y="378"/>
    </contour>
    <contour>
      <point x="206" y="750" type="line"/>
      <point x="266" y="561" type="line"/>
      <point x="287" y="561" type="line"/>
      <point x="499" y="750" type="line"/>
      <point x="455" y="750" type="line"/>
      <point x="298" y="670" type="line"/>
      <point x="238" y="750" type="line"/>
    </contour>
  </outline>
</glyph>
<glyph name="sacute" format="1">
  <advance width="382"/>
  <unicode hex="015B"/>
  <outline>
    <contour>
      <point x="382" y="179" type="line"/>
      <point x="363" y="163"/>
      <point x="337" y="145"/>
      <point x="310" y="129" type="curve"/>
      <point x="313" y="141"/>
      <point x="314" y="153"/>
      <point x="314" y="167" type="curve" smooth="yes"/>
      <point x="314" y="233"/>
      <point x="304" y="272"/>
      <point x="292" y="531" type="curve" name="hr01"/>
      <point x="144" y="511" type="line"/>
      <point x="113" y="413"/>
      <point x="77" y="314"/>
      <point x="21" y="215" type="curve"/>
      <point x="-6" y="202"/>
      <point x="-32" y="168"/>
      <point x="-32" y="122" type="curve" smooth="yes"/>
      <point x="-32" y="61"/>
      <point x="12" y="-6"/>
      <point x="114" y="-6" type="curve" smooth="yes"/>
      <point x="165" y="-6"/>
      <point x="229" y="10"/>
      <point x="271" y="54" type="curve"/>
      <point x="317" y="81"/>
      <point x="372" y="119"/>
      <point x="424" y="179" type="curve"/>
    </contour>
    <contour>
      <point x="92" y="179" type="curve" smooth="yes" name="hr02"/>
      <point x="92" y="196"/>
      <point x="82" y="208"/>
      <point x="69" y="214" type="curve"/>
      <point x="102" y="278"/>
      <point x="130" y="338"/>
      <point x="150" y="403" type="curve"/>
      <point x="160" y="249"/>
      <point x="169" y="218"/>
      <point x="169" y="166" type="curve" smooth="yes" name="hr03"/>
      <point x="169" y="96"/>
      <point x="126" y="73"/>
      <point x="82" y="73" type="curve" smooth="yes"/>
      <point x="38" y="73"/>
      <point x="21" y="96"/>
      <point x="21" y="143" type="curve"/>
      <point x="26" y="133"/>
      <point x="38" y="130"/>
      <point x="48" y="130" type="curve" smooth="yes"/>
      <point x="74" y="130"/>
      <point x="92" y="155"/>
    </contour>
    <contour>
      <point x="213" y="561" type="line"/>
      <point x="288" y="561" type="line"/>
      <point x="409" y="750" type="line"/>
      <point x="304" y="750" type="line"/>
    </contour>
  </outline>
</glyph>
<glyph name="Ydieresis" format="1">
  <advance width="620"/>
  <unicode hex="0178"/>
  <outline>
    <contour>
      <point x="438" y="0" type="line" name="hr00"/>
      <point x="504" y="308" type="line"/>
      <point x="698" y="745" type="line"/>
      <point x="632" y="745" type="line"/>
      <point x="484" y="390" type="line"/>
      <point x="397" y="748" type="line"/>
      <point x="384" y="749"/>
      <point x="371" y="750"/>
      <point x="357" y="750" type="curve" smooth="yes"/>
      <point x="190" y="750"/>
      <point x="6" y="623"/>
      <point x="6" y="490" type="curve" smooth="yes"/>
      <point x="6" y="418"/>
      <point x="44" y="393"/>
      <point x="113" y="393" type="curve"/>
      <point x="112" y="402"/>
      <point x="99" y="410"/>
      <point x="99" y="461" type="curve" smooth="yes"/>
      <point x="99" y="571"/>
      <point x="155" y="649"/>
      <point x="248" y="683" type="curve"/>
      <point x="344" y="308" type="line"/>
      <point x="278" y="0" type="line"/>
    </contour>
    <contour>
      <point x="379" y="884" type="curve" smooth="yes"/>
      <point x="379" y="850"/>
      <point x="406" y="823"/>
      <point x="440" y="823" type="curve" smooth="yes"/>
      <point x="473" y="823"/>
      <point x="501" y="850"/>
      <point x="501" y="884" type="curve" smooth="yes"/>
      <point x="501" y="917"/>
      <point x="473" y="945"/>
      <point x="440" y="945" type="curve" smooth="yes"/>
      <point x="406" y="945"/>
      <point x="379" y="917"/>
    </contour>
    <contour>
      <point x="559" y="884" type="curve" smooth="yes"/>
      <point x="559" y="850"/>
      <point x="586" y="823"/>
      <point x="620" y="823" type="curve" smooth="yes"/>
      <point x="653" y="823"/>
      <point x="681" y="850"/>
      <point x="681" y="884" type="curve" smooth="yes"/>
      <point x="681" y="917"/>
      <point x="653" y="945"/>
      <point x="620" y="945" type="curve" smooth="yes"/>
      <point x="586" y="945"/>
      <point x="559" y="917"/>
    </contour>
  </outline>
</glyph>
<glyph name="zcaron" format="1">
  <advance width="428"/>
  <unicode hex="017E"/>
  <outline>
    <contour>
      <point x="306" y="91" type="curve"/>
      <point x="303" y="75"/>
      <point x="283" y="71"/>
      <point x="259" y="71" type="curve" smooth="yes"/>
      <point x="232" y="71"/>
      <point x="200" y="76"/>
      <point x="183" y="77" type="curve"/>
      <point x="428" y="500" type="line"/>
      <point x="171" y="500" type="line" smooth="yes"/>
      <point x="100" y="500"/>
      <point x="55" y="440"/>
      <point x="55" y="399" type="curve" smooth="yes"/>
      <point x="55" y="370"/>
      <point x="78" y="355"/>
      <point x="101" y="355" type="curve" smooth="yes"/>
      <point x="127" y="355"/>
      <point x="155" y="371"/>
      <point x="155" y="408" type="curve" smooth="yes"/>
      <point x="155" y="431"/>
      <point x="144" y="425"/>
      <point x="144" y="430" type="curve" smooth="yes"/>
      <point x="144" y="444"/>
      <point x="168" y="446"/>
      <point x="199" y="446" type="curve" smooth="yes" name="hr01"/>
      <point x="255" y="446" type="line"/>
      <point x="0" y="0" type="line"/>
      <point x="265" y="0" type="line" smooth="yes"/>
      <point x="342" y="0"/>
      <point x="387" y="61"/>
      <point x="387" y="107" type="curve" smooth="yes"/>
      <point x="387" y="134"/>
      <point x="373" y="155"/>
      <point x="343" y="155" type="curve" smooth="yes" name="hr02"/>
      <point x="306" y="155"/>
      <point x="287" y="130"/>
      <point x="287" y="112" type="curve" smooth="yes"/>
      <point x="287" y="101"/>
      <point x="293" y="92"/>
    </contour>
    <contour>
      <point x="187" y="750" type="line"/>
      <point x="247" y="561" type="line"/>
      <point x="268" y="561" type="line"/>
      <point x="480" y="750" type="line"/>
      <point x="436" y="750" type="line"/>
      <point x="279" y="670" type="line"/>
      <point x="219" y="750" type="line"/>
    </contour>
  </outline>
</glyph>
<glyph name="ring" format="1">
  <advance width="156"/>
  <unicode hex="02DA"/>
  <outline>
    <contour>
      <point x="85" y="713" type="curve" smooth="yes" name="hr00"/>
      <point x="25" y="713"/>
      <point x="0" y="658"/>
      <point x="0" y="622" type="curve" smooth="yes"/>
      <point x="0" y="584"/>
      <point x="27" y="552"/>
      <point x="70" y="552" type="curve" smooth="yes"/>
      <point x="132" y="552"/>
      <point x="157" y="592"/>
      <point x="157" y="636" type="curve" smooth="yes"/>
      <point x="157" y="679"/>
      <point x="134" y="713"/>
    </contour>
    <contour>
      <point x="120" y="633" type="curve" smooth="yes"/>
      <point x="120" y="605"/>
      <point x="105" y="587"/>
      <point x="74" y="587" type="curve" smooth="yes"/>
      <point x="50" y="587"/>
      <point x="40" y="602"/>
      <point x="40" y="624" type="curve" smooth="yes"/>
      <point x="40" y="649"/>
      <point x="52" y="680"/>
      <point x="87" y="680" type="curve" smooth="yes"/>
      <point x="119" y="680"/>
      <point x="120" y="652"/>
    </contour>
  </outline>
</glyph>
<glyph name="bn_ii" format="1">
  <advance width="605"/>
  <unicode hex="0988"/>
  <outline>
    <contour>
      <point x="607" y="567" type="line"/>
      <point x="591" y="671" type="line"/>
      <point x="-23" y="671" type="line"/>
      <point x="-7" y="567" type="line"/>
    </contour>
    <contour>
      <point x="31" y="908" type="curve" smooth="yes"/>
      <point x="31" y="931"/>
      <point x="47" y="953"/>
      <point x="74" y="960" type="curve"/>
      <point x="64" y="984"/>
      <point x="55" y="995"/>
      <point x="33" y="995" type="curve" smooth="yes"/>
      <point x="-3" y="995"/>
      <point x="-29" y="950"/>
      <point x="-29" y="905" type="curve" smooth="yes"/>
      <point x="-29" y="810"/>
      <point x="43" y="726"/>
      <point x="402" y="726" type="curve" smooth="yes"/>
      <point x="446" y="726"/>
      <point x="457" y="714"/>
      <point x="457" y="697" type="curve" smooth="yes"/>
      <point x="457" y="685"/>
      <point x="447" y="676"/>
      <point x="425" y="666" type="curve"/>
      <point x="484" y="640" type="line"/>
      <point x="504" y="659"/>
      <point x="517" y="683"/>
      <point x="517" y="710" type="curve" smooth="yes"/>
      <point x="517" y="813"/>
      <point x="410" y="863"/>
      <point x="126" y="863" type="curve" smooth="yes"/>
      <point x="48" y="863"/>
      <point x="31" y="882"/>
    </contour>
    <contour>
      <point x="220" y="341" type="curve" smooth="yes"/>
      <point x="220" y="220"/>
      <point x="161" y="155"/>
      <point x="84" y="155" type="curve" smooth="yes"/>
      <point x="48" y="155"/>
      <point x="13" y="173"/>
      <point x="13" y="212" type="curve" smooth="yes"/>
      <point x="13" y="219"/>
      <point x="14" y="223"/>
      <point x="16" y="228" type="curve"/>
      <point x="6" y="238"/>
      <point x="-6" y="242"/>
      <point x="-17" y="242" type="curve" smooth="yes"/>
      <point x="-34" y="242"/>
      <point x="-50" y="231"/>
      <point x="-50" y="205" type="curve" smooth="yes"/>
      <point x="-50" y="133"/>
      <point x="37" y="45"/>
      <point x="126" y="45" type="curve" smooth="yes"/>
      <point x="318" y="45"/>
      <point x="383" y="452"/>
      <point x="591" y="425" type="curve"/>
      <point x="472" y="511" type="line"/>
      <point x="401" y="473"/>
      <point x="312" y="386"/>
      <point x="266" y="305" type="curve"/>
      <point x="304" y="281" type="line"/>
      <point x="293" y="436"/>
      <point x="246" y="508"/>
      <point x="149" y="508" type="curve" smooth="yes"/>
      <point x="64" y="508"/>
      <point x="-2" y="441"/>
      <point x="-2" y="375" type="curve" smooth="yes"/>
      <point x="-2" y="315"/>
      <point x="41" y="285"/>
      <point x="84" y="285" type="curve" smooth="yes"/>
      <point x="134" y="285"/>
      <point x="175" y="332"/>
      <point x="175" y="381" type="curve" smooth="yes"/>
      <point x="175" y="412"/>
      <point x="157" y="445"/>
      <point x="125" y="451" type="curve"/>
      <point x="87" y="372" type="line"/>
      <point x="111" y="415"/>
      <point x="139" y="436"/>
      <point x="164" y="436" type="curve" smooth="yes"/>
      <point x="209" y="436"/>
      <point x="220" y="399"/>
    </contour>
    <contour>
      <point x="438" y="134" type="curve"/>
      <point x="438" y="273"/>
      <point x="497" y="363"/>
      <point x="591" y="425" type="curve"/>
      <point x="467" y="442" type="line"/>
      <point x="401" y="375"/>
      <point x="373" y="251"/>
      <point x="373" y="131" type="curve" smooth="yes"/>
      <point x="373" y="16"/>
      <point x="424" y="-102"/>
      <point x="476" y="-102" type="curve" smooth="yes"/>
      <point x="496" y="-102"/>
      <point x="511" y="-89"/>
      <point x="518" y="-67" type="curve"/>
      <point x="486" y="-47"/>
      <point x="438" y="35"/>
    </contour>
    <contour>
      <point x="302" y="985" type="move" name="chandrabindu"/>
    </contour>
  </outline>
</glyph>
<glyph name="bn_uu" format="1">
  <advance width="626"/>
  <unicode hex="098A"/>
  <outline>
    <contour>
      <point x="268" y="504" type="curve"/>
      <point x="287" y="533" type="line"/>
      <point x="250" y="622"/>
      <point x="203" y="671"/>
      <point x="112" y="671" type="curve" smooth="yes"/>
      <point x="-23" y="671" type="line"/>
      <point x="-7" y="567" type="line"/>
      <point x="158" y="567" type="line" smooth="yes"/>
      <point x="233" y="567"/>
      <point x="244" y="543"/>
    </contour>
    <contour>
      <point x="352" y="-10" type="curve" smooth="yes"/>
      <point x="465" y="-10"/>
      <point x="565" y="76"/>
      <point x="566" y="257" type="curve"/>
      <point x="565" y="348"/>
      <point x="538" y="405"/>
      <point x="502" y="448" type="curve"/>
      <point x="410" y="329"/>
      <point x="382" y="300"/>
      <point x="356" y="300" type="curve" smooth="yes"/>
      <point x="339" y="300"/>
      <point x="333" y="316"/>
      <point x="333" y="331" type="curve"/>
      <point x="333" y="372"/>
      <point x="352" y="424"/>
      <point x="370" y="479" type="curve" smooth="yes"/>
      <point x="390" y="539"/>
      <point x="423" y="567"/>
      <point x="514" y="567" type="curve" smooth="yes"/>
      <point x="628" y="567" type="line"/>
      <point x="612" y="671" type="line"/>
      <point x="486" y="671" type="line" smooth="yes"/>
      <point x="349" y="671"/>
      <point x="273" y="612"/>
      <point x="251" y="498" type="curve" smooth="yes"/>
      <point x="236" y="421" type="line" smooth="yes"/>
      <point x="213" y="302"/>
      <point x="291" y="220"/>
      <point x="387" y="219" type="curve"/>
      <point x="433" y="219"/>
      <point x="478" y="243"/>
      <point x="509" y="293" type="curve"/>
      <point x="515" y="204"/>
      <point x="453" y="116"/>
      <point x="353" y="116" type="curve"/>
      <point x="242" y="116"/>
      <point x="168" y="237"/>
      <point x="168" y="391" type="curve" smooth="yes"/>
      <point x="168" y="416"/>
      <point x="171" y="440"/>
      <point x="178" y="463" type="curve"/>
      <point x="166" y="478"/>
      <point x="155" y="484"/>
      <point x="142" y="484" type="curve" smooth="yes"/>
      <point x="119" y="484"/>
      <point x="103" y="470"/>
      <point x="103" y="416" type="curve"/>
      <point x="103" y="356"/>
      <point x="109" y="245"/>
      <point x="172" y="137" type="curve"/>
      <point x="91" y="207"/>
      <point x="52" y="296"/>
      <point x="52" y="409" type="curve" smooth="yes"/>
      <point x="52" y="425"/>
      <point x="53" y="443"/>
      <point x="57" y="463" type="curve"/>
      <point x="45" y="478"/>
      <point x="34" y="484"/>
      <point x="21" y="484" type="curve" smooth="yes"/>
      <point x="-2" y="484"/>
      <point x="-16" y="470"/>
      <point x="-16" y="436" type="curve" smooth="yes"/>
      <point x="-16.0" y="214.244931235"/>
      <point x="111" y="-10"/>
    </contour>
    <contour>
      <point x="127" y="906" type="curve" smooth="yes"/>
      <point x="127" y="929"/>
      <point x="143" y="951"/>
      <point x="170" y="960" type="curve"/>
      <point x="160" y="982"/>
      <point x="151" y="993"/>
      <point x="129" y="995" type="curve" smooth="yes"/>
      <point x="93" y="993"/>
      <point x="67" y="948"/>
      <point x="67" y="905" type="curve" smooth="yes"/>
      <point x="67" y="788"/>
      <point x="169" y="726"/>
      <point x="459" y="726" type="curve"/>
      <point x="500" y="726"/>
      <point x="515" y="718"/>
      <point x="515" y="705" type="curve" smooth="yes"/>
      <point x="515" y="691"/>
      <point x="501" y="677"/>
      <point x="463" y="666" type="curve"/>
      <point x="526" y="639" type="line"/>
      <point x="566" y="666"/>
      <point x="575" y="690"/>
      <point x="575" y="726" type="curve"/>
      <point x="575" y="810"/>
      <point x="470" y="863"/>
      <point x="201" y="863" type="curve"/>
      <point x="144" y="863"/>
      <point x="127" y="880"/>
    </contour>
  </outline>
</glyph>
<glyph name="bn_ai" format="1">
  <advance width="683"/>
  <unicode hex="0990"/>
  <outline>
    <contour>
      <point x="249" y="928" type="curve" smooth="yes"/>
      <point x="249" y="951"/>
      <point x="265" y="973"/>
      <point x="292" y="980" type="curve"/>
      <point x="282" y="1004"/>
      <point x="273" y="1015"/>
      <point x="251" y="1015" type="curve" smooth="yes"/>
      <point x="215" y="1015"/>
      <point x="189" y="970"/>
      <point x="189" y="925" type="curve" smooth="yes"/>
      <point x="189" y="830"/>
      <point x="260" y="748"/>
      <point x="440" y="748" type="curve" smooth="yes"/>
      <point x="537" y="748"/>
      <point x="568" y="703"/>
      <point x="568" y="652" type="curve" smooth="yes"/>
      <point x="568" y="560"/>
      <point x="525" y="507"/>
      <point x="453" y="504" type="curve"/>
      <point x="479" y="381" type="line"/>
      <point x="538" y="413"/>
      <point x="628" y="520"/>
      <point x="628" y="660" type="curve"/>
      <point x="626" y="785"/>
      <point x="567" y="885"/>
      <point x="333" y="885" type="curve" smooth="yes"/>
      <point x="270" y="885"/>
      <point x="249" y="902"/>
    </contour>
    <contour>
      <point x="446" y="536" type="curve" smooth="yes"/>
      <point x="331" y="0" type="line"/>
      <point x="446" y="0" type="line"/>
      <point x="535" y="428" type="line" smooth="yes"/>
      <point x="567" y="581"/>
      <point x="491" y="681"/>
      <point x="388" y="681" type="curve" smooth="yes"/>
      <point x="266" y="681"/>
      <point x="163" y="513"/>
      <point x="163" y="431" type="curve" smooth="yes"/>
      <point x="163" y="358"/>
      <point x="211" y="312"/>
      <point x="267" y="312" type="curve" smooth="yes"/>
      <point x="323" y="312"/>
      <point x="363" y="349"/>
      <point x="363" y="408" type="curve" smooth="yes"/>
      <point x="363" y="450"/>
      <point x="335" y="497"/>
      <point x="262" y="497" type="curve"/>
      <point x="288" y="452" type="line"/>
      <point x="321" y="542"/>
      <point x="387" y="613"/>
      <point x="424" y="613" type="curve" smooth="yes"/>
      <point x="447" y="613"/>
      <point x="458" y="593"/>
    </contour>
    <contour>
      <point x="126" y="251" type="curve" smooth="yes"/>
      <point x="75" y="251"/>
      <point x="49" y="273"/>
      <point x="49" y="315" type="curve" smooth="yes"/>
      <point x="49" y="370"/>
      <point x="75" y="435"/>
      <point x="126" y="464" type="curve"/>
      <point x="119" y="487"/>
      <point x="107" y="500"/>
      <point x="82" y="500" type="curve" smooth="yes"/>
      <point x="37" y="500"/>
      <point x="-5" y="421"/>
      <point x="-5" y="334" type="curve" smooth="yes"/>
      <point x="-5" y="201"/>
      <point x="85" y="104"/>
      <point x="248" y="104" type="curve" smooth="yes"/>
      <point x="308" y="104"/>
      <point x="336" y="88"/>
      <point x="336" y="45" type="curve" smooth="yes"/>
      <point x="336" y="30"/>
      <point x="335" y="16"/>
      <point x="331" y="0" type="curve"/>
      <point x="357" y="26" type="line"/>
      <point x="361" y="44"/>
      <point x="363" y="61"/>
      <point x="363" y="77" type="curve" smooth="yes"/>
      <point x="363" y="185"/>
      <point x="270" y="251"/>
    </contour>
  </outline>
</glyph>
<glyph name="bn_o" format="1">
  <advance width="645"/>
  <unicode hex="0993"/>
  <outline>
    <contour>
      <point x="1" y="428" type="curve" smooth="yes"/>
      <point x="1" y="189"/>
      <point x="151" y="-9"/>
      <point x="340" y="-9" type="curve" smooth="yes"/>
      <point x="454" y="-9"/>
      <point x="560" y="68"/>
      <point x="560" y="216" type="curve" smooth="yes"/>
      <point x="560" y="329"/>
      <point x="491" y="427"/>
      <point x="409" y="427" type="curve" smooth="yes"/>
      <point x="361" y="427"/>
      <point x="325" y="398"/>
      <point x="325" y="335" type="curve" smooth="yes"/>
      <point x="325" y="282"/>
      <point x="367" y="249"/>
      <point x="408" y="249" type="curve" smooth="yes"/>
      <point x="504" y="249"/>
      <point x="575" y="404"/>
      <point x="575" y="508" type="curve" smooth="yes"/>
      <point x="575" y="590"/>
      <point x="511" y="681"/>
      <point x="382" y="681" type="curve" smooth="yes"/>
      <point x="254" y="681"/>
      <point x="126" y="567"/>
      <point x="126" y="445" type="curve"/>
      <point x="126" y="383"/>
      <point x="161" y="338"/>
      <point x="214" y="338" type="curve" smooth="yes"/>
      <point x="266" y="338"/>
      <point x="305" y="375"/>
      <point x="305" y="422" type="curve" smooth="yes"/>
      <point x="305" y="467"/>
      <point x="268" y="497"/>
      <point x="236" y="504" type="curve"/>
      <point x="260" y="446" type="line"/>
      <point x="285" y="533"/>
      <point x="366" y="614"/>
      <point x="437" y="614" type="curve" smooth="yes"/>
      <point x="464" y="614"/>
      <point x="482" y="585"/>
      <point x="482" y="553" type="curve" smooth="yes"/>
      <point x="482" y="509"/>
      <point x="461" y="441"/>
      <point x="430" y="410" type="curve"/>
      <point x="452" y="341" type="line"/>
      <point x="535" y="204"/>
      <point x="435" y="108"/>
      <point x="336" y="109" type="curve"/>
      <point x="218" y="109"/>
      <point x="75" y="218"/>
      <point x="75" y="398" type="curve" smooth="yes"/>
      <point x="75" y="435"/>
      <point x="84" y="468"/>
      <point x="102" y="491" type="curve"/>
      <point x="93" y="502"/>
      <point x="77" y="512"/>
      <point x="59" y="512" type="curve" smooth="yes"/>
      <point x="25" y="512"/>
      <point x="1" y="488"/>
    </contour>
  </outline>
</glyph>
<glyph name="bn_kha" format="1">
  <advance width="622"/>
  <unicode hex="0996"/>
  <outline>
    <contour>
      <point x="608" y="671" type="line"/>
      <point x="598" y="671" type="line" smooth="yes"/>
      <point x="539" y="671"/>
      <point x="521" y="704"/>
      <point x="521" y="798" type="curve"/>
      <point x="487" y="798" type="line"/>
      <point x="315" y="0" type="line" smooth="yes"/>
      <point x="430" y="0" type="line"/>
      <point x="561" y="621" type="line"/>
      <point x="572" y="589"/>
      <point x="591" y="567"/>
      <point x="615" y="567" type="curve" smooth="yes"/>
      <point x="624" y="567" type="line"/>
    </contour>
    <contour>
      <point x="287" y="541" type="curve"/>
      <point x="290" y="537"/>
      <point x="292" y="531"/>
      <point x="293" y="514" type="curve"/>
      <point x="292" y="458"/>
      <point x="220" y="385"/>
      <point x="49" y="358" type="curve"/>
      <point x="66" y="241" type="line"/>
      <point x="207" y="244"/>
      <point x="354" y="163"/>
      <point x="315" y="0" type="curve"/>
      <point x="341" y="26" type="line"/>
      <point x="383" y="210"/>
      <point x="274" y="300"/>
      <point x="154" y="340" type="curve"/>
      <point x="148" y="270" type="line"/>
      <point x="323" y="322"/>
      <point x="368" y="408"/>
      <point x="368" y="491" type="curve" smooth="yes"/>
      <point x="368" y="592"/>
      <point x="310" y="666"/>
      <point x="250" y="694" type="curve"/>
      <point x="228" y="633"/>
      <point x="196" y="575"/>
      <point x="156" y="545" type="curve"/>
      <point x="185" y="551" type="line"/>
      <point x="185" y="633"/>
      <point x="135" y="659"/>
      <point x="89" y="659" type="curve" smooth="yes"/>
      <point x="36" y="659"/>
      <point x="1" y="617"/>
      <point x="1" y="567" type="curve" smooth="yes"/>
      <point x="1" y="499"/>
      <point x="49" y="460"/>
      <point x="120" y="460" type="curve" smooth="yes"/>
      <point x="184" y="460"/>
      <point x="230" y="484"/>
    </contour>
    <contour>
      <point x="379.0" y="0.0" type="move" name="blwm"/>
    </contour>
    <contour>
      <point x="144.0" y="0.0" type="move" name="nukt"/>
    </contour>
    <contour>
      <point x="496.0" y="750.0" type="move" name="reph"/>
    </contour>
    <contour>
      <point x="496.0" y="750.0" type="move" name="chandrabindu"/>
    </contour>
    <contour>
      <point x="379.0" y="0.0" type="move" name="haln"/>
    </contour>
  </outline>
</glyph>
<glyph name="bn_nga" format="1">
  <advance width="570"/>
  <unicode hex="0999"/>
  <outline>
    <contour>
      <point x="271" y="-10" type="curve" smooth="yes"/>
      <point x="416" y="-10"/>
      <point x="504" y="97"/>
      <point x="504" y="256" type="curve"/>
      <point x="504" y="333"/>
      <point x="478" y="396"/>
      <point x="445" y="425" type="curve"/>
      <point x="380" y="324"/>
      <point x="315" y="294"/>
      <point x="278" y="294" type="curve" smooth="yes"/>
      <point x="255" y="294"/>
      <point x="246" y="309"/>
      <point x="256" y="348" type="curve" smooth="yes"/>
      <point x="290" y="487" type="line" smooth="yes"/>
      <point x="307" y="556"/>
      <point x="330" y="596"/>
      <point x="370" y="596" type="curve" smooth="yes"/>
      <point x="392" y="596"/>
      <point x="408" y="580"/>
      <point x="408" y="556" type="curve" smooth="yes"/>
      <point x="408" y="521"/>
      <point x="384" y="493"/>
      <point x="327" y="493" type="curve" smooth="yes"/>
      <point x="238" y="493"/>
      <point x="149" y="548"/>
      <point x="126" y="639" type="curve"/>
      <point x="74" y="639"/>
      <point x="44" y="620"/>
      <point x="44" y="584" type="curve" smooth="yes"/>
      <point x="44" y="500"/>
      <point x="179" y="417"/>
      <point x="293" y="417" type="curve" smooth="yes"/>
      <point x="405" y="417"/>
      <point x="473" y="474"/>
      <point x="473" y="545" type="curve" smooth="yes"/>
      <point x="473" y="617"/>
      <point x="416" y="680"/>
      <point x="329" y="680" type="curve" smooth="yes"/>
      <point x="247" y="680"/>
      <point x="199" y="599"/>
      <point x="172" y="492" type="curve" smooth="yes"/>
      <point x="155" y="424" type="line" smooth="yes"/>
      <point x="122" y="291"/>
      <point x="220" y="209"/>
      <point x="324" y="209" type="curve" smooth="yes"/>
      <point x="389" y="209"/>
      <point x="451" y="255"/>
      <point x="477" y="310" type="curve"/>
      <point x="457" y="334" type="line"/>
      <point x="457" y="179"/>
      <point x="364" y="111"/>
      <point x="268" y="111" type="curve" smooth="yes"/>
      <point x="165" y="111"/>
      <point x="67" y="171"/>
      <point x="67" y="321" type="curve" smooth="yes"/>
      <point x="67" y="359"/>
      <point x="73" y="400"/>
      <point x="87" y="438" type="curve"/>
      <point x="76" y="451"/>
      <point x="65" y="459"/>
      <point x="47" y="459" type="curve" smooth="yes"/>
      <point x="9" y="459"/>
      <point x="4" y="416"/>
      <point x="4" y="364" type="curve" smooth="yes"/>
      <point x="4" y="156"/>
      <point x="86" y="-10"/>
    </contour>
    <contour>
      <point x="295" y="0" type="move" name="blwm"/>
    </contour>
    <contour>
      <point x="151" y="-120" type="move" name="nukt"/>
    </contour>
    <contour>
      <point x="304" y="750" type="move" name="reph"/>
    </contour>
    <contour>
      <point x="304" y="750" type="move" name="chandrabindu"/>
    </contour>
    <contour>
      <point x="267" y="0" type="move" name="haln"/>
    </contour>
  </outline>
</glyph>
<glyph name="bn_ja" format="1">
  <advance width="698"/>
  <unicode hex="099C"/>
  <outline>
    <contour>
      <point x="700" y="567" type="line"/>
      <point x="684" y="671" type="line"/>
      <point x="-23" y="671" type="line"/>
      <point x="-7" y="567" type="line"/>
    </contour>
    <contour>
      <point x="255" y="10" type="curve" smooth="yes"/>
      <point x="380" y="10"/>
      <point x="431" y="134"/>
      <point x="431" y="248" type="curve" smooth="yes"/>
      <point x="431" y="316"/>
      <point x="406" y="381"/>
      <point x="369" y="427" type="curve"/>
      <point x="330" y="354"/>
      <point x="268" y="327"/>
      <point x="232" y="327" type="curve" smooth="yes"/>
      <point x="209" y="327"/>
      <point x="196" y="338"/>
      <point x="196" y="364" type="curve" smooth="yes"/>
      <point x="196" y="418"/>
      <point x="279" y="508"/>
      <point x="426" y="551" type="curve"/>
      <point x="350" y="655" type="line"/>
      <point x="172" y="581"/>
      <point x="128" y="472"/>
      <point x="128" y="389" type="curve" smooth="yes"/>
      <point x="128" y="296"/>
      <point x="204" y="220"/>
      <point x="265" y="220" type="curve" smooth="yes"/>
      <point x="301" y="220"/>
      <point x="333" y="227"/>
      <point x="370" y="269" type="curve"/>
      <point x="390" y="228"/>
      <point x="371" y="137"/>
      <point x="248" y="137" type="curve" smooth="yes"/>
      <point x="135" y="137"/>
      <point x="61" y="220"/>
      <point x="61" y="367" type="curve" smooth="yes"/>
      <point x="61" y="398"/>
      <point x="64" y="429"/>
      <point x="72" y="463" type="curve"/>
      <point x="61" y="476"/>
      <point x="50" y="484"/>
      <point x="32" y="484" type="curve" smooth="yes"/>
      <point x="5" y="484"/>
      <point x="-11" y="467"/>
      <point x="-11" y="429" type="curve" smooth="yes"/>
      <point x="-11" y="215"/>
      <point x="56" y="10"/>
    </contour>
    <contour>
      <point x="453" y="-3"/>
      <point x="472" y="-59"/>
      <point x="502" y="-59" type="curve" smooth="yes"/>
      <point x="520" y="-59"/>
      <point x="538" y="-44"/>
      <point x="545" y="-25" type="curve"/>
      <point x="526" y="-4"/>
      <point x="518" y="25"/>
      <point x="518" y="57" type="curve" smooth="yes"/>
      <point x="518" y="167"/>
      <point x="580" y="321"/>
      <point x="670" y="356" type="curve"/>
      <point x="610" y="484" type="line"/>
      <point x="537" y="456"/>
      <point x="451" y="475"/>
      <point x="413" y="593" type="curve"/>
      <point x="352" y="583" type="line"/>
      <point x="380" y="431"/>
      <point x="487" y="333"/>
      <point x="596" y="356" type="curve"/>
      <point x="580" y="406" type="line"/>
      <point x="472" y="322"/>
      <point x="453" y="178"/>
      <point x="453" y="72" type="curve" smooth="yes"/>
    </contour>
    <contour>
      <point x="227" y="0" type="move" name="blwm"/>
    </contour>
    <contour>
      <point x="239" y="-120" type="move" name="nukt"/>
    </contour>
    <contour>
      <point x="422" y="750" type="move" name="reph"/>
    </contour>
    <contour>
      <point x="422" y="750" type="move" name="chandrabindu"/>
    </contour>
    <contour>
      <point x="227" y="0" type="move" name="haln"/>
    </contour>
  </outline>
</glyph>
<glyph name="bn_tta" format="1">
  <advance width="505"/>
  <unicode hex="099F"/>
  <outline>
    <contour>
      <point x="373" y="640" type="line"/>
      <point x="393" y="657"/>
      <point x="405" y="677"/>
      <point x="405" y="704" type="curve" smooth="yes"/>
      <point x="405" y="787"/>
      <point x="315" y="853"/>
      <point x="100" y="853" type="curve" smooth="yes"/>
      <point x="61" y="853"/>
      <point x="44" y="871"/>
      <point x="44" y="898" type="curve" smooth="yes"/>
      <point x="44" y="921"/>
      <point x="60" y="943"/>
      <point x="87" y="950" type="curve"/>
      <point x="77" y="974"/>
      <point x="68" y="985"/>
      <point x="46" y="985" type="curve" smooth="yes"/>
      <point x="10" y="985"/>
      <point x="-16" y="940"/>
      <point x="-16" y="895" type="curve" smooth="yes"/>
      <point x="-16" y="785"/>
      <point x="69" y="716"/>
      <point x="309" y="716" type="curve" smooth="yes"/>
      <point x="333" y="716"/>
      <point x="345" y="709"/>
      <point x="345" y="692" type="curve" smooth="yes"/>
      <point x="345" y="681"/>
      <point x="340" y="675"/>
      <point x="323" y="666" type="curve"/>
    </contour>
    <contour>
      <point x="-7" y="567" type="line"/>
      <point x="2" y="567" type="line" smooth="yes"/>
      <point x="52" y="567"/>
      <point x="73" y="551"/>
      <point x="88" y="526" type="curve"/>
      <point x="106" y="540" type="line"/>
      <point x="92" y="622"/>
      <point x="58" y="671"/>
      <point x="-13" y="671" type="curve" smooth="yes"/>
      <point x="-23" y="671" type="line"/>
    </contour>
    <contour>
      <point x="131" y="70" type="curve" smooth="yes"/>
      <point x="111" y="70"/>
      <point x="105" y="95"/>
      <point x="114" y="140" type="curve" smooth="yes"/>
      <point x="175" y="443" type="line" smooth="yes"/>
      <point x="194" y="536"/>
      <point x="225" y="567"/>
      <point x="316" y="567" type="curve" smooth="yes"/>
      <point x="507" y="567" type="line"/>
      <point x="491" y="671" type="line"/>
      <point x="343" y="671" type="line" smooth="yes"/>
      <point x="170" y="671"/>
      <point x="101" y="623"/>
      <point x="64" y="453" type="curve" smooth="yes"/>
      <point x="27" y="282" type="line" smooth="yes"/>
      <point x="-12" y="102"/>
      <point x="65" y="0"/>
      <point x="170" y="0" type="curve" smooth="yes"/>
      <point x="286" y="0"/>
      <point x="422" y="179"/>
      <point x="422" y="298" type="curve" smooth="yes"/>
      <point x="422" y="367"/>
      <point x="377" y="409"/>
      <point x="317" y="409" type="curve" smooth="yes"/>
      <point x="257" y="409"/>
      <point x="215" y="371"/>
      <point x="215" y="312" type="curve" smooth="yes"/>
      <point x="215" y="267"/>
      <point x="251" y="220"/>
      <point x="313" y="220" type="curve"/>
      <point x="291" y="258" type="line"/>
      <point x="265" y="156"/>
      <point x="169" y="70"/>
    </contour>
    <contour>
      <point x="175.0" y="0.0" type="move" name="blwm"/>
    </contour>
    <contour>
      <point x="105.0" y="-120.0" type="move" name="nukt"/>
    </contour>
    <contour>
      <point x="178.0" y="750.0" type="move" name="reph"/>
    </contour>
    <contour>
      <point x="307" y="828" type="move" name="chandrabindu"/>
    </contour>
    <contour>
      <point x="175" y="0" type="move" name="haln"/>
    </contour>
  </outline>
</glyph>
<glyph name="bn_ba" format="1">
  <advance width="518"/>
  <unicode hex="09AC"/>
  <outline>
    <contour>
      <point x="184" y="567" type="line" smooth="yes"/>
      <point x="279" y="567"/>
      <point x="299" y="545"/>
      <point x="324" y="504" type="curve"/>
      <point x="343" y="533" type="line"/>
      <point x="307" y="620"/>
      <point x="235" y="671"/>
      <point x="117" y="671" type="curve" smooth="yes"/>
      <point x="-33" y="671" type="line"/>
      <point x="-17" y="567" type="line"/>
    </contour>
    <contour>
      <point x="431" y="494" type="line" smooth="yes"/>
      <point x="442" y="546"/>
      <point x="464" y="567"/>
      <point x="494" y="567" type="curve" smooth="yes"/>
      <point x="520" y="567" type="line"/>
      <point x="504" y="671" type="line"/>
      <point x="474" y="671" type="line" smooth="yes"/>
      <point x="391" y="671"/>
      <point x="345" y="617"/>
      <point x="328" y="538" type="curve" smooth="yes"/>
      <point x="214" y="0" type="line" smooth="yes"/>
      <point x="329" y="0" type="line" smooth="yes"/>
    </contour>
    <contour>
      <point x="381" y="544" type="line"/>
      <point x="253" y="544"/>
      <point x="97" y="456"/>
      <point x="-15" y="352" type="curve"/>
      <point x="1" y="239" type="line"/>
      <point x="135" y="227"/>
      <point x="243" y="138"/>
      <point x="214" y="0" type="curve"/>
      <point x="240" y="26" type="line"/>
      <point x="271" y="173"/>
      <point x="213" y="269"/>
      <point x="119" y="308" type="curve"/>
      <point x="119" y="298" type="line"/>
      <point x="227" y="399"/>
      <point x="318" y="425"/>
      <point x="404" y="425" type="curve"/>
    </contour>
    <contour>
      <point x="278.0" y="0.0" type="move" name="blwm"/>
    </contour>
    <contour>
      <point x="55.0" y="0.0" type="move" name="nukt"/>
    </contour>
    <contour>
      <point x="438.0" y="750.0" type="move" name="reph"/>
    </contour>
    <contour>
      <point x="438.0" y="750.0" type="move" name="chandrabindu"/>
    </contour>
    <contour>
      <point x="278.0" y="0.0" type="move" name="haln"/>
    </contour>
  </outline>
</glyph>
<glyph name="bn_ya" format="1">
  <advance width="534"/>
  <unicode hex="09AF"/>
  <outline>
    <contour>
      <point x="447" y="494" type="line" smooth="yes"/>
      <point x="458" y="546"/>
      <point x="480" y="567"/>
      <point x="510" y="567" type="curve" smooth="yes"/>
      <point x="536" y="567" type="line"/>
      <point x="520" y="671" type="line"/>
      <point x="490" y="671" type="line" smooth="yes"/>
      <point x="407" y="671"/>
      <point x="361" y="617"/>
      <point x="344" y="538" type="curve" smooth="yes"/>
      <point x="230" y="0" type="line" smooth="yes"/>
      <point x="345" y="0" type="line" smooth="yes"/>
    </contour>
    <contour>
      <point x="201" y="567" type="line" smooth="yes"/>
      <point x="296" y="567"/>
      <point x="316" y="545"/>
      <point x="341" y="504" type="curve"/>
      <point x="360" y="533" type="line"/>
      <point x="324" y="620"/>
      <point x="252" y="671"/>
      <point x="134" y="671" type="curve" smooth="yes"/>
      <point x="-23" y="671" type="line"/>
      <point x="-7" y="567" type="line"/>
    </contour>
    <contour>
      <point x="256" y="26" type="line"/>
      <point x="286" y="169"/>
      <point x="232" y="264"/>
      <point x="142" y="305" type="curve"/>
      <point x="183" y="341"/>
      <point x="228" y="369"/>
      <point x="279" y="403" type="curve"/>
      <point x="222" y="464"/>
      <point x="177" y="544"/>
      <point x="177" y="600" type="curve"/>
      <point x="34" y="600" type="line"/>
      <point x="34" y="542"/>
      <point x="91" y="509"/>
      <point x="150" y="465" type="curve"/>
      <point x="104" y="436"/>
      <point x="39" y="388"/>
      <point x="1" y="352" type="curve"/>
      <point x="17" y="239" type="line"/>
      <point x="151" y="227"/>
      <point x="259" y="138"/>
      <point x="230" y="0" type="curve"/>
    </contour>
    <contour>
      <point x="294" y="0" type="move" name="blwm"/>
    </contour>
    <contour>
      <point x="294" y="0" type="move" name="blwm"/>
    </contour>
    <contour>
      <point x="57" y="0" type="move" name="nukt"/>
    </contour>
    <contour>
      <point x="460" y="750" type="move" name="reph"/>
    </contour>
    <contour>
      <point x="460" y="750" type="move" name="chandrabindu"/>
    </contour>
    <contour>
      <point x="294" y="0" type="move" name="haln"/>
    </contour>
  </outline>
</glyph>
<glyph name="bn_la" format="1">
  <advance width="700"/>
  <unicode hex="09B2"/>
  <outline>
    <contour>
      <point x="493" y="329" type="line"/>
      <point x="493" y="417"/>
      <point x="451" y="490"/>
      <point x="389" y="490" type="curve" smooth="yes"/>
      <point x="342" y="490"/>
      <point x="282" y="449"/>
      <point x="264" y="287" type="curve"/>
      <point x="353" y="268" type="line"/>
      <point x="364" y="330"/>
      <point x="393" y="373"/>
      <point x="423" y="373" type="curve" smooth="yes"/>
      <point x="452" y="373"/>
      <point x="466" y="335"/>
      <point x="448" y="243" type="curve"/>
    </contour>
    <contour>
      <point x="613" y="494" type="line" smooth="yes"/>
      <point x="624" y="546"/>
      <point x="646" y="567"/>
      <point x="676" y="567" type="curve" smooth="yes"/>
      <point x="702" y="567" type="line"/>
      <point x="686" y="671" type="line"/>
      <point x="656" y="671" type="line" smooth="yes"/>
      <point x="573" y="671"/>
      <point x="527" y="617"/>
      <point x="510" y="538" type="curve" smooth="yes"/>
      <point x="396" y="0" type="line" smooth="yes"/>
      <point x="511" y="0" type="line" smooth="yes"/>
    </contour>
    <contour>
      <point x="181" y="372" type="curve" smooth="yes"/>
      <point x="231" y="372"/>
      <point x="264" y="340"/>
      <point x="264" y="287" type="curve"/>
      <point x="280" y="305" type="line"/>
      <point x="302" y="405"/>
      <point x="240" y="490"/>
      <point x="152" y="490" type="curve" smooth="yes"/>
      <point x="51" y="490"/>
      <point x="-5" y="395"/>
      <point x="-5" y="305" type="curve" smooth="yes"/>
      <point x="-5" y="167"/>
      <point x="88" y="112"/>
      <point x="154" y="112" type="curve" smooth="yes"/>
      <point x="205" y="112"/>
      <point x="250" y="138"/>
      <point x="250" y="201" type="curve" smooth="yes"/>
      <point x="250" y="247"/>
      <point x="219" y="281"/>
      <point x="169" y="281" type="curve" smooth="yes"/>
      <point x="122" y="281"/>
      <point x="84" y="242"/>
      <point x="84" y="190" type="curve"/>
      <point x="108" y="180" type="line"/>
      <point x="85" y="197"/>
      <point x="82" y="222"/>
      <point x="82" y="257" type="curve" smooth="yes"/>
      <point x="82" y="316"/>
      <point x="114" y="372"/>
    </contour>
    <contour>
      <point x="368" y="567" type="line" smooth="yes"/>
      <point x="463" y="567"/>
      <point x="483" y="545"/>
      <point x="508" y="504" type="curve"/>
      <point x="527" y="533" type="line"/>
      <point x="491" y="620"/>
      <point x="419" y="671"/>
      <point x="301" y="671" type="curve" smooth="yes"/>
      <point x="-23" y="671" type="line"/>
      <point x="-7" y="567" type="line"/>
    </contour>
    <contour>
      <point x="460" y="0" type="move" name="blwm"/>
    </contour>
    <contour>
      <point x="274" y="0" type="move" name="nukt"/>
    </contour>
    <contour>
      <point x="617" y="750" type="move" name="reph"/>
    </contour>
    <contour>
      <point x="617" y="750" type="move" name="chandrabindu"/>
    </contour>
    <contour>
      <point x="460" y="0" type="move" name="haln"/>
    </contour>
  </outline>
</glyph>
<glyph name="bn_ssa" format="1">
  <advance width="543"/>
  <unicode hex="09B7"/>
  <outline>
    <contour>
      <point x="456" y="494" type="line" smooth="yes"/>
      <point x="467" y="546"/>
      <point x="489" y="567"/>
      <point x="519" y="567" type="curve" smooth="yes"/>
      <point x="545" y="567" type="line"/>
      <point x="529" y="671" type="line"/>
      <point x="499" y="671" type="line" smooth="yes"/>
      <point x="416" y="671"/>
      <point x="370" y="617"/>
      <point x="353" y="538" type="curve" smooth="yes"/>
      <point x="239" y="0" type="line" smooth="yes"/>
      <point x="354" y="0" type="line" smooth="yes"/>
    </contour>
    <contour>
      <point x="160" y="433" type="curve" smooth="yes"/>
      <point x="350" y="305" type="line"/>
      <point x="353" y="355" type="line"/>
      <point x="246" y="456"/>
      <point x="186" y="528"/>
      <point x="186" y="600" type="curve"/>
      <point x="43" y="600" type="line"/>
      <point x="43" y="535"/>
      <point x="87" y="482"/>
    </contour>
    <contour>
      <point x="239" y="0" type="curve"/>
      <point x="265" y="26" type="line"/>
      <point x="296" y="173"/>
      <point x="238" y="269"/>
      <point x="144" y="308" type="curve"/>
      <point x="144" y="298" type="line"/>
      <point x="182" y="333"/>
      <point x="217" y="359"/>
      <point x="252" y="379" type="curve"/>
      <point x="172" y="471" type="line"/>
      <point x="114" y="438"/>
      <point x="58" y="397"/>
      <point x="10" y="352" type="curve"/>
      <point x="26" y="239" type="line"/>
      <point x="160" y="227"/>
      <point x="268" y="138"/>
    </contour>
    <contour>
      <point x="210" y="567" type="line" smooth="yes"/>
      <point x="305" y="567"/>
      <point x="325" y="545"/>
      <point x="350" y="504" type="curve"/>
      <point x="369" y="533" type="line"/>
      <point x="333" y="620"/>
      <point x="261" y="671"/>
      <point x="143" y="671" type="curve" smooth="yes"/>
      <point x="-23" y="671" type="line"/>
      <point x="-7" y="567" type="line"/>
    </contour>
    <contour>
      <point x="303.0" y="0.0" type="move" name="blwm"/>
    </contour>
    <contour>
      <point x="66.0" y="0.0" type="move" name="nukt"/>
    </contour>
    <contour>
      <point x="449.0" y="750.0" type="move" name="reph"/>
    </contour>
    <contour>
      <point x="449.0" y="750.0" type="move" name="chandrabindu"/>
    </contour>
    <contour>
      <point x="303.0" y="0.0" type="move" name="haln"/>
    </contour>
  </outline>
</glyph>
<glyph name="bn_rrikaar" format="1">
  <advance width="0"/>
  <unicode hex="09C4"/>
  <outline>
    <contour>
      <point x="-484" y="-423" type="curve"/>
      <point x="-458" y="-409"/>
      <point x="-423" y="-395"/>
      <point x="-386" y="-388" type="curve"/>
      <point x="-443" y="-324" type="line"/>
      <point x="-493" y="-340"/>
      <point x="-552" y="-362"/>
      <point x="-587" y="-388" type="curve"/>
      <point x="-571" y="-455" type="line"/>
      <point x="-439" y="-498"/>
      <point x="-419" y="-533"/>
      <point x="-380" y="-592" type="curve"/>
      <point x="-359" y="-585"/>
      <point x="-341" y="-570"/>
      <point x="-341" y="-550" type="curve" smooth="yes"/>
      <point x="-341" y="-541"/>
      <point x="-345" y="-531"/>
      <point x="-355" y="-521" type="curve" smooth="yes"/>
      <point x="-403" y="-473"/>
      <point x="-434" y="-452"/>
    </contour>
    <contour>
      <point x="-457" y="-174" type="curve"/>
      <point x="-504" y="-187"/>
      <point x="-553.130644465" y="-213.217544731"/>
      <point x="-587" y="-238" type="curve"/>
      <point x="-571" y="-305" type="line"/>
      <point x="-439" y="-348"/>
      <point x="-419" y="-383"/>
      <point x="-380" y="-442" type="curve"/>
      <point x="-359" y="-435"/>
      <point x="-341" y="-420"/>
      <point x="-341" y="-400" type="curve" smooth="yes"/>
      <point x="-341" y="-391"/>
      <point x="-345" y="-381"/>
      <point x="-355" y="-371" type="curve" smooth="yes"/>
      <point x="-403" y="-323"/>
      <point x="-434" y="-302"/>
      <point x="-484" y="-273" type="curve"/>
      <point x="-454" y="-256"/>
      <point x="-404" y="-239"/>
      <point x="-361" y="-234" type="curve"/>
      <point x="-349" y="-206"/>
      <point x="-336" y="-157"/>
      <point x="-324" y="-100" type="curve" smooth="yes"/>
      <point x="-316" y="-61" type="line"/>
      <point x="-431" y="-61" type="line"/>
      <point x="-439" y="-100" type="line" smooth="yes"/>
      <point x="-443" y="-122"/>
      <point x="-450.89551147" y="-154.669119653"/>
    </contour>
    <contour>
      <point x="-375.0" y="-100.0" type="move" name="_blwm"/>
    </contour>
  </outline>
</glyph>
<glyph name="bn_aikaar" format="1">
  <advance width="323"/>
  <unicode hex="09C8"/>
  <outline>
    <contour>
      <point x="29" y="908" type="curve" smooth="yes"/>
      <point x="29" y="931"/>
      <point x="45" y="953"/>
      <point x="72" y="960" type="curve"/>
      <point x="62" y="984"/>
      <point x="53" y="995"/>
      <point x="31" y="995" type="curve" smooth="yes"/>
      <point x="-5" y="995"/>
      <point x="-31" y="950"/>
      <point x="-31" y="905" type="curve" smooth="yes"/>
      <point x="-31" y="795"/>
      <point x="34" y="726"/>
      <point x="219" y="726" type="curve" smooth="yes"/>
      <point x="250" y="726"/>
      <point x="265" y="718"/>
      <point x="265" y="705" type="curve" smooth="yes"/>
      <point x="265" y="683"/>
      <point x="242" y="669"/>
      <point x="195" y="645" type="curve"/>
      <point x="276" y="639" type="line"/>
      <point x="316" y="666"/>
      <point x="325" y="690"/>
      <point x="325" y="720" type="curve" smooth="yes"/>
      <point x="325" y="802"/>
      <point x="254" y="863"/>
      <point x="85" y="863" type="curve" smooth="yes"/>
      <point x="46" y="863"/>
      <point x="29" y="881"/>
    </contour>
    <contour>
      <point x="28" y="567" type="line" smooth="yes"/>
      <point x="123" y="567"/>
      <point x="143" y="545"/>
      <point x="168" y="504" type="curve"/>
      <point x="187" y="533" type="line"/>
      <point x="152" y="618"/>
      <point x="93" y="671"/>
      <point x="-9" y="671" type="curve" smooth="yes"/>
      <point x="-23" y="671" type="line"/>
      <point x="-7" y="567" type="line"/>
    </contour>
    <contour>
      <point x="159" y="-6" type="curve" smooth="yes"/>
      <point x="228" y="-6"/>
      <point x="275" y="54"/>
      <point x="275" y="102" type="curve" smooth="yes"/>
      <point x="275" y="158"/>
      <point x="240" y="192"/>
      <point x="191" y="192" type="curve" smooth="yes"/>
      <point x="141" y="192"/>
      <point x="110" y="153"/>
      <point x="101" y="107" type="curve" smooth="yes"/>
      <point x="99" y="98"/>
      <point x="97" y="92"/>
      <point x="92" y="92" type="curve" smooth="yes"/>
      <point x="88" y="92"/>
      <point x="84" y="100"/>
      <point x="84" y="119" type="curve" smooth="yes"/>
      <point x="84" y="331"/>
      <point x="189" y="567"/>
      <point x="313" y="567" type="curve" smooth="yes"/>
      <point x="325" y="567" type="line"/>
      <point x="309" y="671" type="line"/>
      <point x="294" y="671" type="line" smooth="yes"/>
      <point x="109" y="671"/>
      <point x="-11" y="422"/>
      <point x="-11" y="251" type="curve" smooth="yes"/>
      <point x="-11" y="100"/>
      <point x="64" y="-6"/>
    </contour>
  </outline>
</glyph>
<glyph name="bn_aukaar" format="1">
  <advance width="1372"/>
  <unicode hex="09CC"/>
  <outline>
    <contour>
      <point x="28" y="567" type="line" smooth="yes"/>
      <point x="123" y="567"/>
      <point x="143" y="545"/>
      <point x="168" y="504" type="curve"/>
      <point x="187" y="533" type="line"/>
      <point x="152" y="618"/>
      <point x="93" y="671"/>
      <point x="-9" y="671" type="curve" smooth="yes"/>
      <point x="-23" y="671" type="line"/>
      <point x="-7" y="567" type="line"/>
    </contour>
    <contour>
      <point x="159" y="-6" type="curve" smooth="yes"/>
      <point x="228" y="-6"/>
      <point x="275" y="54"/>
      <point x="275" y="102" type="curve" smooth="yes"/>
      <point x="275" y="158"/>
      <point x="240" y="192"/>
      <point x="191" y="192" type="curve" smooth="yes"/>
      <point x="141" y="192"/>
      <point x="110" y="153"/>
      <point x="101" y="107" type="curve" smooth="yes"/>
      <point x="99" y="98"/>
      <point x="97" y="92"/>
      <point x="92" y="92" type="curve" smooth="yes"/>
      <point x="88" y="92"/>
      <point x="84" y="100"/>
      <point x="84" y="119" type="curve" smooth="yes"/>
      <point x="84" y="331"/>
      <point x="189" y="567"/>
      <point x="313" y="567" type="curve" smooth="yes"/>
      <point x="325" y="567" type="line"/>
      <point x="309" y="671" type="line"/>
      <point x="294" y="671" type="line" smooth="yes"/>
      <point x="109" y="671"/>
      <point x="-11" y="422"/>
      <point x="-11" y="251" type="curve" smooth="yes"/>
      <point x="-11" y="100"/>
      <point x="64" y="-6"/>
    </contour>
    <contour>
      <point x="693" y="590" type="curve" smooth="yes"/>
      <point x="723" y="590"/>
      <point x="747" y="614"/>
      <point x="747" y="644" type="curve" smooth="yes"/>
      <point x="747" y="673"/>
      <point x="723" y="697"/>
      <point x="693" y="697" type="curve" smooth="yes"/>
      <point x="664" y="697"/>
      <point x="640" y="673"/>
      <point x="640" y="644" type="curve" smooth="yes"/>
      <point x="640" y="614"/>
      <point x="664" y="590"/>
    </contour>
    <contour>
      <point x="393" y="290" type="curve" smooth="yes"/>
      <point x="423" y="290"/>
      <point x="447" y="314"/>
      <point x="447" y="344" type="curve" smooth="yes"/>
      <point x="447" y="373"/>
      <point x="423" y="397"/>
      <point x="393" y="397" type="curve" smooth="yes"/>
      <point x="364" y="397"/>
      <point x="340" y="373"/>
      <point x="340" y="344" type="curve" smooth="yes"/>
      <point x="340" y="314"/>
      <point x="364" y="290"/>
    </contour>
    <contour>
      <point x="543" y="550" type="curve" smooth="yes"/>
      <point x="573" y="550"/>
      <point x="597" y="574"/>
      <point x="597" y="604" type="curve" smooth="yes"/>
      <point x="597" y="633"/>
      <point x="573" y="657"/>
      <point x="543" y="657" type="curve" smooth="yes"/>
      <point x="514" y="657"/>
      <point x="490" y="633"/>
      <point x="490" y="604" type="curve" smooth="yes"/>
      <point x="490" y="574"/>
      <point x="514" y="550"/>
    </contour>
    <contour>
      <point x="433" y="440" type="curve" smooth="yes"/>
      <point x="463" y="440"/>
      <point x="487" y="464"/>
      <point x="487" y="494" type="curve" smooth="yes"/>
      <point x="487" y="523"/>
      <point x="463" y="547"/>
      <point x="433" y="547" type="curve" smooth="yes"/>
      <point x="404" y="547"/>
      <point x="380" y="523"/>
      <point x="380" y="494" type="curve" smooth="yes"/>
      <point x="380" y="464"/>
      <point x="404" y="440"/>
    </contour>
    <contour>
      <point x="844" y="550" type="curve" smooth="yes"/>
      <point x="873" y="550"/>
      <point x="897" y="574"/>
      <point x="897" y="604" type="curve" smooth="yes"/>
      <point x="897" y="633"/>
      <point x="873" y="657"/>
      <point x="844" y="657" type="curve" smooth="yes"/>
      <point x="814" y="657"/>
      <point x="790" y="633"/>
      <point x="790" y="604" type="curve" smooth="yes"/>
      <point x="790" y="574"/>
      <point x="814" y="550"/>
    </contour>
    <contour>
      <point x="954" y="440" type="curve" smooth="yes"/>
      <point x="983" y="440"/>
      <point x="1007" y="464"/>
      <point x="1007" y="494" type="curve" smooth="yes"/>
      <point x="1007" y="523"/>
      <point x="983" y="547"/>
      <point x="954" y="547" type="curve" smooth="yes"/>
      <point x="924" y="547"/>
      <point x="900" y="523"/>
      <point x="900" y="494" type="curve" smooth="yes"/>
      <point x="900" y="464"/>
      <point x="924" y="440"/>
    </contour>
    <contour>
      <point x="693" y="97" type="curve" smooth="yes"/>
      <point x="664" y="97"/>
      <point x="640" y="73"/>
      <point x="640" y="43" type="curve" smooth="yes"/>
      <point x="640" y="14"/>
      <point x="664" y="-10"/>
      <point x="693" y="-10" type="curve" smooth="yes"/>
      <point x="723" y="-10"/>
      <point x="747" y="14"/>
      <point x="747" y="43" type="curve" smooth="yes"/>
      <point x="747" y="73"/>
      <point x="723" y="97"/>
    </contour>
    <contour>
      <point x="993" y="397" type="curve" smooth="yes"/>
      <point x="964" y="397"/>
      <point x="940" y="373"/>
      <point x="940" y="343" type="curve" smooth="yes"/>
      <point x="940" y="314"/>
      <point x="964" y="290"/>
      <point x="993" y="290" type="curve" smooth="yes"/>
      <point x="1023" y="290"/>
      <point x="1047" y="314"/>
      <point x="1047" y="343" type="curve" smooth="yes"/>
      <point x="1047" y="373"/>
      <point x="1023" y="397"/>
    </contour>
    <contour>
      <point x="543" y="137" type="curve" smooth="yes"/>
      <point x="514" y="137"/>
      <point x="490" y="113"/>
      <point x="490" y="83" type="curve" smooth="yes"/>
      <point x="490" y="54"/>
      <point x="514" y="30"/>
      <point x="543" y="30" type="curve" smooth="yes"/>
      <point x="573" y="30"/>
      <point x="597" y="54"/>
      <point x="597" y="83" type="curve" smooth="yes"/>
      <point x="597" y="113"/>
      <point x="573" y="137"/>
    </contour>
    <contour>
      <point x="433" y="247" type="curve" smooth="yes"/>
      <point x="404" y="247"/>
      <point x="380" y="223"/>
      <point x="380" y="193" type="curve" smooth="yes"/>
      <point x="380" y="164"/>
      <point x="404" y="140"/>
      <point x="433" y="140" type="curve" smooth="yes"/>
      <point x="463" y="140"/>
      <point x="487" y="164"/>
      <point x="487" y="193" type="curve" smooth="yes"/>
      <point x="487" y="223"/>
      <point x="463" y="247"/>
    </contour>
    <contour>
      <point x="844" y="137" type="curve" smooth="yes"/>
      <point x="814" y="137"/>
      <point x="790" y="113"/>
      <point x="790" y="83" type="curve" smooth="yes"/>
      <point x="790" y="54"/>
      <point x="814" y="30"/>
      <point x="844" y="30" type="curve" smooth="yes"/>
      <point x="873" y="30"/>
      <point x="897" y="54"/>
      <point x="897" y="83" type="curve" smooth="yes"/>
      <point x="897" y="113"/>
      <point x="873" y="137"/>
    </contour>
    <contour>
      <point x="954" y="247" type="curve" smooth="yes"/>
      <point x="924" y="247"/>
      <point x="900" y="223"/>
      <point x="900" y="193" type="curve" smooth="yes"/>
      <point x="900" y="164"/>
      <point x="924" y="140"/>
      <point x="954" y="140" type="curve" smooth="yes"/>
      <point x="983" y="140"/>
      <point x="1007" y="164"/>
      <point x="1007" y="193" type="curve" smooth="yes"/>
      <point x="1007" y="223"/>
      <point x="983" y="247"/>
    </contour>
    <contour>
      <point x="1083" y="567" type="line"/>
      <point x="1092" y="567" type="line" smooth="yes"/>
      <point x="1148" y="567"/>
      <point x="1173" y="552"/>
      <point x="1188" y="526" type="curve"/>
      <point x="1206" y="540" type="line"/>
      <point x="1192" y="622"/>
      <point x="1154" y="671"/>
      <point x="1077" y="671" type="curve" smooth="yes"/>
      <point x="1067" y="671" type="line"/>
    </contour>
    <contour>
      <point x="1275" y="529" type="line"/>
      <point x="1300" y="554"/>
      <point x="1325" y="567"/>
      <point x="1367" y="567" type="curve" smooth="yes"/>
      <point x="1374" y="567" type="line"/>
      <point x="1358" y="671" type="line"/>
      <point x="1354" y="671" type="line" smooth="yes"/>
      <point x="1312" y="671"/>
      <point x="1278" y="644"/>
      <point x="1269" y="588" type="curve"/>
    </contour>
    <contour>
      <point x="1059" y="928" type="curve" smooth="yes"/>
      <point x="1059" y="951"/>
      <point x="1075" y="973"/>
      <point x="1102" y="980" type="curve"/>
      <point x="1092" y="1004"/>
      <point x="1083" y="1015"/>
      <point x="1061" y="1015" type="curve" smooth="yes"/>
      <point x="1025" y="1015"/>
      <point x="999" y="970"/>
      <point x="999" y="925" type="curve" smooth="yes"/>
      <point x="999" y="815"/>
      <point x="1065" y="746"/>
      <point x="1251" y="746" type="curve" smooth="yes"/>
      <point x="1282" y="746"/>
      <point x="1297" y="735"/>
      <point x="1297" y="715" type="curve" smooth="yes"/>
      <point x="1297" y="671"/>
      <point x="1208" y="658"/>
      <point x="1189" y="570" type="curve" smooth="yes"/>
      <point x="1067" y="0" type="line" smooth="yes"/>
      <point x="1182" y="0" type="line"/>
      <point x="1294" y="532" type="line" smooth="yes"/>
      <point x="1313" y="623"/>
      <point x="1357" y="675"/>
      <point x="1357" y="730" type="curve" smooth="yes"/>
      <point x="1357" y="817"/>
      <point x="1285" y="883"/>
      <point x="1115" y="883" type="curve" smooth="yes"/>
      <point x="1076" y="883"/>
      <point x="1059" y="901"/>
    </contour>
  </outline>
</glyph>
<glyph name="bn_rha" format="1">
  <advance width="505"/>
  <unicode hex="09DD"/>
  <outline>
    <contour>
      <point x="101" y="-208" type="curve" smooth="yes"/>
      <point x="139" y="-208"/>
      <point x="172" y="-177"/>
      <point x="172" y="-137" type="curve" smooth="yes"/>
      <point x="172" y="-99"/>
      <point x="139" y="-66"/>
      <point x="101" y="-66" type="curve" smooth="yes"/>
      <point x="63" y="-66"/>
      <point x="30" y="-99"/>
      <point x="30" y="-137" type="curve" smooth="yes"/>
      <point x="30" y="-177"/>
      <point x="63" y="-208"/>
    </contour>
    <contour>
      <point x="-7" y="567" type="line"/>
      <point x="2" y="567" type="line" smooth="yes"/>
      <point x="52" y="567"/>
      <point x="73" y="551"/>
      <point x="88" y="526" type="curve"/>
      <point x="106" y="540" type="line"/>
      <point x="92" y="622"/>
      <point x="58" y="671"/>
      <point x="-13" y="671" type="curve" smooth="yes"/>
      <point x="-23" y="671" type="line"/>
    </contour>
    <contour>
      <point x="131" y="70" type="curve" smooth="yes"/>
      <point x="111" y="70"/>
      <point x="105" y="95"/>
      <point x="114" y="140" type="curve" smooth="yes"/>
      <point x="175" y="443" type="line" smooth="yes"/>
      <point x="194" y="536"/>
      <point x="225" y="567"/>
      <point x="316" y="567" type="curve" smooth="yes"/>
      <point x="507" y="567" type="line"/>
      <point x="491" y="671" type="line"/>
      <point x="343" y="671" type="line" smooth="yes"/>
      <point x="170" y="671"/>
      <point x="101" y="623"/>
      <point x="64" y="453" type="curve" smooth="yes"/>
      <point x="27" y="282" type="line" smooth="yes"/>
      <point x="-12" y="102"/>
      <point x="65" y="0"/>
      <point x="170" y="0" type="curve" smooth="yes"/>
      <point x="286" y="0"/>
      <point x="422" y="179"/>
      <point x="422" y="298" type="curve" smooth="yes"/>
      <point x="422" y="367"/>
      <point x="377" y="409"/>
      <point x="317" y="409" type="curve" smooth="yes"/>
      <point x="257" y="409"/>
      <point x="215" y="371"/>
      <point x="215" y="312" type="curve" smooth="yes"/>
      <point x="215" y="267"/>
      <point x="251" y="220"/>
      <point x="313" y="220" type="curve"/>
      <point x="291" y="258" type="line"/>
      <point x="265" y="156"/>
      <point x="169" y="70"/>
    </contour>
    <contour>
      <point x="97" y="-233" type="move" name="haln"/>
    </contour>
    <contour>
      <point x="238" y="750" type="move" name="reph"/>
    </contour>
    <contour>
      <point x="238" y="750" type="move" name="chandrabindu"/>
    </contour>
  </outline>
</glyph>
<glyph name="bn_yya" format="1">
  <advance width="524"/>
  <unicode hex="09DF"/>
  <outline>
    <contour>
      <point x="85" y="-8" type="curve" smooth="yes"/>
      <point x="123" y="-8"/>
      <point x="156" y="23"/>
      <point x="156" y="63" type="curve" smooth="yes"/>
      <point x="156" y="101"/>
      <point x="123" y="134"/>
      <point x="85" y="134" type="curve" smooth="yes"/>
      <point x="47" y="134"/>
      <point x="14" y="101"/>
      <point x="14" y="63" type="curve" smooth="yes"/>
      <point x="14" y="23"/>
      <point x="47" y="-8"/>
    </contour>
    <contour>
      <point x="447" y="494" type="line" smooth="yes"/>
      <point x="458" y="546"/>
      <point x="480" y="567"/>
      <point x="510" y="567" type="curve" smooth="yes"/>
      <point x="536" y="567" type="line"/>
      <point x="520" y="671" type="line"/>
      <point x="490" y="671" type="line" smooth="yes"/>
      <point x="407" y="671"/>
      <point x="361" y="617"/>
      <point x="344" y="538" type="curve" smooth="yes"/>
      <point x="230" y="0" type="line" smooth="yes"/>
      <point x="345" y="0" type="line" smooth="yes"/>
    </contour>
    <contour>
      <point x="201" y="567" type="line" smooth="yes"/>
      <point x="296" y="567"/>
      <point x="316" y="545"/>
      <point x="341" y="504" type="curve"/>
      <point x="360" y="533" type="line"/>
      <point x="324" y="620"/>
      <point x="252" y="671"/>
      <point x="134" y="671" type="curve" smooth="yes"/>
      <point x="-23" y="671" type="line"/>
      <point x="-7" y="567" type="line"/>
    </contour>
    <contour>
      <point x="256" y="26" type="line"/>
      <point x="286" y="169"/>
      <point x="232" y="264"/>
      <point x="142" y="305" type="curve"/>
      <point x="183" y="341"/>
      <point x="228" y="369"/>
      <point x="279" y="403" type="curve"/>
      <point x="222" y="464"/>
      <point x="177" y="544"/>
      <point x="177" y="600" type="curve"/>
      <point x="34" y="600" type="line"/>
      <point x="34" y="542"/>
      <point x="91" y="509"/>
      <point x="150" y="465" type="curve"/>
      <point x="104" y="436"/>
      <point x="39" y="388"/>
      <point x="1" y="352" type="curve"/>
      <point x="17" y="239" type="line"/>
      <point x="151" y="227"/>
      <point x="259" y="138"/>
      <point x="230" y="0" type="curve"/>
    </contour>
    <contour>
      <point x="294" y="0" type="move" name="blwm"/>
    </contour>
    <contour>
      <point x="272" y="0" type="move" name="haln"/>
    </contour>
    <contour>
      <point x="390" y="750" type="move" name="reph"/>
    </contour>
    <contour>
      <point x="390" y="750" type="move" name="chandrabindu"/>
    </contour>
  </outline>
</glyph>
<glyph name="bn_rri" format="1">
  <advance width="805"/>
  <unicode hex="09E0"/>
  <outline>
    <contour>
      <point x="259" y="-149" type="curve"/>
      <point x="287" y="-149"/>
      <point x="298" y="-134"/>
      <point x="281" y="-95" type="curve" smooth="yes"/>
      <point x="256" y="-37"/>
      <point x="217" y="1"/>
      <point x="166" y="37" type="curve"/>
      <point x="197" y="64"/>
      <point x="250" y="89"/>
      <point x="280" y="96" type="curve"/>
      <point x="265" y="192" type="line"/>
      <point x="190" y="188"/>
      <point x="90" y="125"/>
      <point x="28" y="74" type="curve"/>
      <point x="39" y="6" type="line"/>
      <point x="44" y="6" type="line" smooth="yes"/>
      <point x="146" y="6"/>
      <point x="240" y="-54"/>
    </contour>
    <contour>
      <point x="529" y="671" type="line"/>
      <point x="414" y="671" type="line"/>
      <point x="270" y="0" type="line" smooth="yes"/>
      <point x="385" y="0" type="line"/>
    </contour>
    <contour>
      <point x="412" y="395" type="curve"/>
      <point x="337" y="291" type="line"/>
      <point x="429" y="291"/>
      <point x="528" y="241"/>
      <point x="528" y="149" type="curve" smooth="yes"/>
      <point x="528" y="136"/>
      <point x="526" y="123"/>
      <point x="521" y="100" type="curve"/>
      <point x="547" y="126" type="line"/>
      <point x="554" y="158"/>
      <point x="557" y="175"/>
      <point x="557" y="191" type="curve" smooth="yes"/>
      <point x="557" y="275"/>
      <point x="504" y="375"/>
    </contour>
    <contour>
      <point x="791" y="671" type="line"/>
      <point x="781" y="671" type="line" smooth="yes"/>
      <point x="724" y="671"/>
      <point x="706" y="704"/>
      <point x="706" y="798" type="curve"/>
      <point x="672" y="798" type="line"/>
      <point x="521" y="100" type="line" smooth="yes"/>
      <point x="636" y="100" type="line"/>
      <point x="746" y="621" type="line"/>
      <point x="757" y="589"/>
      <point x="776" y="567"/>
      <point x="800" y="567" type="curve" smooth="yes"/>
      <point x="807" y="567" type="line"/>
    </contour>
    <contour>
      <point x="327" y="468" type="curve"/>
      <point x="367" y="498" type="line"/>
      <point x="351" y="576"/>
      <point x="298" y="658"/>
      <point x="246" y="681" type="curve"/>
      <point x="230" y="631"/>
      <point x="200" y="600"/>
      <point x="159" y="567" type="curve"/>
      <point x="179" y="556" type="line"/>
      <point x="186" y="639"/>
      <point x="141" y="666"/>
      <point x="99" y="666" type="curve" smooth="yes"/>
      <point x="46" y="666"/>
      <point x="21" y="628"/>
      <point x="21" y="583" type="curve" smooth="yes"/>
      <point x="21" y="523"/>
      <point x="66" y="485"/>
      <point x="130" y="485" type="curve"/>
      <point x="192" y="485"/>
      <point x="235" y="506"/>
      <point x="285" y="556" type="curve"/>
      <point x="303" y="542"/>
      <point x="327" y="502"/>
    </contour>
    <contour>
      <point x="430" y="512" type="line"/>
      <point x="302" y="512"/>
      <point x="142" y="433"/>
      <point x="34" y="338" type="curve"/>
      <point x="57" y="239" type="line"/>
      <point x="191" y="227"/>
      <point x="299" y="138"/>
      <point x="270" y="0" type="curve"/>
      <point x="296" y="26" type="line"/>
      <point x="327" y="173"/>
      <point x="269" y="269"/>
      <point x="175" y="308" type="curve"/>
      <point x="175" y="291" type="line"/>
      <point x="247" y="362"/>
      <point x="374" y="412"/>
      <point x="460" y="412" type="curve"/>
    </contour>
    <contour>
      <point x="681" y="750" type="move" name="chandrabindu"/>
    </contour>
    <contour>
      <point x="681" y="750" type="move" name="reph"/>
    </contour>
    <contour>
      <point x="637" y="41" type="move" name="blwm"/>
    </contour>
    <contour>
      <point x="505" y="41" type="move" name="haln"/>
    </contour>
  </outline>
</glyph>
<glyph name="bn_currency3" format="1">
  <advance width="642"/>
  <unicode hex="09F6"/>
  <outline>
    <contour>
      <point x="210" y="-15" type="curve"/>
      <point x="505" y="-15"/>
      <point x="576" y="416"/>
      <point x="576" y="550" type="curve"/>
      <point x="576" y="595"/>
      <point x="538" y="611"/>
      <point x="511" y="610" type="curve"/>
      <point x="489" y="291"/>
      <point x="322" y="71"/>
      <point x="170" y="71" type="curve"/>
      <point x="145" y="71"/>
      <point x="110" y="85"/>
      <point x="110" y="109" type="curve"/>
      <point x="110" y="171"/>
      <point x="361" y="154"/>
      <point x="361" y="345" type="curve" smooth="yes"/>
      <point x="361" y="451"/>
      <point x="275" y="528"/>
      <point x="164" y="528" type="curve" smooth="yes"/>
      <point x="45" y="528"/>
      <point x="11" y="457"/>
      <point x="11" y="396" type="curve" smooth="yes"/>
      <point x="11" y="335"/>
      <point x="55" y="292"/>
      <point x="117" y="292" type="curve"/>
      <point x="172" y="292"/>
      <point x="217" y="330"/>
      <point x="217" y="390" type="curve" smooth="yes"/>
      <point x="217" y="420"/>
      <point x="200" y="455"/>
      <point x="175" y="467" type="curve"/>
      <point x="169" y="427" type="line"/>
      <point x="190" y="438"/>
      <point x="209" y="442"/>
      <point x="225" y="442" type="curve" smooth="yes"/>
      <point x="261" y="442"/>
      <point x="281" y="417"/>
      <point x="281" y="386" type="curve" smooth="yes"/>
      <point x="281" y="236"/>
      <point x="-2" y="272"/>
      <point x="-2" y="148" type="curve"/>
      <point x="-2" y="71"/>
      <point x="83" y="-15"/>
    </contour>
  </outline>
</glyph>
<glyph name="bn_currency4" format="1">
  <advance width="288"/>
  <unicode hex="09F7"/>
  <outline>
    <contour>
      <point x="87" y="-42" type="line"/>
      <point x="215" y="564" type="line"/>
      <point x="217" y="576"/>
      <point x="218" y="587"/>
      <point x="218" y="597" type="curve" smooth="yes"/>
      <point x="218" y="641"/>
      <point x="197" y="660"/>
      <point x="158" y="660" type="curve" smooth="yes"/>
      <point x="132" y="660"/>
      <point x="115" y="654"/>
      <point x="93" y="639" type="curve"/>
      <point x="103" y="615"/>
      <point x="107" y="589"/>
      <point x="98" y="546" type="curve" smooth="yes"/>
      <point x="-15" y="30" type="line"/>
    </contour>
  </outline>
</glyph>
<glyph name="dagger" format="1">
  <advance width="495"/>
  <unicode hex="2020"/>
  <outline>
    <contour>
      <point x="378" y="750" type="line" name="hr00"/>
      <point x="306" y="750" type="line"/>
      <point x="237" y="428" type="line"/>
      <point x="92" y="428" type="line"/>
      <point x="68" y="316" type="line"/>
      <point x="214" y="316" type="line"/>
      <point x="94" y="-250" type="line"/>
      <point x="166" y="-250" type="line"/>
      <point x="286" y="316" type="line"/>
      <point x="437" y="316" type="line"/>
      <point x="460" y="428" type="line"/>
      <point x="309" y="428" type="line"/>
    </contour>
  </outline>
</glyph>
<glyph name="asa_ba_ukaar" format="1">
  <advance width="678"/>
  <outline>
    <contour>
      <point x="680" y="567" type="line"/>
      <point x="664" y="671" type="line"/>
      <point x="478" y="671" type="line"/>
      <point x="494" y="567" type="line"/>
    </contour>
    <contour>
      <point x="351" y="328" type="line"/>
      <point x="350" y="319"/>
      <point x="349" y="311"/>
      <point x="349" y="303" type="curve" smooth="yes"/>
      <point x="349" y="216"/>
      <point x="421" y="159"/>
      <point x="492" y="159" type="curve" smooth="yes"/>
      <point x="561" y="159"/>
      <point x="628" y="212"/>
      <point x="628" y="343" type="curve" smooth="yes"/>
      <point x="628" y="409"/>
      <point x="590" y="474"/>
      <point x="522" y="474" type="curve" smooth="yes"/>
      <point x="478" y="474"/>
      <point x="440" y="444"/>
      <point x="440" y="395" type="curve" smooth="yes"/>
      <point x="440" y="339"/>
      <point x="479" y="314"/>
      <point x="516" y="314" type="curve" smooth="yes"/>
      <point x="550" y="314"/>
      <point x="587" y="330"/>
      <point x="589" y="367" type="curve"/>
      <point x="573" y="360" type="line"/>
      <point x="576" y="351"/>
      <point x="577" y="343"/>
      <point x="577" y="335" type="curve" smooth="yes"/>
      <point x="577" y="291"/>
      <point x="542" y="251"/>
      <point x="492" y="251" type="curve"/>
      <point x="460" y="251"/>
      <point x="386" y="276"/>
      <point x="380" y="351" type="curve"/>
    </contour>
    <contour>
      <point x="184" y="567" type="line" smooth="yes"/>
      <point x="279" y="567"/>
      <point x="299" y="545"/>
      <point x="324" y="504" type="curve"/>
      <point x="343" y="533" type="line"/>
      <point x="307" y="620"/>
      <point x="235" y="671"/>
      <point x="117" y="671" type="curve" smooth="yes"/>
      <point x="-33" y="671" type="line"/>
      <point x="-17" y="567" type="line"/>
    </contour>
    <contour>
      <point x="431" y="494" type="line" smooth="yes"/>
      <point x="442" y="546"/>
      <point x="464" y="567"/>
      <point x="494" y="567" type="curve" smooth="yes"/>
      <point x="520" y="567" type="line"/>
      <point x="504" y="671" type="line"/>
      <point x="474" y="671" type="line" smooth="yes"/>
      <point x="391" y="671"/>
      <point x="345" y="617"/>
      <point x="328" y="538" type="curve" smooth="yes"/>
      <point x="214" y="0" type="line" smooth="yes"/>
      <point x="329" y="0" type="line" smooth="yes"/>
    </contour>
    <contour>
      <point x="381" y="544" type="line"/>
      <point x="253" y="544"/>
      <point x="97" y="456"/>
      <point x="-15" y="352" type="curve"/>
      <point x="1" y="239" type="line"/>
      <point x="135" y="227"/>
      <point x="243" y="138"/>
      <point x="214" y="0" type="curve"/>
      <point x="240" y="26" type="line"/>
      <point x="271" y="173"/>
      <point x="213" y="269"/>
      <point x="119" y="308" type="curve"/>
      <point x="119" y="298" type="line"/>
      <point x="227" y="399"/>
      <point x="318" y="425"/>
      <point x="404" y="425" type="curve"/>
    </contour>
    <contour>
      <point x="176" y="10" type="line"/>
      <point x="155" y="71"/>
      <point x="99" y="151"/>
      <point x="-1" y="167" type="curve"/>
      <point x="-19" y="85" type="line"/>
      <point x="50" y="76"/>
      <point x="117" y="21"/>
      <point x="144" y="-19" type="curve"/>
    </contour>
    <contour>
      <point x="278" y="0" type="move" name="blwm"/>
    </contour>
    <contour>
      <point x="248" y="0" type="move" name="haln"/>
    </contour>
    <contour>
      <point x="423" y="750" type="move" name="reph"/>
    </contour>
    <contour>
      <point x="423" y="750" type="move" name="chandrabindu"/>
    </contour>
  </outline>
</glyph>
<glyph name="asa_ra_ukaar" format="1">
  <advance width="681"/>
  <outline>
    <contour>
      <point x="683" y="567" type="line"/>
      <point x="667" y="671" type="line"/>
      <point x="478" y="671" type="line"/>
      <point x="494" y="567" type="line"/>
    </contour>
    <contour>
      <point x="351" y="328" type="line"/>
      <point x="350" y="319"/>
      <point x="349" y="311"/>
      <point x="349" y="303" type="curve" smooth="yes"/>
      <point x="349" y="216"/>
      <point x="421" y="159"/>
      <point x="492" y="159" type="curve" smooth="yes"/>
      <point x="561" y="159"/>
      <point x="628" y="212"/>
      <point x="628" y="343" type="curve" smooth="yes"/>
      <point x="628" y="409"/>
      <point x="590" y="474"/>
      <point x="522" y="474" type="curve" smooth="yes"/>
      <point x="478" y="474"/>
      <point x="440" y="444"/>
      <point x="440" y="395" type="curve" smooth="yes"/>
      <point x="440" y="339"/>
      <point x="479" y="314"/>
      <point x="516" y="314" type="curve" smooth="yes"/>
      <point x="550" y="314"/>
      <point x="587" y="330"/>
      <point x="589" y="367" type="curve"/>
      <point x="573" y="360" type="line"/>
      <point x="576" y="351"/>
      <point x="577" y="343"/>
      <point x="577" y="335" type="curve" smooth="yes"/>
      <point x="577" y="291"/>
      <point x="542" y="251"/>
      <point x="492" y="251" type="curve"/>
      <point x="460" y="251"/>
      <point x="386" y="276"/>
      <point x="380" y="351" type="curve"/>
    </contour>
    <contour>
      <point x="279" y="215" type="line"/>
      <point x="279" y="259"/>
      <point x="237" y="341"/>
      <point x="160" y="390" type="curve"/>
      <point x="113" y="345" type="line"/>
      <point x="188" y="327"/>
      <point x="263" y="241"/>
      <point x="263" y="171" type="curve"/>
    </contour>
    <contour>
      <point x="411" y="494" type="line" smooth="yes"/>
      <point x="422" y="546"/>
      <point x="444" y="567"/>
      <point x="474" y="567" type="curve" smooth="yes"/>
      <point x="500" y="567" type="line"/>
      <point x="484" y="671" type="line"/>
      <point x="454" y="671" type="line" smooth="yes"/>
      <point x="371" y="671"/>
      <point x="325" y="617"/>
      <point x="308" y="538" type="curve" smooth="yes"/>
      <point x="194" y="0" type="line" smooth="yes"/>
      <point x="309" y="0" type="line" smooth="yes"/>
    </contour>
    <contour>
      <point x="162" y="567" type="line" smooth="yes"/>
      <point x="256" y="567"/>
      <point x="279" y="545"/>
      <point x="304" y="504" type="curve"/>
      <point x="323" y="533" type="line"/>
      <point x="287" y="620"/>
      <point x="212" y="671"/>
      <point x="95" y="671" type="curve" smooth="yes"/>
      <point x="-23" y="671" type="line"/>
      <point x="-7" y="567" type="line"/>
    </contour>
    <contour>
      <point x="361" y="544" type="line"/>
      <point x="233" y="544"/>
      <point x="77" y="456"/>
      <point x="-35" y="352" type="curve"/>
      <point x="-19" y="239" type="line"/>
      <point x="115" y="227"/>
      <point x="223" y="138"/>
      <point x="194" y="0" type="curve"/>
      <point x="220" y="26" type="line"/>
      <point x="251" y="173"/>
      <point x="193" y="269"/>
      <point x="99" y="308" type="curve"/>
      <point x="99" y="298" type="line"/>
      <point x="207" y="399"/>
      <point x="298" y="425"/>
      <point x="384" y="425" type="curve"/>
    </contour>
    <contour>
      <point x="371" y="750" type="move" name="reph"/>
    </contour>
    <contour>
      <point x="371" y="750" type="move" name="chandrabindu"/>
    </contour>
    <contour>
      <point x="258" y="0" type="move" name="blwm"/>
    </contour>
    <contour>
      <point x="208" y="0" type="move" name="haln"/>
    </contour>
  </outline>
</glyph>
<glyph name="bn_aikaar.init" format="1">
  <advance width="353"/>
  <outline>
    <contour>
      <point x="59" y="908" type="curve" smooth="yes"/>
      <point x="59" y="931"/>
      <point x="75" y="953"/>
      <point x="102" y="960" type="curve"/>
      <point x="92" y="984"/>
      <point x="83" y="995"/>
      <point x="61" y="995" type="curve" smooth="yes"/>
      <point x="25" y="995"/>
      <point x="-1" y="950"/>
      <point x="-1" y="905" type="curve" smooth="yes"/>
      <point x="-1" y="795"/>
      <point x="64" y="726"/>
      <point x="249" y="726" type="curve" smooth="yes"/>
      <point x="280" y="726"/>
      <point x="295" y="718"/>
      <point x="295" y="705" type="curve" smooth="yes"/>
      <point x="295" y="683"/>
      <point x="272" y="669"/>
      <point x="225" y="645" type="curve"/>
      <point x="306" y="639" type="line"/>
      <point x="344" y="666"/>
      <point x="355" y="690"/>
      <point x="355" y="720" type="curve" smooth="yes"/>
      <point x="355" y="802"/>
      <point x="284" y="863"/>
      <point x="115" y="863" type="curve" smooth="yes"/>
      <point x="76" y="863"/>
      <point x="59" y="881"/>
    </contour>
    <contour>
      <point x="189" y="-6" type="curve" smooth="yes"/>
      <point x="258" y="-6"/>
      <point x="305" y="54"/>
      <point x="305" y="102" type="curve" smooth="yes"/>
      <point x="305" y="158"/>
      <point x="270" y="192"/>
      <point x="221" y="192" type="curve" smooth="yes"/>
      <point x="171" y="192"/>
      <point x="140" y="153"/>
      <point x="131" y="107" type="curve" smooth="yes"/>
      <point x="129" y="98"/>
      <point x="127" y="92"/>
      <point x="122" y="92" type="curve" smooth="yes"/>
      <point x="118" y="92"/>
      <point x="114" y="100"/>
      <point x="114" y="119" type="curve" smooth="yes"/>
      <point x="114" y="331"/>
      <point x="220" y="567"/>
      <point x="343" y="567" type="curve" smooth="yes"/>
      <point x="355" y="567" type="line"/>
      <point x="339" y="671" type="line"/>
      <point x="324" y="671" type="line" smooth="yes"/>
      <point x="139" y="671"/>
      <point x="19" y="422"/>
      <point x="19" y="251" type="curve" smooth="yes"/>
      <point x="19" y="100"/>
      <point x="94" y="-6"/>
    </contour>
  </outline>
</glyph>
<glyph name="bn_b_dha" format="1">
  <advance width="665"/>
  <outline>
    <contour>
      <point x="235" y="567" type="line" smooth="yes"/>
      <point x="330" y="567"/>
      <point x="337" y="545"/>
      <point x="362" y="504" type="curve"/>
      <point x="381" y="533" type="line"/>
      <point x="345" y="620"/>
      <point x="286" y="671"/>
      <point x="168" y="671" type="curve" smooth="yes"/>
      <point x="-23" y="671" type="line"/>
      <point x="-7" y="567" type="line"/>
    </contour>
    <contour>
      <point x="340" y="-120" type="line" smooth="yes"/>
      <point x="469" y="494" type="line" smooth="yes"/>
      <point x="480" y="546"/>
      <point x="502" y="567"/>
      <point x="532" y="567" type="curve" smooth="yes"/>
      <point x="667" y="567" type="line"/>
      <point x="651" y="671" type="line"/>
      <point x="512" y="671" type="line" smooth="yes"/>
      <point x="429" y="671"/>
      <point x="383" y="618"/>
      <point x="366" y="538" type="curve" smooth="yes"/>
      <point x="225" y="-120" type="line" smooth="yes"/>
    </contour>
    <contour>
      <point x="250" y="182"/>
      <point x="375" y="235"/>
      <point x="536" y="265" type="curve"/>
      <point x="537" y="314" type="line"/>
      <point x="461" y="199"/>
      <point x="436" y="45"/>
      <point x="426" y="-46" type="curve"/>
      <point x="427" y="-61"/>
      <point x="509" y="-104"/>
      <point x="518" y="-95" type="curve"/>
      <point x="519" y="23"/>
      <point x="549" y="169"/>
      <point x="607" y="271" type="curve"/>
      <point x="550" y="390" type="line"/>
      <point x="376" y="360"/>
      <point x="161" y="287"/>
      <point x="-2" y="159" type="curve"/>
      <point x="16" y="49" type="line"/>
      <point x="149" y="40"/>
      <point x="240" y="-43"/>
      <point x="228" y="-120" type="curve"/>
      <point x="250" y="-93" type="line"/>
      <point x="267" y="12"/>
      <point x="186" y="81"/>
      <point x="130" y="106" type="curve"/>
    </contour>
    <contour>
      <point x="244" y="255" type="line"/>
      <point x="217" y="302"/>
      <point x="179" y="346"/>
      <point x="145" y="359" type="curve"/>
      <point x="192" y="391"/>
      <point x="312" y="438"/>
      <point x="376" y="447" type="curve"/>
      <point x="354" y="548" type="line"/>
      <point x="254" y="534"/>
      <point x="97" y="475"/>
      <point x="24" y="426" type="curve"/>
      <point x="43" y="311" type="line"/>
      <point x="98" y="311"/>
      <point x="157" y="277"/>
      <point x="198" y="228" type="curve"/>
    </contour>
    <contour>
      <point x="289" y="-120" type="move" name="blwm"/>
    </contour>
    <contour>
      <point x="252" y="-120" type="move" name="haln"/>
    </contour>
    <contour>
      <point x="450" y="750" type="move" name="reph"/>
    </contour>
    <contour>
      <point x="450" y="750" type="move" name="chandrabindu"/>
    </contour>
  </outline>
</glyph>
<glyph name="bn_bh_la" format="1">
  <advance width="590"/>
  <outline>
    <contour>
      <point x="203" y="29" type="curve"/>
      <point x="203" y="29"/>
      <point x="243" y="16"/>
      <point x="243" y="16" type="curve"/>
      <point x="247" y="46"/>
      <point x="263" y="79"/>
      <point x="292" y="79" type="curve"/>
      <point x="321" y="79"/>
      <point x="348" y="51"/>
      <point x="332" y="-38" type="curve"/>
      <point x="339" y="-36" type="line"/>
      <point x="371" y="50"/>
      <point x="357" y="186"/>
      <point x="288" y="186" type="curve"/>
      <point x="244" y="186"/>
      <point x="209" y="115"/>
    </contour>
    <contour>
      <point x="203" y="29" type="curve"/>
      <point x="230" y="65" type="line"/>
      <point x="251" y="155"/>
      <point x="193" y="239"/>
      <point x="118" y="237" type="curve"/>
      <point x="38" y="237"/>
      <point x="-13" y="163"/>
      <point x="-13" y="88" type="curve" smooth="yes"/>
      <point x="-13" y="-9"/>
      <point x="60" y="-63"/>
      <point x="105" y="-63" type="curve"/>
      <point x="144" y="-63"/>
      <point x="169" y="-34"/>
      <point x="169" y="2" type="curve"/>
      <point x="169" y="34"/>
      <point x="149" y="61"/>
      <point x="113" y="62" type="curve"/>
      <point x="78" y="61"/>
      <point x="53" y="38"/>
      <point x="53" y="-7" type="curve"/>
      <point x="73" y="-9" type="line"/>
      <point x="57" y="1"/>
      <point x="52" y="25"/>
      <point x="52" y="44" type="curve"/>
      <point x="51" y="92"/>
      <point x="82" y="125"/>
      <point x="123" y="125" type="curve" smooth="yes"/>
      <point x="170" y="125"/>
      <point x="203" y="93"/>
    </contour>
    <contour>
      <point x="592" y="567" type="line"/>
      <point x="576" y="671" type="line"/>
      <point x="-23" y="671" type="line"/>
      <point x="-2" y="567" type="line"/>
    </contour>
    <contour>
      <point x="439" y="-73" type="line"/>
      <point x="500" y="221" type="line" smooth="yes"/>
      <point x="536" y="395"/>
      <point x="433" y="500"/>
      <point x="395" y="538" type="curve"/>
      <point x="342" y="490"/>
      <point x="297" y="404"/>
      <point x="205" y="400" type="curve"/>
      <point x="239" y="380" type="line"/>
      <point x="261" y="467"/>
      <point x="217" y="515"/>
      <point x="146" y="515" type="curve" smooth="yes"/>
      <point x="86" y="515"/>
      <point x="54" y="470"/>
      <point x="54" y="405" type="curve" smooth="yes"/>
      <point x="54" y="334"/>
      <point x="122" y="275"/>
      <point x="211" y="275" type="curve"/>
      <point x="308" y="275"/>
      <point x="370" y="337"/>
      <point x="447" y="420" type="curve"/>
      <point x="417" y="433" type="line"/>
      <point x="424" y="391"/>
      <point x="420" y="370"/>
      <point x="414" y="343" type="curve" smooth="yes"/>
      <point x="324" y="-73" type="line"/>
    </contour>
    <contour>
      <point x="388" y="-73" type="move" name="blwm"/>
    </contour>
    <contour>
      <point x="357" y="-73" type="move" name="haln"/>
    </contour>
    <contour>
      <point x="339" y="750" type="move" name="reph"/>
    </contour>
    <contour>
      <point x="339" y="750" type="move" name="chandrabindu"/>
    </contour>
  </outline>
</glyph>
<glyph name="bn_bh_ra_ukaar" format="1">
  <advance width="866"/>
  <outline>
    <contour>
      <point x="539" y="291" type="line"/>
      <point x="538" y="282"/>
      <point x="537" y="274"/>
      <point x="537" y="266" type="curve" smooth="yes"/>
      <point x="537" y="179"/>
      <point x="599" y="122"/>
      <point x="670" y="122" type="curve" smooth="yes"/>
      <point x="739" y="122"/>
      <point x="806" y="175"/>
      <point x="806" y="306" type="curve" smooth="yes"/>
      <point x="806" y="372"/>
      <point x="768" y="437"/>
      <point x="700" y="437" type="curve" smooth="yes"/>
      <point x="656" y="437"/>
      <point x="618" y="407"/>
      <point x="618" y="358" type="curve" smooth="yes"/>
      <point x="618" y="302"/>
      <point x="657" y="277"/>
      <point x="694" y="277" type="curve" smooth="yes"/>
      <point x="728" y="277"/>
      <point x="765" y="293"/>
      <point x="767" y="330" type="curve"/>
      <point x="751" y="323" type="line"/>
      <point x="754" y="314"/>
      <point x="755" y="306"/>
      <point x="755" y="298" type="curve" smooth="yes"/>
      <point x="755" y="254"/>
      <point x="720" y="214"/>
      <point x="670" y="214" type="curve"/>
      <point x="638" y="214"/>
      <point x="574" y="239"/>
      <point x="568" y="314" type="curve"/>
    </contour>
    <contour>
      <point x="868" y="567" type="line"/>
      <point x="852" y="671" type="line"/>
      <point x="-23" y="671" type="line"/>
      <point x="-2" y="567" type="line"/>
    </contour>
    <contour>
      <point x="509" y="-73" type="line"/>
      <point x="570" y="221" type="line" smooth="yes"/>
      <point x="606" y="395"/>
      <point x="503" y="500"/>
      <point x="465" y="538" type="curve"/>
      <point x="412" y="490"/>
      <point x="367" y="404"/>
      <point x="275" y="400" type="curve"/>
      <point x="309" y="380" type="line"/>
      <point x="331" y="467"/>
      <point x="287" y="515"/>
      <point x="216" y="515" type="curve" smooth="yes"/>
      <point x="156" y="515"/>
      <point x="124" y="470"/>
      <point x="124" y="405" type="curve" smooth="yes"/>
      <point x="124" y="334"/>
      <point x="192" y="275"/>
      <point x="281" y="275" type="curve"/>
      <point x="378" y="275"/>
      <point x="440" y="337"/>
      <point x="517" y="420" type="curve"/>
      <point x="487" y="433" type="line"/>
      <point x="494" y="391"/>
      <point x="490" y="370"/>
      <point x="484" y="343" type="curve" smooth="yes"/>
      <point x="394" y="-73" type="line"/>
    </contour>
    <contour>
      <point x="72" y="248" type="curve"/>
      <point x="72" y="279"/>
      <point x="87" y="307"/>
      <point x="122" y="321" type="curve"/>
      <point x="115" y="341"/>
      <point x="103" y="357"/>
      <point x="78" y="357" type="curve" smooth="yes"/>
      <point x="35" y="357"/>
      <point x="5" y="312"/>
      <point x="5" y="238" type="curve" smooth="yes"/>
      <point x="5" y="112"/>
      <point x="81" y="34"/>
      <point x="226" y="34" type="curve" smooth="yes"/>
      <point x="248" y="34"/>
      <point x="264" y="36"/>
      <point x="288" y="36" type="curve" smooth="yes"/>
      <point x="420" y="36"/>
      <point x="405" y="-23"/>
      <point x="398" y="-73" type="curve"/>
      <point x="417" y="-63" type="line"/>
      <point x="456" y="95"/>
      <point x="370" y="175"/>
      <point x="267" y="175" type="curve" smooth="yes"/>
      <point x="235" y="175"/>
      <point x="219" y="172"/>
      <point x="194" y="172" type="curve" smooth="yes"/>
      <point x="118" y="172"/>
      <point x="72" y="199"/>
    </contour>
    <contour>
      <point x="458" y="-73" type="move" name="blwm"/>
    </contour>
    <contour>
      <point x="430" y="-73" type="move" name="haln"/>
    </contour>
    <contour>
      <point x="508" y="750" type="move" name="reph"/>
    </contour>
    <contour>
      <point x="508" y="750" type="move" name="chandrabindu"/>
    </contour>
  </outline>
</glyph>
<glyph name="bn_c_ra" format="1">
  <advance width="547"/>
  <outline>
    <contour>
      <point x="-7" y="567" type="line"/>
      <point x="32" y="567" type="line"/>
      <point x="91" y="567"/>
      <point x="115" y="551"/>
      <point x="130" y="526" type="curve"/>
      <point x="148" y="540" type="line"/>
      <point x="134" y="622"/>
      <point x="97" y="671"/>
      <point x="17" y="671" type="curve"/>
      <point x="-23" y="671" type="line"/>
    </contour>
    <contour>
      <point x="217" y="443" type="line" smooth="yes"/>
      <point x="239" y="545"/>
      <point x="267" y="567"/>
      <point x="358" y="567" type="curve" smooth="yes"/>
      <point x="549" y="567" type="line"/>
      <point x="533" y="671" type="line"/>
      <point x="385" y="671" type="line" smooth="yes"/>
      <point x="212" y="671"/>
      <point x="143" y="623"/>
      <point x="106" y="453" type="curve" smooth="yes"/>
      <point x="77" y="321" type="line" smooth="yes"/>
      <point x="37" y="141"/>
      <point x="118" y="65"/>
      <point x="234" y="66" type="curve"/>
      <point x="362" y="67"/>
      <point x="469" y="203"/>
      <point x="469" y="307" type="curve"/>
      <point x="469" y="361"/>
      <point x="414" y="438"/>
      <point x="339" y="454" type="curve" smooth="yes"/>
      <point x="268" y="469"/>
      <point x="240" y="481"/>
      <point x="238" y="549" type="curve"/>
      <point x="218" y="507" type="line"/>
      <point x="211" y="318"/>
      <point x="363" y="387"/>
      <point x="363" y="327" type="curve"/>
      <point x="363" y="264"/>
      <point x="258" y="136"/>
      <point x="180" y="136" type="curve" smooth="yes"/>
      <point x="160" y="136"/>
      <point x="158" y="161"/>
      <point x="167" y="206" type="curve" smooth="yes"/>
    </contour>
    <contour>
      <point x="277" y="113" type="line"/>
      <point x="212" y="-182" type="line" smooth="yes"/>
      <point x="307" y="-182" type="line"/>
      <point x="387" y="157" type="line"/>
    </contour>
    <contour>
      <point x="-3" y="85" type="curve" smooth="yes"/>
      <point x="-3" y="111"/>
      <point x="13" y="136"/>
      <point x="35" y="143" type="curve"/>
      <point x="28" y="166"/>
      <point x="19" y="179"/>
      <point x="-9" y="179" type="curve"/>
      <point x="-41" y="179"/>
      <point x="-65" y="130"/>
      <point x="-65" y="71" type="curve"/>
      <point x="-65" y="-37"/>
      <point x="3" y="-99"/>
      <point x="91" y="-99" type="curve"/>
      <point x="196" y="-99"/>
      <point x="231" y="-122"/>
      <point x="217" y="-178" type="curve"/>
      <point x="230" y="-174" type="line"/>
      <point x="273" y="-73"/>
      <point x="195" y="21"/>
      <point x="89" y="29" type="curve" smooth="yes"/>
      <point x="30" y="33"/>
      <point x="-3" y="54"/>
    </contour>
    <contour>
      <point x="342" y="750" type="move" name="reph"/>
    </contour>
    <contour>
      <point x="342" y="750" type="move" name="chandrabindu"/>
    </contour>
    <contour>
      <point x="257" y="-182" type="move" name="blwm"/>
    </contour>
    <contour>
      <point x="235" y="-182" type="move" name="haln"/>
    </contour>
  </outline>
</glyph>
<glyph name="bn_ddh_ra" format="1">
  <advance width="557"/>
  <outline>
    <contour>
      <point x="287" y="140" type="line"/>
      <point x="222" y="-155" type="line" smooth="yes"/>
      <point x="320" y="-155" type="line"/>
      <point x="408" y="258" type="line"/>
    </contour>
    <contour>
      <point x="0" y="103" type="curve" smooth="yes"/>
      <point x="0" y="129"/>
      <point x="14" y="151"/>
      <point x="36" y="158" type="curve"/>
      <point x="29" y="181"/>
      <point x="21" y="194"/>
      <point x="-3" y="194" type="curve"/>
      <point x="-35" y="194"/>
      <point x="-60" y="150"/>
      <point x="-60" y="89" type="curve" smooth="yes"/>
      <point x="-60" y="-13"/>
      <point x="9" y="-54"/>
      <point x="111" y="-54" type="curve" smooth="yes"/>
      <point x="225" y="-54"/>
      <point x="241" y="-95"/>
      <point x="227" y="-151" type="curve"/>
      <point x="245" y="-148" type="line"/>
      <point x="279" y="3"/>
      <point x="191" y="63"/>
      <point x="106" y="63" type="curve" smooth="yes"/>
      <point x="26" y="63"/>
      <point x="0" y="72"/>
    </contour>
    <contour>
      <point x="-7" y="567" type="line"/>
      <point x="54" y="567" type="line" smooth="yes"/>
      <point x="104" y="567"/>
      <point x="125" y="551"/>
      <point x="140" y="526" type="curve"/>
      <point x="158" y="540" type="line"/>
      <point x="144" y="622"/>
      <point x="110" y="671"/>
      <point x="39" y="671" type="curve" smooth="yes"/>
      <point x="-23" y="671" type="line"/>
    </contour>
    <contour>
      <point x="201" y="175" type="curve" smooth="yes"/>
      <point x="181" y="175"/>
      <point x="174" y="200"/>
      <point x="184" y="245" type="curve" smooth="yes"/>
      <point x="227" y="443" type="line" smooth="yes"/>
      <point x="247" y="536"/>
      <point x="277" y="567"/>
      <point x="368" y="567" type="curve" smooth="yes"/>
      <point x="559" y="567" type="line"/>
      <point x="543" y="671" type="line"/>
      <point x="395" y="671" type="line" smooth="yes"/>
      <point x="222" y="671"/>
      <point x="155" y="622"/>
      <point x="116" y="453" type="curve" smooth="yes"/>
      <point x="93" y="352" type="line" smooth="yes"/>
      <point x="52" y="170"/>
      <point x="136" y="105"/>
      <point x="240" y="105" type="curve" smooth="yes"/>
      <point x="356" y="105"/>
      <point x="486" y="249"/>
      <point x="486" y="368" type="curve" smooth="yes"/>
      <point x="486" y="437"/>
      <point x="441" y="479"/>
      <point x="381" y="479" type="curve" smooth="yes"/>
      <point x="321" y="479"/>
      <point x="279" y="441"/>
      <point x="279" y="382" type="curve" smooth="yes"/>
      <point x="279" y="337"/>
      <point x="315" y="290"/>
      <point x="377" y="290" type="curve"/>
      <point x="355" y="328" type="line"/>
      <point x="329" y="226"/>
      <point x="239" y="175"/>
    </contour>
    <contour>
      <point x="271" y="-155" type="move" name="blwm"/>
    </contour>
    <contour>
      <point x="249" y="-155" type="move" name="haln"/>
    </contour>
    <contour>
      <point x="331" y="750" type="move" name="reph"/>
    </contour>
    <contour>
      <point x="331" y="750" type="move" name="chandrabindu"/>
    </contour>
  </outline>
</glyph>
<glyph name="bn_g_dh_ra" format="1">
  <advance width="759"/>
  <outline>
    <contour>
      <point x="745" y="671" type="line"/>
      <point x="597" y="671" type="line" smooth="yes"/>
      <point x="540" y="671"/>
      <point x="522" y="704"/>
      <point x="522" y="798" type="curve"/>
      <point x="488" y="798" type="line"/>
      <point x="241" y="-349" type="line" smooth="yes"/>
      <point x="356" y="-349" type="line"/>
      <point x="562" y="621" type="line"/>
      <point x="573" y="589"/>
      <point x="592" y="567"/>
      <point x="616" y="567" type="curve" smooth="yes"/>
      <point x="761" y="567" type="line"/>
    </contour>
    <contour>
      <point x="279" y="102"/>
      <point x="447" y="164"/>
      <point x="603" y="185" type="curve"/>
      <point x="607" y="241" type="line"/>
      <point x="518" y="124"/>
      <point x="478" y="-97"/>
      <point x="481" y="-186" type="curve" smooth="yes"/>
      <point x="482" y="-201"/>
      <point x="564" y="-244"/>
      <point x="573" y="-235" type="curve"/>
      <point x="560" y="-97"/>
      <point x="608" y="112"/>
      <point x="677" y="198" type="curve"/>
      <point x="620" y="317" type="line"/>
      <point x="454" y="287"/>
      <point x="185" y="210"/>
      <point x="20" y="93" type="curve"/>
      <point x="38" y="-17" type="line"/>
      <point x="195" y="-27"/>
      <point x="262" y="-161"/>
      <point x="269" y="-233" type="curve"/>
      <point x="291" y="-206" type="line"/>
      <point x="302" y="-102"/>
      <point x="218" y="10"/>
      <point x="162" y="35" type="curve"/>
    </contour>
    <contour>
      <point x="-46" y="-61" type="curve" smooth="yes"/>
      <point x="-46" y="-32"/>
      <point x="-33" y="-4"/>
      <point x="2" y="10" type="curve"/>
      <point x="-5" y="33"/>
      <point x="-17" y="46"/>
      <point x="-45" y="46" type="curve"/>
      <point x="-77" y="46"/>
      <point x="-103" y="-3"/>
      <point x="-103" y="-72" type="curve" smooth="yes"/>
      <point x="-103" y="-205"/>
      <point x="-28" y="-271"/>
      <point x="135" y="-271" type="curve" smooth="yes"/>
      <point x="216" y="-271"/>
      <point x="259" y="-300"/>
      <point x="244" y="-342" type="curve"/>
      <point x="261" y="-339" type="line"/>
      <point x="291" y="-192"/>
      <point x="172" y="-143"/>
      <point x="79" y="-143" type="curve" smooth="yes"/>
      <point x="2" y="-143"/>
      <point x="-46" y="-134"/>
    </contour>
    <contour>
      <point x="229" y="691" type="curve" smooth="yes"/>
      <point x="112" y="691"/>
      <point x="11" y="597"/>
      <point x="11" y="461" type="curve" smooth="yes"/>
      <point x="11" y="408"/>
      <point x="39" y="377"/>
      <point x="81" y="377" type="curve" smooth="yes"/>
      <point x="127" y="377"/>
      <point x="172" y="437"/>
      <point x="234" y="437" type="curve" smooth="yes"/>
      <point x="260" y="437"/>
      <point x="272" y="427"/>
      <point x="272" y="409" type="curve" smooth="yes"/>
      <point x="272" y="369"/>
      <point x="175" y="315"/>
      <point x="80" y="319" type="curve"/>
      <point x="80" y="264"/>
      <point x="113" y="228"/>
      <point x="160" y="228" type="curve" smooth="yes"/>
      <point x="227" y="228"/>
      <point x="337" y="278"/>
      <point x="337" y="382" type="curve" smooth="yes"/>
      <point x="337" y="461"/>
      <point x="281" y="515"/>
      <point x="213" y="515" type="curve" smooth="yes"/>
      <point x="183" y="515"/>
      <point x="152" y="505"/>
      <point x="122" y="483" type="curve"/>
      <point x="149" y="462" type="line"/>
      <point x="162" y="540"/>
      <point x="200" y="590"/>
      <point x="272" y="590" type="curve" smooth="yes"/>
      <point x="352" y="590"/>
      <point x="428" y="523"/>
      <point x="394" y="362" type="curve"/>
      <point x="433" y="389" type="line"/>
      <point x="476" y="577"/>
      <point x="360" y="691"/>
    </contour>
    <contour>
      <point x="305" y="-349" type="move" name="blwm"/>
    </contour>
    <contour>
      <point x="380.0" y="0.0" type="move" name="blwm"/>
    </contour>
    <contour>
      <point x="276" y="-349" type="move" name="haln"/>
    </contour>
    <contour>
      <point x="497" y="750" type="move" name="reph"/>
    </contour>
    <contour>
      <point x="497" y="750" type="move" name="chandrabindu"/>
    </contour>
  </outline>
</glyph>
<glyph name="bn_g_ma" format="1">
  <advance width="847"/>
  <outline>
    <contour>
      <point x="657" y="538" type="curve"/>
      <point x="528" y="-73" type="line" smooth="yes"/>
      <point x="643" y="-73" type="line"/>
      <point x="775" y="567" type="line"/>
      <point x="849" y="567" type="line"/>
      <point x="833" y="671" type="line"/>
      <point x="803" y="671" type="line" smooth="yes"/>
      <point x="720" y="671"/>
      <point x="674" y="617"/>
    </contour>
    <contour>
      <point x="221" y="691" type="curve" smooth="yes"/>
      <point x="115" y="691"/>
      <point x="11" y="594"/>
      <point x="11" y="475" type="curve" smooth="yes"/>
      <point x="11" y="422"/>
      <point x="39" y="391"/>
      <point x="81" y="391" type="curve" smooth="yes"/>
      <point x="127" y="391"/>
      <point x="172" y="431"/>
      <point x="234" y="431" type="curve" smooth="yes"/>
      <point x="260" y="431"/>
      <point x="272" y="421"/>
      <point x="272" y="403" type="curve" smooth="yes"/>
      <point x="272" y="373"/>
      <point x="200" y="318"/>
      <point x="108" y="310" type="curve"/>
      <point x="108" y="255"/>
      <point x="141" y="219"/>
      <point x="188" y="219" type="curve" smooth="yes"/>
      <point x="257" y="219"/>
      <point x="337" y="304"/>
      <point x="337" y="391" type="curve" smooth="yes"/>
      <point x="337" y="469"/>
      <point x="292" y="529"/>
      <point x="211" y="529" type="curve" smooth="yes"/>
      <point x="180" y="529"/>
      <point x="152" y="520"/>
      <point x="134" y="504" type="curve"/>
      <point x="149" y="493" type="line"/>
      <point x="159" y="555"/>
      <point x="204" y="591"/>
      <point x="264" y="591" type="curve" smooth="yes"/>
      <point x="338" y="591"/>
      <point x="440" y="519"/>
      <point x="393" y="227" type="curve"/>
      <point x="435" y="389" type="line"/>
      <point x="478" y="577"/>
      <point x="352" y="691"/>
    </contour>
    <contour>
      <point x="562" y="602" type="line"/>
      <point x="571" y="578"/>
      <point x="597" y="567"/>
      <point x="621" y="567" type="curve" smooth="yes"/>
      <point x="767" y="567" type="line"/>
      <point x="813" y="671" type="line"/>
      <point x="593" y="671" type="line" smooth="yes"/>
      <point x="538" y="671"/>
      <point x="527" y="702"/>
      <point x="527" y="798" type="curve"/>
      <point x="493" y="798" type="line"/>
      <point x="368" y="196" type="line" smooth="yes"/>
      <point x="449" y="176" type="line"/>
    </contour>
    <contour>
      <point x="554" y="-47" type="line"/>
      <point x="590" y="117"/>
      <point x="478" y="270"/>
      <point x="396" y="270" type="curve" smooth="yes"/>
      <point x="336" y="270"/>
      <point x="302" y="233"/>
      <point x="302" y="177" type="curve" smooth="yes"/>
      <point x="302" y="118"/>
      <point x="347" y="86"/>
      <point x="396" y="86" type="curve" smooth="yes"/>
      <point x="421" y="86"/>
      <point x="450" y="99"/>
      <point x="466" y="129" type="curve"/>
      <point x="492" y="122"/>
      <point x="553" y="51"/>
      <point x="528" y="-73" type="curve"/>
    </contour>
    <contour>
      <point x="592" y="-73" type="move" name="blwm"/>
    </contour>
    <contour>
      <point x="556" y="-73" type="move" name="haln"/>
    </contour>
    <contour>
      <point x="502" y="750" type="move" name="reph"/>
    </contour>
    <contour>
      <point x="502" y="750" type="move" name="chandrabindu"/>
    </contour>
  </outline>
</glyph>
<glyph name="bn_h_nna" format="1">
  <advance width="633"/>
  <outline>
    <contour>
      <point x="319" y="-93" type="curve"/>
      <point x="344" y="-93"/>
      <point x="369" y="-82"/>
      <point x="369" y="-53" type="curve" smooth="yes"/>
      <point x="369" y="-9"/>
      <point x="293" y="67"/>
      <point x="195" y="125" type="curve"/>
      <point x="379" y="192"/>
      <point x="359" y="339"/>
      <point x="448" y="339" type="curve" smooth="yes"/>
      <point x="483" y="339"/>
      <point x="516" y="316"/>
      <point x="516" y="267" type="curve" smooth="yes"/>
      <point x="516" y="260"/>
      <point x="515" y="254"/>
      <point x="514" y="247" type="curve"/>
      <point x="501" y="261"/>
      <point x="484" y="273"/>
      <point x="458" y="273" type="curve" smooth="yes"/>
      <point x="409" y="273"/>
      <point x="387" y="238"/>
      <point x="387" y="203" type="curve" smooth="yes"/>
      <point x="387" y="155"/>
      <point x="425" y="133"/>
      <point x="466" y="133" type="curve" smooth="yes"/>
      <point x="536" y="133"/>
      <point x="572" y="224"/>
      <point x="572" y="291" type="curve"/>
      <point x="572" y="362"/>
      <point x="534" y="431"/>
      <point x="465" y="431" type="curve"/>
      <point x="424" y="431"/>
      <point x="395" y="405"/>
      <point x="370" y="367" type="curve"/>
      <point x="361" y="460"/>
      <point x="293" y="520"/>
      <point x="210" y="520" type="curve" smooth="yes"/>
      <point x="87" y="520"/>
      <point x="29" y="440"/>
      <point x="29" y="373" type="curve" smooth="yes"/>
      <point x="29" y="317"/>
      <point x="64" y="284"/>
      <point x="107" y="284" type="curve" smooth="yes"/>
      <point x="168" y="284"/>
      <point x="215" y="329"/>
      <point x="215" y="384" type="curve" smooth="yes"/>
      <point x="215" y="409"/>
      <point x="204" y="427"/>
      <point x="185" y="442" type="curve"/>
      <point x="199" y="448"/>
      <point x="214" y="451"/>
      <point x="227" y="451" type="curve" smooth="yes"/>
      <point x="273" y="451"/>
      <point x="291" y="424"/>
      <point x="291" y="382" type="curve" smooth="yes"/>
      <point x="291" y="297"/>
      <point x="213" y="193"/>
      <point x="-18" y="213" type="curve"/>
      <point x="0" y="91" type="line"/>
      <point x="168" y="75"/>
      <point x="278" y="7"/>
    </contour>
    <contour>
      <point x="635" y="567" type="line"/>
      <point x="619" y="671" type="line"/>
      <point x="-23" y="671" type="line"/>
      <point x="-7" y="567" type="line"/>
    </contour>
    <contour>
      <point x="118" y="0" type="move" name="haln"/>
    </contour>
    <contour>
      <point x="312" y="750" type="move" name="reph"/>
    </contour>
    <contour>
      <point x="312" y="750" type="move" name="chandrabindu"/>
    </contour>
  </outline>
</glyph>
<glyph name="bn_h_ra" format="1">
  <advance width="480"/>
  <outline>
    <contour>
      <point x="482" y="567" type="line"/>
      <point x="466" y="671" type="line"/>
      <point x="-23" y="671" type="line"/>
      <point x="-7" y="567" type="line"/>
    </contour>
    <contour>
      <point x="171" y="404" type="line"/>
      <point x="190" y="433"/>
      <point x="229" y="451"/>
      <point x="260" y="451" type="curve" smooth="yes"/>
      <point x="306" y="451"/>
      <point x="324" y="424"/>
      <point x="324" y="382" type="curve" smooth="yes"/>
      <point x="324" y="297"/>
      <point x="246" y="193"/>
      <point x="15" y="213" type="curve"/>
      <point x="33" y="91" type="line"/>
      <point x="201" y="75"/>
      <point x="311" y="7"/>
      <point x="352" y="-93" type="curve"/>
      <point x="377" y="-93"/>
      <point x="402" y="-82"/>
      <point x="402" y="-53" type="curve" smooth="yes"/>
      <point x="402" y="-6"/>
      <point x="315" y="78"/>
      <point x="206" y="137" type="curve"/>
      <point x="180" y="111" type="line"/>
      <point x="314" y="141"/>
      <point x="404" y="224"/>
      <point x="404" y="346" type="curve" smooth="yes"/>
      <point x="404" y="451"/>
      <point x="332" y="520"/>
      <point x="243" y="520" type="curve" smooth="yes"/>
      <point x="120" y="520"/>
      <point x="62" y="440"/>
      <point x="62" y="373" type="curve" smooth="yes"/>
      <point x="62" y="317"/>
      <point x="97" y="284"/>
      <point x="140" y="284" type="curve" smooth="yes"/>
      <point x="201" y="284"/>
      <point x="248" y="329"/>
      <point x="248" y="384" type="curve" smooth="yes"/>
      <point x="248" y="416"/>
      <point x="230" y="437"/>
      <point x="200" y="453" type="curve"/>
    </contour>
    <contour>
      <point x="237" y="59" type="line"/>
      <point x="178" y="-215" type="line" smooth="yes"/>
      <point x="265" y="-215" type="line" smooth="yes"/>
      <point x="308" y="-5" type="line"/>
    </contour>
    <contour>
      <point x="-6.0" y="-2.0" type="curve" smooth="yes"/>
      <point x="-6.0" y="16.0"/>
      <point x="1.0" y="32.0"/>
      <point x="22.0" y="42.0" type="curve"/>
      <point x="16.0" y="61.0"/>
      <point x="8.0" y="71.0"/>
      <point x="-13.0" y="71.0" type="curve" smooth="yes"/>
      <point x="-45.0" y="71.0"/>
      <point x="-61.0" y="38.0"/>
      <point x="-61.0" y="-14.0" type="curve"/>
      <point x="-61.0" y="-79.0"/>
      <point x="-27" y="-152"/>
      <point x="68.0" y="-152.0" type="curve" smooth="yes"/>
      <point x="87" y="-152"/>
      <point x="100" y="-151"/>
      <point x="112.0" y="-151.0" type="curve" smooth="yes"/>
      <point x="175" y="-151"/>
      <point x="192.0" y="-170.0"/>
      <point x="184.0" y="-210.0" type="curve"/>
      <point x="202.0" y="-201.0" type="line"/>
      <point x="205.0" y="-187.0"/>
      <point x="210.0" y="-173.0"/>
      <point x="208.0" y="-159.0" type="curve"/>
      <point x="198.0" y="-66.0"/>
      <point x="157" y="-33"/>
      <point x="95.0" y="-33.0" type="curve" smooth="yes"/>
      <point x="83" y="-33"/>
      <point x="70" y="-35"/>
      <point x="56.0" y="-35.0" type="curve" smooth="yes"/>
      <point x="19" y="-35"/>
      <point x="-6.0" y="-24.0"/>
    </contour>
    <contour>
      <point x="214" y="-215" type="move" name="blwm"/>
    </contour>
    <contour>
      <point x="184" y="-215" type="move" name="haln"/>
    </contour>
    <contour>
      <point x="280" y="750" type="move" name="reph"/>
    </contour>
    <contour>
      <point x="280" y="750" type="move" name="chandrabindu"/>
    </contour>
  </outline>
</glyph>
<glyph name="bn_h_yya" format="1">
  <advance width="661"/>
  <outline>
    <contour>
      <point x="147" y="404" type="line"/>
      <point x="166" y="433"/>
      <point x="205" y="451"/>
      <point x="236" y="451" type="curve" smooth="yes"/>
      <point x="282" y="451"/>
      <point x="300" y="424"/>
      <point x="300" y="382" type="curve" smooth="yes"/>
      <point x="300" y="297"/>
      <point x="222" y="193"/>
      <point x="-9" y="213" type="curve"/>
      <point x="9" y="91" type="line"/>
      <point x="177" y="75"/>
      <point x="302" y="-5"/>
      <point x="343" y="-105" type="curve"/>
      <point x="368" y="-105"/>
      <point x="393" y="-94"/>
      <point x="393" y="-65" type="curve" smooth="yes"/>
      <point x="393" y="-18"/>
      <point x="291" y="78"/>
      <point x="182" y="137" type="curve"/>
      <point x="156" y="111" type="line"/>
      <point x="290" y="141"/>
      <point x="380" y="224"/>
      <point x="380" y="346" type="curve" smooth="yes"/>
      <point x="380" y="451"/>
      <point x="308" y="520"/>
      <point x="219" y="520" type="curve" smooth="yes"/>
      <point x="96" y="520"/>
      <point x="38" y="440"/>
      <point x="38" y="373" type="curve" smooth="yes"/>
      <point x="38" y="317"/>
      <point x="73" y="284"/>
      <point x="116" y="284" type="curve" smooth="yes"/>
      <point x="177" y="284"/>
      <point x="224" y="329"/>
      <point x="224" y="384" type="curve" smooth="yes"/>
      <point x="224" y="416"/>
      <point x="206" y="437"/>
      <point x="176" y="453" type="curve"/>
    </contour>
    <contour>
      <point x="469" y="538" type="curve"/>
      <point x="488" y="567" type="line"/>
      <point x="461" y="633"/>
      <point x="429" y="671"/>
      <point x="364" y="671" type="curve" smooth="yes"/>
      <point x="-23" y="671" type="line"/>
      <point x="-7" y="567" type="line"/>
      <point x="384" y="567" type="line" smooth="yes"/>
      <point x="442" y="567"/>
      <point x="456" y="560"/>
    </contour>
    <contour>
      <point x="488" y="-41"/>
      <point x="573" y="84"/>
      <point x="573" y="218" type="curve"/>
      <point x="573" y="332"/>
      <point x="517" y="416"/>
      <point x="517" y="501" type="curve" smooth="yes"/>
      <point x="517" y="541"/>
      <point x="542" y="567"/>
      <point x="588" y="567" type="curve" smooth="yes"/>
      <point x="663" y="567" type="line"/>
      <point x="647" y="671" type="line"/>
      <point x="642" y="671" type="line" smooth="yes"/>
      <point x="507" y="671"/>
      <point x="420" y="543"/>
      <point x="420" y="395" type="curve" smooth="yes"/>
      <point x="420" y="283"/>
      <point x="483" y="211"/>
      <point x="483" y="124" type="curve" smooth="yes"/>
      <point x="483" y="44"/>
      <point x="396" y="27"/>
      <point x="294" y="27" type="curve"/>
      <point x="294" y="-20"/>
      <point x="324" y="-41"/>
      <point x="366" y="-41" type="curve" smooth="yes"/>
    </contour>
    <contour>
      <point x="230" y="-18" type="move" name="blwm"/>
    </contour>
    <contour>
      <point x="138" y="-17" type="move" name="haln"/>
    </contour>
    <contour>
      <point x="462" y="750" type="move" name="reph"/>
    </contour>
    <contour>
      <point x="462" y="750" type="move" name="chandrabindu"/>
    </contour>
  </outline>
</glyph>
<glyph name="bn_k_la" format="1">
  <advance width="757"/>
  <outline>
    <contour>
      <point x="487" y="443" type="line" smooth="yes"/>
      <point x="506" y="536"/>
      <point x="536" y="567"/>
      <point x="628" y="567" type="curve" smooth="yes"/>
      <point x="759" y="567" type="line"/>
      <point x="743" y="671" type="line"/>
      <point x="655" y="671" type="line" smooth="yes"/>
      <point x="482" y="671"/>
      <point x="415" y="624"/>
      <point x="379" y="453" type="curve" smooth="yes"/>
      <point x="257" y="-125" type="line" smooth="yes"/>
      <point x="372" y="-125" type="line" smooth="yes"/>
    </contour>
    <contour>
      <point x="294" y="1" type="curve"/>
      <point x="309" y="26" type="line"/>
      <point x="340" y="173"/>
      <point x="270" y="277"/>
      <point x="177" y="316" type="curve"/>
      <point x="177" y="306" type="line"/>
      <point x="285" y="407"/>
      <point x="389" y="425"/>
      <point x="475" y="425" type="curve" smooth="yes"/>
      <point x="555" y="425"/>
      <point x="612" y="370"/>
      <point x="612" y="287" type="curve" smooth="yes"/>
      <point x="612" y="278"/>
      <point x="606" y="261"/>
      <point x="592" y="238" type="curve"/>
      <point x="638" y="250" type="line"/>
      <point x="623" y="287"/>
      <point x="596" y="300"/>
      <point x="561" y="300" type="curve" smooth="yes"/>
      <point x="502" y="300"/>
      <point x="470" y="256"/>
      <point x="470" y="207" type="curve" smooth="yes"/>
      <point x="470" y="153"/>
      <point x="511" y="118"/>
      <point x="563" y="118" type="curve" smooth="yes"/>
      <point x="635" y="118"/>
      <point x="684" y="188"/>
      <point x="684" y="287" type="curve" smooth="yes"/>
      <point x="684" y="397"/>
      <point x="591" y="544"/>
      <point x="452" y="544" type="curve" smooth="yes"/>
      <point x="324" y="544"/>
      <point x="155" y="464"/>
      <point x="43" y="360" type="curve"/>
      <point x="59" y="247" type="line"/>
      <point x="192" y="235"/>
      <point x="323" y="139"/>
    </contour>
    <contour>
      <point x="251" y="567" type="line" smooth="yes"/>
      <point x="345" y="567"/>
      <point x="368" y="545"/>
      <point x="393" y="504" type="curve"/>
      <point x="412" y="533" type="line"/>
      <point x="376" y="620"/>
      <point x="301" y="671"/>
      <point x="184" y="671" type="curve" smooth="yes"/>
      <point x="-23" y="671" type="line"/>
      <point x="-7" y="567" type="line"/>
    </contour>
    <contour>
      <point x="159" y="-38" type="curve"/>
      <point x="159" y="-38"/>
      <point x="199.0" y="-51.0"/>
      <point x="199" y="-51" type="curve"/>
      <point x="202.996592435" y="-21.0255567373"/>
      <point x="213.25" y="6.0"/>
      <point x="237" y="6" type="curve"/>
      <point x="266" y="6"/>
      <point x="282" y="-16"/>
      <point x="266" y="-105" type="curve"/>
      <point x="273" y="-103" type="line"/>
      <point x="304.83404425" y="-17.4460060769"/>
      <point x="295.0" y="102.0"/>
      <point x="229" y="102" type="curve"/>
      <point x="185" y="102"/>
      <point x="165" y="48"/>
    </contour>
    <contour>
      <point x="159" y="-38" type="curve"/>
      <point x="175" y="-11" type="line"/>
      <point x="196" y="79"/>
      <point x="145" y="154"/>
      <point x="69" y="154" type="curve"/>
      <point x="-9" y="154"/>
      <point x="-55" y="86"/>
      <point x="-55" y="11" type="curve" smooth="yes"/>
      <point x="-55" y="-86"/>
      <point x="16" y="-130"/>
      <point x="61" y="-130" type="curve"/>
      <point x="100" y="-130"/>
      <point x="125" y="-101"/>
      <point x="125" y="-65" type="curve"/>
      <point x="125" y="-33"/>
      <point x="105" y="-6"/>
      <point x="69" y="-5" type="curve"/>
      <point x="34" y="-6"/>
      <point x="9" y="-29"/>
      <point x="9" y="-74" type="curve"/>
      <point x="33" y="-80" type="line"/>
      <point x="17" y="-70"/>
      <point x="12" y="-46"/>
      <point x="12" y="-27" type="curve"/>
      <point x="11" y="21"/>
      <point x="37" y="53"/>
      <point x="78" y="53" type="curve" smooth="yes"/>
      <point x="117" y="53"/>
      <point x="159" y="26"/>
    </contour>
    <contour>
      <point x="321" y="-125" type="move" name="blwm"/>
    </contour>
    <contour>
      <point x="297" y="-125" type="move" name="haln"/>
    </contour>
    <contour>
      <point x="469" y="750" type="move" name="reph"/>
    </contour>
    <contour>
      <point x="469" y="750" type="move" name="chandrabindu"/>
    </contour>
  </outline>
</glyph>
<glyph name="bn_k_ra.alt01" format="1">
  <advance width="784.0"/>
  <outline>
    <contour>
      <point x="514" y="443" type="line" smooth="yes"/>
      <point x="533" y="536"/>
      <point x="563" y="567"/>
      <point x="655" y="567" type="curve" smooth="yes"/>
      <point x="786" y="567" type="line"/>
      <point x="770" y="671" type="line"/>
      <point x="682" y="671" type="line" smooth="yes"/>
      <point x="509" y="671"/>
      <point x="442" y="624"/>
      <point x="406" y="453" type="curve" smooth="yes"/>
      <point x="276" y="-162" type="line" smooth="yes"/>
      <point x="391" y="-162" type="line" smooth="yes"/>
    </contour>
    <contour>
      <point x="310" y="0" type="curve"/>
      <point x="336" y="26" type="line"/>
      <point x="366.978355594" y="172.897363625"/>
      <point x="309.676087616" y="269.549282798"/>
      <point x="217" y="308" type="curve"/>
      <point x="217" y="298" type="line"/>
      <point x="325" y="399"/>
      <point x="416" y="425"/>
      <point x="502" y="425" type="curve" smooth="yes"/>
      <point x="582" y="425"/>
      <point x="639" y="370"/>
      <point x="639" y="287" type="curve" smooth="yes"/>
      <point x="639" y="278"/>
      <point x="633" y="261"/>
      <point x="619" y="238" type="curve"/>
      <point x="665" y="250" type="line"/>
      <point x="650" y="287"/>
      <point x="623" y="300"/>
      <point x="588" y="300" type="curve" smooth="yes"/>
      <point x="529" y="300"/>
      <point x="497" y="256"/>
      <point x="497" y="207" type="curve" smooth="yes"/>
      <point x="497" y="153"/>
      <point x="538" y="118"/>
      <point x="590" y="118" type="curve" smooth="yes"/>
      <point x="662" y="118"/>
      <point x="711" y="188"/>
      <point x="711" y="287" type="curve" smooth="yes"/>
      <point x="711" y="397"/>
      <point x="618" y="544"/>
      <point x="479" y="544" type="curve" smooth="yes"/>
      <point x="351" y="544"/>
      <point x="195" y="456"/>
      <point x="83" y="352" type="curve"/>
      <point x="99" y="239" type="line"/>
      <point x="231.751841214" y="227.111775414"/>
      <point x="338.988535347" y="137.945444067"/>
    </contour>
    <contour>
      <point x="278" y="567" type="line" smooth="yes"/>
      <point x="372" y="567"/>
      <point x="395" y="545"/>
      <point x="420" y="504" type="curve"/>
      <point x="439" y="533" type="line"/>
      <point x="403" y="620"/>
      <point x="328" y="671"/>
      <point x="211" y="671" type="curve" smooth="yes"/>
      <point x="-23" y="671" type="line"/>
      <point x="-7" y="567" type="line"/>
    </contour>
    <contour>
      <point x="269.010372188" y="200.943258029"/>
      <point x="5.0" y="28.0"/>
      <point x="5" y="160" type="curve" smooth="yes"/>
      <point x="5" y="202"/>
      <point x="30" y="237"/>
      <point x="59" y="254" type="curve"/>
      <point x="52" y="277"/>
      <point x="40" y="290"/>
      <point x="15" y="290" type="curve" smooth="yes"/>
      <point x="-22" y="290"/>
      <point x="-48" y="260"/>
      <point x="-52" y="173" type="curve" smooth="yes"/>
      <point x="-57" y="59"/>
      <point x="12" y="-43"/>
      <point x="155" y="-43" type="curve"/>
      <point x="295.957142857" y="-43.0"/>
      <point x="282.006684675" y="-99.0316002826"/>
      <point x="293" y="-151" type="curve"/>
      <point x="312" y="-141" type="line"/>
      <point x="316" y="-123"/>
      <point x="323" y="-95"/>
      <point x="320" y="-78" type="curve" smooth="yes"/>
    </contour>
    <contour>
      <point x="340" y="-162" type="move" name="blwm"/>
    </contour>
    <contour>
      <point x="308" y="-162" type="move" name="haln"/>
    </contour>
    <contour>
      <point x="485" y="750" type="move" name="reph"/>
    </contour>
    <contour>
      <point x="485" y="750" type="move" name="chandrabindu"/>
    </contour>
  </outline>
</glyph>
<glyph name="bn_k_ss_nna" format="1">
  <advance width="866"/>
  <outline>
    <contour>
      <point x="212" y="12" type="line"/>
      <point x="335" y="0"/>
      <point x="378" y="-98"/>
      <point x="362" y="-170" type="curve"/>
      <point x="397" y="-144" type="line"/>
      <point x="422" y="-27"/>
      <point x="332" y="82"/>
      <point x="212" y="82" type="curve" smooth="yes"/>
      <point x="145" y="82"/>
      <point x="101" y="36"/>
      <point x="101" y="-24" type="curve" smooth="yes"/>
      <point x="101" y="-82"/>
      <point x="140" y="-127"/>
      <point x="204" y="-127" type="curve" smooth="yes"/>
      <point x="245" y="-127"/>
      <point x="296" y="-101"/>
      <point x="296" y="-39" type="curve" smooth="yes"/>
      <point x="296" y="-11"/>
      <point x="283" y="37"/>
      <point x="209" y="37" type="curve"/>
    </contour>
    <contour>
      <point x="364" y="567" type="line" smooth="yes"/>
      <point x="459" y="567"/>
      <point x="479" y="545"/>
      <point x="504" y="504" type="curve"/>
      <point x="523" y="533" type="line"/>
      <point x="487" y="620"/>
      <point x="415" y="671"/>
      <point x="297" y="671" type="curve" smooth="yes"/>
      <point x="-21" y="671" type="line"/>
      <point x="-5" y="567" type="line"/>
    </contour>
    <contour>
      <point x="611" y="494" type="line" smooth="yes"/>
      <point x="621" y="546"/>
      <point x="644" y="567"/>
      <point x="674" y="567" type="curve" smooth="yes"/>
      <point x="868" y="567" type="line"/>
      <point x="852" y="671" type="line"/>
      <point x="654" y="671" type="line" smooth="yes"/>
      <point x="571" y="671"/>
      <point x="524" y="617"/>
      <point x="508" y="538" type="curve" smooth="yes"/>
      <point x="362" y="-170" type="line" smooth="yes"/>
      <point x="477" y="-170" type="line" smooth="yes"/>
    </contour>
    <contour>
      <point x="241" y="257" type="line"/>
      <point x="338" y="217"/>
      <point x="395" y="159"/>
      <point x="395" y="36" type="curve" smooth="yes"/>
      <point x="395" y="10"/>
      <point x="389" y="-29"/>
      <point x="379" y="-73" type="curve"/>
      <point x="414" y="-47" type="line"/>
      <point x="425" y="4"/>
      <point x="436" y="34"/>
      <point x="436" y="68" type="curve" smooth="yes"/>
      <point x="436" y="219"/>
      <point x="322" y="327"/>
      <point x="236" y="327" type="curve" smooth="yes"/>
      <point x="170" y="327"/>
      <point x="130" y="282"/>
      <point x="130" y="221" type="curve" smooth="yes"/>
      <point x="130" y="163"/>
      <point x="169" y="118"/>
      <point x="233" y="118" type="curve" smooth="yes"/>
      <point x="288" y="118"/>
      <point x="331" y="158"/>
      <point x="331" y="223" type="curve" smooth="yes"/>
      <point x="331" y="236"/>
      <point x="317" y="282"/>
      <point x="238" y="282" type="curve"/>
    </contour>
    <contour>
      <point x="88" y="448" type="line"/>
      <point x="218" y="439"/>
      <point x="298" y="377"/>
      <point x="281" y="221" type="curve"/>
      <point x="316" y="208" type="line"/>
      <point x="376" y="397"/>
      <point x="215" y="518"/>
      <point x="97" y="518" type="curve" smooth="yes"/>
      <point x="17" y="518"/>
      <point x="-23" y="473"/>
      <point x="-23" y="412" type="curve" smooth="yes"/>
      <point x="-23" y="354"/>
      <point x="16" y="309"/>
      <point x="80" y="309" type="curve" smooth="yes"/>
      <point x="121" y="309"/>
      <point x="172" y="335"/>
      <point x="172" y="397" type="curve" smooth="yes"/>
      <point x="172" y="425"/>
      <point x="159" y="473"/>
      <point x="85" y="473" type="curve"/>
    </contour>
    <contour>
      <point x="135" y="441" type="curve"/>
      <point x="164" y="483" type="line"/>
      <point x="164" y="550"/>
      <point x="118" y="619"/>
      <point x="62" y="652" type="curve"/>
      <point x="21" y="568" type="line"/>
      <point x="85" y="546"/>
      <point x="135" y="503"/>
    </contour>
    <contour>
      <point x="213" y="604" type="line"/>
      <point x="309" y="476"/>
      <point x="402" y="345"/>
      <point x="544" y="345" type="curve" smooth="yes"/>
      <point x="696" y="345"/>
      <point x="732" y="316"/>
      <point x="739" y="276" type="curve"/>
      <point x="726" y="291"/>
      <point x="707" y="300"/>
      <point x="682" y="300" type="curve" smooth="yes"/>
      <point x="620" y="300"/>
      <point x="591" y="257"/>
      <point x="591" y="207" type="curve" smooth="yes"/>
      <point x="591" y="153"/>
      <point x="632" y="118"/>
      <point x="691" y="118" type="curve"/>
      <point x="768" y="118"/>
      <point x="805" y="186"/>
      <point x="805" y="255" type="curve"/>
      <point x="805" y="378"/>
      <point x="672" y="476"/>
      <point x="518" y="476" type="curve" smooth="yes"/>
      <point x="356" y="476"/>
      <point x="340" y="492"/>
      <point x="340" y="604" type="curve"/>
    </contour>
    <contour>
      <point x="426" y="-170" type="move" name="blwm"/>
    </contour>
    <contour>
      <point x="397" y="-170" type="move" name="haln"/>
    </contour>
    <contour>
      <point x="565" y="750" type="move" name="reph"/>
    </contour>
    <contour>
      <point x="565" y="750" type="move" name="chandrabindu"/>
    </contour>
  </outline>
</glyph>
<glyph name="bn_k_ssa" format="1">
  <advance width="860"/>
  <outline>
    <contour>
      <point x="358" y="567" type="line" smooth="yes"/>
      <point x="453" y="567"/>
      <point x="473" y="545"/>
      <point x="498" y="504" type="curve"/>
      <point x="517" y="533" type="line"/>
      <point x="481" y="620"/>
      <point x="409" y="671"/>
      <point x="291" y="671" type="curve" smooth="yes"/>
      <point x="-23" y="671" type="line"/>
      <point x="-7" y="567" type="line"/>
    </contour>
    <contour>
      <point x="605" y="494" type="line" smooth="yes"/>
      <point x="616" y="546"/>
      <point x="638" y="567"/>
      <point x="668" y="567" type="curve" smooth="yes"/>
      <point x="862" y="567" type="line"/>
      <point x="846" y="671" type="line"/>
      <point x="648" y="671" type="line" smooth="yes"/>
      <point x="565" y="671"/>
      <point x="519" y="617"/>
      <point x="502" y="538" type="curve" smooth="yes"/>
      <point x="373" y="-73" type="line" smooth="yes"/>
      <point x="488" y="-73" type="line" smooth="yes"/>
    </contour>
    <contour>
      <point x="235" y="257" type="line"/>
      <point x="332" y="217"/>
      <point x="389" y="159"/>
      <point x="389" y="36" type="curve" smooth="yes"/>
      <point x="389" y="10"/>
      <point x="383" y="-29"/>
      <point x="373" y="-73" type="curve"/>
      <point x="408" y="-47" type="line"/>
      <point x="419" y="4"/>
      <point x="430" y="34"/>
      <point x="430" y="68" type="curve" smooth="yes"/>
      <point x="430" y="219"/>
      <point x="316" y="327"/>
      <point x="230" y="327" type="curve" smooth="yes"/>
      <point x="164" y="327"/>
      <point x="124" y="282"/>
      <point x="124" y="221" type="curve" smooth="yes"/>
      <point x="124" y="163"/>
      <point x="163" y="118"/>
      <point x="227" y="118" type="curve" smooth="yes"/>
      <point x="282" y="118"/>
      <point x="325" y="158"/>
      <point x="325" y="223" type="curve" smooth="yes"/>
      <point x="325" y="236"/>
      <point x="311" y="282"/>
      <point x="232" y="282" type="curve"/>
    </contour>
    <contour>
      <point x="82" y="448" type="line"/>
      <point x="212" y="439"/>
      <point x="292" y="377"/>
      <point x="275" y="221" type="curve"/>
      <point x="310" y="208" type="line"/>
      <point x="370" y="397"/>
      <point x="209" y="518"/>
      <point x="91" y="518" type="curve" smooth="yes"/>
      <point x="11" y="518"/>
      <point x="-29" y="473"/>
      <point x="-29" y="412" type="curve" smooth="yes"/>
      <point x="-29" y="354"/>
      <point x="10" y="309"/>
      <point x="74" y="309" type="curve" smooth="yes"/>
      <point x="115" y="309"/>
      <point x="166" y="335"/>
      <point x="166" y="397" type="curve" smooth="yes"/>
      <point x="166" y="425"/>
      <point x="153" y="473"/>
      <point x="79" y="473" type="curve"/>
    </contour>
    <contour>
      <point x="129" y="441" type="curve"/>
      <point x="158" y="483" type="line"/>
      <point x="158" y="550"/>
      <point x="112" y="619"/>
      <point x="56" y="652" type="curve"/>
      <point x="15" y="568" type="line"/>
      <point x="79" y="546"/>
      <point x="129" y="503"/>
    </contour>
    <contour>
      <point x="207" y="604" type="line"/>
      <point x="303" y="476"/>
      <point x="396" y="345"/>
      <point x="538" y="345" type="curve" smooth="yes"/>
      <point x="690" y="345"/>
      <point x="726" y="316"/>
      <point x="733" y="276" type="curve"/>
      <point x="720" y="291"/>
      <point x="701" y="300"/>
      <point x="676" y="300" type="curve" smooth="yes"/>
      <point x="614" y="300"/>
      <point x="585" y="257"/>
      <point x="585" y="207" type="curve" smooth="yes"/>
      <point x="585" y="153"/>
      <point x="626" y="118"/>
      <point x="685" y="118" type="curve"/>
      <point x="762" y="118"/>
      <point x="799" y="186"/>
      <point x="799" y="255" type="curve"/>
      <point x="799" y="378"/>
      <point x="666" y="476"/>
      <point x="512" y="476" type="curve" smooth="yes"/>
      <point x="350" y="476"/>
      <point x="334" y="492"/>
      <point x="334" y="604" type="curve"/>
    </contour>
    <contour>
      <point x="437" y="-73" type="move" name="blwm"/>
    </contour>
    <contour>
      <point x="409" y="-73" type="move" name="haln"/>
    </contour>
    <contour>
      <point x="571" y="750" type="move" name="reph"/>
    </contour>
    <contour>
      <point x="571" y="750" type="move" name="chandrabindu"/>
    </contour>
  </outline>
</glyph>
<glyph name="bn_k_ta" format="1">
  <advance width="783"/>
  <outline>
    <contour>
      <point x="745" y="256" type="curve"/>
      <point x="745" y="327"/>
      <point x="707" y="396"/>
      <point x="638" y="396" type="curve"/>
      <point x="567" y="396"/>
      <point x="532" y="318"/>
      <point x="492" y="234" type="curve"/>
      <point x="485" y="170" type="line"/>
      <point x="498" y="247"/>
      <point x="567" y="304"/>
      <point x="621" y="304" type="curve" smooth="yes"/>
      <point x="656" y="304"/>
      <point x="689" y="281"/>
      <point x="689" y="232" type="curve" smooth="yes"/>
      <point x="689" y="219"/>
      <point x="687" y="205"/>
      <point x="681" y="189" type="curve"/>
      <point x="702" y="194" type="line"/>
      <point x="687" y="213"/>
      <point x="668" y="238"/>
      <point x="631" y="238" type="curve" smooth="yes"/>
      <point x="582" y="238"/>
      <point x="560" y="203"/>
      <point x="560" y="168" type="curve" smooth="yes"/>
      <point x="560" y="120"/>
      <point x="598" y="98"/>
      <point x="639" y="98" type="curve" smooth="yes"/>
      <point x="709" y="98"/>
      <point x="745" y="189"/>
    </contour>
    <contour>
      <point x="-4" y="386" type="curve"/>
      <point x="-13" y="137"/>
      <point x="156" y="-83"/>
      <point x="340" y="-83" type="curve"/>
      <point x="440" y="-83"/>
      <point x="547" y="-15"/>
      <point x="547" y="115" type="curve" smooth="yes"/>
      <point x="547" y="215"/>
      <point x="481" y="313"/>
      <point x="404" y="313" type="curve" smooth="yes"/>
      <point x="355" y="313"/>
      <point x="326" y="281"/>
      <point x="326" y="232" type="curve" smooth="yes"/>
      <point x="326" y="177"/>
      <point x="369" y="157"/>
      <point x="410" y="157" type="curve" smooth="yes"/>
      <point x="504" y="157"/>
      <point x="556" y="275"/>
      <point x="556" y="363" type="curve" smooth="yes"/>
      <point x="556" y="440"/>
      <point x="504" y="526"/>
      <point x="378" y="526" type="curve" smooth="yes"/>
      <point x="246" y="526"/>
      <point x="131" y="435"/>
      <point x="131" y="320" type="curve"/>
      <point x="131" y="257"/>
      <point x="168" y="218"/>
      <point x="222" y="218" type="curve" smooth="yes"/>
      <point x="269" y="218"/>
      <point x="300" y="252"/>
      <point x="300" y="298" type="curve" smooth="yes"/>
      <point x="300" y="337"/>
      <point x="265" y="364"/>
      <point x="235" y="370" type="curve"/>
      <point x="264" y="313" type="line"/>
      <point x="275" y="400"/>
      <point x="352" y="455"/>
      <point x="410" y="455" type="curve" smooth="yes"/>
      <point x="445" y="455"/>
      <point x="472" y="436"/>
      <point x="472" y="395" type="curve" smooth="yes"/>
      <point x="472" y="364"/>
      <point x="452" y="323"/>
      <point x="423" y="295" type="curve"/>
      <point x="461" y="223" type="line"/>
      <point x="472" y="202"/>
      <point x="477" y="181"/>
      <point x="477" y="162" type="curve" smooth="yes"/>
      <point x="477" y="84"/>
      <point x="410" y="44"/>
      <point x="333" y="44" type="curve" smooth="yes"/>
      <point x="197" y="44"/>
      <point x="68" y="191"/>
      <point x="66" y="355" type="curve"/>
      <point x="66" y="411"/>
      <point x="81" y="444"/>
      <point x="103" y="470" type="curve"/>
      <point x="94" y="480"/>
      <point x="79" y="488"/>
      <point x="62" y="488" type="curve" smooth="yes"/>
      <point x="24" y="488"/>
      <point x="-4" y="462"/>
    </contour>
    <contour>
      <point x="-7" y="567" type="line"/>
      <point x="785" y="567" type="line"/>
      <point x="769" y="671" type="line"/>
      <point x="-23" y="671" type="line"/>
    </contour>
    <contour>
      <point x="353" y="-74" type="move" name="blwm"/>
    </contour>
    <contour>
      <point x="404" y="750" type="move" name="reph"/>
    </contour>
    <contour>
      <point x="404" y="750" type="move" name="chandrabindu"/>
    </contour>
  </outline>
</glyph>
